%TF.GenerationSoftware,KiCad,Pcbnew,8.0.3*%
%TF.CreationDate,2024-06-19T23:52:19+02:00*%
%TF.ProjectId,PT-10 Rear,50542d31-3020-4526-9561-722e6b696361,rev?*%
%TF.SameCoordinates,Original*%
%TF.FileFunction,Legend,Top*%
%TF.FilePolarity,Positive*%
%FSLAX46Y46*%
G04 Gerber Fmt 4.6, Leading zero omitted, Abs format (unit mm)*
G04 Created by KiCad (PCBNEW 8.0.3) date 2024-06-19 23:52:19*
%MOMM*%
%LPD*%
G01*
G04 APERTURE LIST*
%ADD10C,1.000000*%
%ADD11C,0.100000*%
G04 APERTURE END LIST*
D10*
X184095000Y-103752500D02*
X184095000Y-93752500D01*
X246095000Y-106752500D02*
X246095000Y-93752500D01*
X122095000Y-93752500D02*
X122095000Y-101752500D01*
X215095000Y-106752500D02*
X215095000Y-93752500D01*
X75595000Y-93752500D02*
X75595000Y-109752500D01*
X85095000Y-109752500D02*
X66095000Y-109752500D01*
X153095000Y-98752500D02*
X153095000Y-93752500D01*
D11*
G36*
X177103793Y-90696924D02*
G01*
X174302816Y-90696924D01*
X174302816Y-92072500D01*
X173602328Y-92072500D01*
X173602328Y-89996435D01*
X174302816Y-89996435D01*
X176403304Y-89996435D01*
X176403304Y-89271523D01*
X174302816Y-89271523D01*
X174302816Y-89996435D01*
X173602328Y-89996435D01*
X173602328Y-88571034D01*
X177103793Y-88571034D01*
X177103793Y-90696924D01*
G37*
G36*
X177799397Y-92072500D02*
G01*
X177799397Y-88571034D01*
X181300862Y-88571034D01*
X181300862Y-89271523D01*
X178499885Y-89271523D01*
X178499885Y-89996435D01*
X179894023Y-89996435D01*
X179894023Y-90696924D01*
X178499885Y-90696924D01*
X178499885Y-91372011D01*
X181300862Y-91372011D01*
X181300862Y-92072500D01*
X177799397Y-92072500D01*
G37*
G36*
X185497931Y-89271523D02*
G01*
X185497931Y-91366149D01*
X184791581Y-92072500D01*
X181996466Y-92072500D01*
X181996466Y-91372011D01*
X182696954Y-91372011D01*
X184557108Y-91372011D01*
X184797443Y-91137538D01*
X184797443Y-89511857D01*
X184557108Y-89271523D01*
X182696954Y-89271523D01*
X182696954Y-91372011D01*
X181996466Y-91372011D01*
X181996466Y-88571034D01*
X184791581Y-88571034D01*
X185497931Y-89271523D01*
G37*
G36*
X189695000Y-92072500D02*
G01*
X188994512Y-92072500D01*
X188994512Y-90696924D01*
X186894023Y-90696924D01*
X186894023Y-92072500D01*
X186193535Y-92072500D01*
X186193535Y-89996435D01*
X186894023Y-89996435D01*
X188994512Y-89996435D01*
X188994512Y-89271523D01*
X186894023Y-89271523D01*
X186894023Y-89996435D01*
X186193535Y-89996435D01*
X186193535Y-88571034D01*
X189695000Y-88571034D01*
X189695000Y-92072500D01*
G37*
G36*
X190390604Y-92072500D02*
G01*
X190390604Y-88571034D01*
X191091092Y-88571034D01*
X191091092Y-91372011D01*
X193892069Y-91372011D01*
X193892069Y-92072500D01*
X190390604Y-92072500D01*
G37*
G36*
X237005258Y-92072500D02*
G01*
X233503793Y-92072500D01*
X233503793Y-91372011D01*
X234204281Y-91372011D01*
X236304769Y-91372011D01*
X236304769Y-89271523D01*
X234204281Y-89271523D01*
X234204281Y-91372011D01*
X233503793Y-91372011D01*
X233503793Y-88571034D01*
X237005258Y-88571034D01*
X237005258Y-92072500D01*
G37*
G36*
X237700862Y-92072500D02*
G01*
X237700862Y-88571034D01*
X241202327Y-88571034D01*
X241202327Y-92072500D01*
X240501839Y-92072500D01*
X240501839Y-89271523D01*
X238401350Y-89271523D01*
X238401350Y-92072500D01*
X237700862Y-92072500D01*
G37*
G36*
X241897931Y-92072500D02*
G01*
X242598419Y-91369080D01*
X243297931Y-90666638D01*
X243998419Y-89962241D01*
X244697931Y-89258822D01*
X245398419Y-89258822D01*
X244697931Y-89962241D01*
X243998419Y-90666638D01*
X243297931Y-91369080D01*
X242598419Y-92072500D01*
X241897931Y-92072500D01*
G37*
G36*
X249596465Y-92072500D02*
G01*
X246095000Y-92072500D01*
X246095000Y-91372011D01*
X246795488Y-91372011D01*
X248895977Y-91372011D01*
X248895977Y-89271523D01*
X246795488Y-89271523D01*
X246795488Y-91372011D01*
X246095000Y-91372011D01*
X246095000Y-88571034D01*
X249596465Y-88571034D01*
X249596465Y-92072500D01*
G37*
G36*
X250292069Y-92072500D02*
G01*
X250292069Y-88571034D01*
X253793534Y-88571034D01*
X253793534Y-89271523D01*
X250992557Y-89271523D01*
X250992557Y-89996435D01*
X252386696Y-89996435D01*
X252386696Y-90696924D01*
X250992557Y-90696924D01*
X250992557Y-92072500D01*
X250292069Y-92072500D01*
G37*
G36*
X254489138Y-92072500D02*
G01*
X254489138Y-88571034D01*
X257990603Y-88571034D01*
X257990603Y-89271523D01*
X255189626Y-89271523D01*
X255189626Y-89996435D01*
X256583765Y-89996435D01*
X256583765Y-90696924D01*
X255189626Y-90696924D01*
X255189626Y-92072500D01*
X254489138Y-92072500D01*
G37*
G36*
X208799397Y-92072500D02*
G01*
X208799397Y-88571034D01*
X209499885Y-88571034D01*
X209499885Y-91372011D01*
X211600373Y-91372011D01*
X211600373Y-88571034D01*
X212300862Y-88571034D01*
X212300862Y-92072500D01*
X208799397Y-92072500D01*
G37*
G36*
X212996466Y-92072500D02*
G01*
X212996466Y-91372011D01*
X215797443Y-91372011D01*
X215797443Y-90696924D01*
X212996466Y-90696924D01*
X212996466Y-88571034D01*
X216497931Y-88571034D01*
X216497931Y-89271523D01*
X213696954Y-89271523D01*
X213696954Y-89996435D01*
X216497931Y-89996435D01*
X216497931Y-92072500D01*
X212996466Y-92072500D01*
G37*
G36*
X220695000Y-92072500D02*
G01*
X217193535Y-92072500D01*
X217193535Y-91372011D01*
X217894023Y-91372011D01*
X219994512Y-91372011D01*
X219994512Y-90696924D01*
X217894023Y-90696924D01*
X217894023Y-91372011D01*
X217193535Y-91372011D01*
X217193535Y-89996435D01*
X217894023Y-89996435D01*
X219994512Y-89996435D01*
X219994512Y-89271523D01*
X217894023Y-89271523D01*
X217894023Y-89996435D01*
X217193535Y-89996435D01*
X217193535Y-88571034D01*
X220695000Y-88571034D01*
X220695000Y-92072500D01*
G37*
G36*
X147498908Y-92072500D02*
G01*
X147498908Y-88571034D01*
X150950547Y-88571034D01*
X150950547Y-92072500D01*
X150250059Y-92072500D01*
X150250059Y-89271523D01*
X149574972Y-89271523D01*
X149574972Y-92072500D01*
X148874483Y-92072500D01*
X148874483Y-89271523D01*
X148199396Y-89271523D01*
X148199396Y-92072500D01*
X147498908Y-92072500D01*
G37*
G36*
X151695977Y-92072500D02*
G01*
X151695977Y-88571034D01*
X152396465Y-88571034D01*
X152396465Y-92072500D01*
X151695977Y-92072500D01*
G37*
G36*
X156596465Y-89271523D02*
G01*
X156596465Y-91366149D01*
X155890115Y-92072500D01*
X153095000Y-92072500D01*
X153095000Y-91372011D01*
X153795488Y-91372011D01*
X155655642Y-91372011D01*
X155895977Y-91137538D01*
X155895977Y-89511857D01*
X155655642Y-89271523D01*
X153795488Y-89271523D01*
X153795488Y-91372011D01*
X153095000Y-91372011D01*
X153095000Y-88571034D01*
X155890115Y-88571034D01*
X156596465Y-89271523D01*
G37*
G36*
X157292069Y-92072500D02*
G01*
X157292069Y-88571034D01*
X157992557Y-88571034D01*
X157992557Y-92072500D01*
X157292069Y-92072500D01*
G37*
G36*
X111440150Y-91322185D02*
G01*
X112304769Y-90448773D01*
X112304769Y-88571034D01*
X113005258Y-88571034D01*
X113005258Y-90679338D01*
X111604281Y-92072500D01*
X110904769Y-92072500D01*
X109503793Y-90679338D01*
X109503793Y-88571034D01*
X110204281Y-88571034D01*
X110204281Y-90404809D01*
X111128496Y-91322185D01*
X111440150Y-91322185D01*
G37*
G36*
X117202327Y-92072500D02*
G01*
X113700862Y-92072500D01*
X113700862Y-91372011D01*
X114401350Y-91372011D01*
X116501839Y-91372011D01*
X116501839Y-89271523D01*
X114401350Y-89271523D01*
X114401350Y-91372011D01*
X113700862Y-91372011D01*
X113700862Y-88571034D01*
X117202327Y-88571034D01*
X117202327Y-92072500D01*
G37*
G36*
X117897931Y-92072500D02*
G01*
X117897931Y-88571034D01*
X118598419Y-88571034D01*
X118598419Y-91372011D01*
X121399396Y-91372011D01*
X121399396Y-92072500D01*
X117897931Y-92072500D01*
G37*
G36*
X122095000Y-92072500D02*
G01*
X122095000Y-88571034D01*
X122795488Y-88571034D01*
X122795488Y-91372011D01*
X124895977Y-91372011D01*
X124895977Y-88571034D01*
X125596465Y-88571034D01*
X125596465Y-92072500D01*
X122095000Y-92072500D01*
G37*
G36*
X126292069Y-92072500D02*
G01*
X126292069Y-88571034D01*
X129743709Y-88571034D01*
X129743709Y-92072500D01*
X129043220Y-92072500D01*
X129043220Y-89271523D01*
X128368133Y-89271523D01*
X128368133Y-92072500D01*
X127667645Y-92072500D01*
X127667645Y-89271523D01*
X126992557Y-89271523D01*
X126992557Y-92072500D01*
X126292069Y-92072500D01*
G37*
G36*
X130489138Y-92072500D02*
G01*
X130489138Y-88571034D01*
X133990603Y-88571034D01*
X133990603Y-89271523D01*
X131189626Y-89271523D01*
X131189626Y-89996435D01*
X132583765Y-89996435D01*
X132583765Y-90696924D01*
X131189626Y-90696924D01*
X131189626Y-91372011D01*
X133990603Y-91372011D01*
X133990603Y-92072500D01*
X130489138Y-92072500D01*
G37*
G36*
X58810632Y-92072500D02*
G01*
X55309167Y-92072500D01*
X55309167Y-91372011D01*
X56009655Y-91372011D01*
X58110143Y-91372011D01*
X58110143Y-89271523D01*
X56009655Y-89271523D01*
X56009655Y-91372011D01*
X55309167Y-91372011D01*
X55309167Y-88571034D01*
X58810632Y-88571034D01*
X58810632Y-92072500D01*
G37*
G36*
X59506236Y-92072500D02*
G01*
X59506236Y-88571034D01*
X60206724Y-88571034D01*
X60206724Y-91372011D01*
X62307213Y-91372011D01*
X62307213Y-88571034D01*
X63007701Y-88571034D01*
X63007701Y-92072500D01*
X59506236Y-92072500D01*
G37*
G36*
X65078880Y-92072500D02*
G01*
X65078880Y-89271523D01*
X63703305Y-89271523D01*
X63703305Y-88571034D01*
X67204770Y-88571034D01*
X67204770Y-89271523D01*
X65779369Y-89271523D01*
X65779369Y-92072500D01*
X65078880Y-92072500D01*
G37*
G36*
X71401839Y-90696924D02*
G01*
X68600862Y-90696924D01*
X68600862Y-92072500D01*
X67900374Y-92072500D01*
X67900374Y-89996435D01*
X68600862Y-89996435D01*
X70701351Y-89996435D01*
X70701351Y-89271523D01*
X68600862Y-89271523D01*
X68600862Y-89996435D01*
X67900374Y-89996435D01*
X67900374Y-88571034D01*
X71401839Y-88571034D01*
X71401839Y-90696924D01*
G37*
G36*
X72097443Y-92072500D02*
G01*
X72097443Y-88571034D01*
X72797931Y-88571034D01*
X72797931Y-91372011D01*
X74898420Y-91372011D01*
X74898420Y-88571034D01*
X75598908Y-88571034D01*
X75598908Y-92072500D01*
X72097443Y-92072500D01*
G37*
G36*
X77670088Y-92072500D02*
G01*
X77670088Y-89271523D01*
X76294512Y-89271523D01*
X76294512Y-88571034D01*
X79795977Y-88571034D01*
X79795977Y-89271523D01*
X78370576Y-89271523D01*
X78370576Y-92072500D01*
X77670088Y-92072500D01*
G37*
G36*
X81890604Y-92072500D02*
G01*
X81890604Y-88571034D01*
X85342244Y-88571034D01*
X85342244Y-92072500D01*
X84641755Y-92072500D01*
X84641755Y-89271523D01*
X83966668Y-89271523D01*
X83966668Y-92072500D01*
X83266180Y-92072500D01*
X83266180Y-89271523D01*
X82591093Y-89271523D01*
X82591093Y-92072500D01*
X81890604Y-92072500D01*
G37*
G36*
X89589139Y-92072500D02*
G01*
X88888650Y-92072500D01*
X88888650Y-90696924D01*
X86788162Y-90696924D01*
X86788162Y-92072500D01*
X86087673Y-92072500D01*
X86087673Y-89996435D01*
X86788162Y-89996435D01*
X88888650Y-89996435D01*
X88888650Y-89271523D01*
X86788162Y-89271523D01*
X86788162Y-89996435D01*
X86087673Y-89996435D01*
X86087673Y-88571034D01*
X89589139Y-88571034D01*
X89589139Y-92072500D01*
G37*
G36*
X90284742Y-92072500D02*
G01*
X90284742Y-88571034D01*
X90985231Y-88571034D01*
X90985231Y-92072500D01*
X90284742Y-92072500D01*
G37*
G36*
X91683765Y-92072500D02*
G01*
X91683765Y-88571034D01*
X95185231Y-88571034D01*
X95185231Y-92072500D01*
X94484742Y-92072500D01*
X94484742Y-89271523D01*
X92384254Y-89271523D01*
X92384254Y-92072500D01*
X91683765Y-92072500D01*
G37*
M02*
