%TF.GenerationSoftware,KiCad,Pcbnew,8.0.4*%
%TF.CreationDate,2024-07-29T20:22:53+02:00*%
%TF.ProjectId,WH148,57483134-382e-46b6-9963-61645f706362,rev?*%
%TF.SameCoordinates,Original*%
%TF.FileFunction,Legend,Bot*%
%TF.FilePolarity,Positive*%
%FSLAX46Y46*%
G04 Gerber Fmt 4.6, Leading zero omitted, Abs format (unit mm)*
G04 Created by KiCad (PCBNEW 8.0.4) date 2024-07-29 20:22:53*
%MOMM*%
%LPD*%
G01*
G04 APERTURE LIST*
%ADD10C,0.100000*%
%ADD11C,0.150000*%
%ADD12C,0.120000*%
G04 APERTURE END LIST*
D10*
X150892408Y-96271519D02*
X151225741Y-95795328D01*
X151463836Y-96271519D02*
X151463836Y-95271519D01*
X151463836Y-95271519D02*
X151082884Y-95271519D01*
X151082884Y-95271519D02*
X150987646Y-95319138D01*
X150987646Y-95319138D02*
X150940027Y-95366757D01*
X150940027Y-95366757D02*
X150892408Y-95461995D01*
X150892408Y-95461995D02*
X150892408Y-95604852D01*
X150892408Y-95604852D02*
X150940027Y-95700090D01*
X150940027Y-95700090D02*
X150987646Y-95747709D01*
X150987646Y-95747709D02*
X151082884Y-95795328D01*
X151082884Y-95795328D02*
X151463836Y-95795328D01*
X150606693Y-95271519D02*
X150273360Y-96271519D01*
X150273360Y-96271519D02*
X149940027Y-95271519D01*
X149701931Y-95271519D02*
X149082884Y-95271519D01*
X149082884Y-95271519D02*
X149416217Y-95652471D01*
X149416217Y-95652471D02*
X149273360Y-95652471D01*
X149273360Y-95652471D02*
X149178122Y-95700090D01*
X149178122Y-95700090D02*
X149130503Y-95747709D01*
X149130503Y-95747709D02*
X149082884Y-95842947D01*
X149082884Y-95842947D02*
X149082884Y-96081042D01*
X149082884Y-96081042D02*
X149130503Y-96176280D01*
X149130503Y-96176280D02*
X149178122Y-96223900D01*
X149178122Y-96223900D02*
X149273360Y-96271519D01*
X149273360Y-96271519D02*
X149559074Y-96271519D01*
X149559074Y-96271519D02*
X149654312Y-96223900D01*
X149654312Y-96223900D02*
X149701931Y-96176280D01*
X150892408Y-98017769D02*
X151225741Y-97541578D01*
X151463836Y-98017769D02*
X151463836Y-97017769D01*
X151463836Y-97017769D02*
X151082884Y-97017769D01*
X151082884Y-97017769D02*
X150987646Y-97065388D01*
X150987646Y-97065388D02*
X150940027Y-97113007D01*
X150940027Y-97113007D02*
X150892408Y-97208245D01*
X150892408Y-97208245D02*
X150892408Y-97351102D01*
X150892408Y-97351102D02*
X150940027Y-97446340D01*
X150940027Y-97446340D02*
X150987646Y-97493959D01*
X150987646Y-97493959D02*
X151082884Y-97541578D01*
X151082884Y-97541578D02*
X151463836Y-97541578D01*
X150606693Y-97017769D02*
X150273360Y-98017769D01*
X150273360Y-98017769D02*
X149940027Y-97017769D01*
X149463836Y-97446340D02*
X149559074Y-97398721D01*
X149559074Y-97398721D02*
X149606693Y-97351102D01*
X149606693Y-97351102D02*
X149654312Y-97255864D01*
X149654312Y-97255864D02*
X149654312Y-97208245D01*
X149654312Y-97208245D02*
X149606693Y-97113007D01*
X149606693Y-97113007D02*
X149559074Y-97065388D01*
X149559074Y-97065388D02*
X149463836Y-97017769D01*
X149463836Y-97017769D02*
X149273360Y-97017769D01*
X149273360Y-97017769D02*
X149178122Y-97065388D01*
X149178122Y-97065388D02*
X149130503Y-97113007D01*
X149130503Y-97113007D02*
X149082884Y-97208245D01*
X149082884Y-97208245D02*
X149082884Y-97255864D01*
X149082884Y-97255864D02*
X149130503Y-97351102D01*
X149130503Y-97351102D02*
X149178122Y-97398721D01*
X149178122Y-97398721D02*
X149273360Y-97446340D01*
X149273360Y-97446340D02*
X149463836Y-97446340D01*
X149463836Y-97446340D02*
X149559074Y-97493959D01*
X149559074Y-97493959D02*
X149606693Y-97541578D01*
X149606693Y-97541578D02*
X149654312Y-97636816D01*
X149654312Y-97636816D02*
X149654312Y-97827292D01*
X149654312Y-97827292D02*
X149606693Y-97922530D01*
X149606693Y-97922530D02*
X149559074Y-97970150D01*
X149559074Y-97970150D02*
X149463836Y-98017769D01*
X149463836Y-98017769D02*
X149273360Y-98017769D01*
X149273360Y-98017769D02*
X149178122Y-97970150D01*
X149178122Y-97970150D02*
X149130503Y-97922530D01*
X149130503Y-97922530D02*
X149082884Y-97827292D01*
X149082884Y-97827292D02*
X149082884Y-97636816D01*
X149082884Y-97636816D02*
X149130503Y-97541578D01*
X149130503Y-97541578D02*
X149178122Y-97493959D01*
X149178122Y-97493959D02*
X149273360Y-97446340D01*
D11*
X131711813Y-105679166D02*
X132426098Y-105679166D01*
X132426098Y-105679166D02*
X132568955Y-105631547D01*
X132568955Y-105631547D02*
X132664194Y-105536309D01*
X132664194Y-105536309D02*
X132711813Y-105393452D01*
X132711813Y-105393452D02*
X132711813Y-105298214D01*
X131807051Y-106107738D02*
X131759432Y-106155357D01*
X131759432Y-106155357D02*
X131711813Y-106250595D01*
X131711813Y-106250595D02*
X131711813Y-106488690D01*
X131711813Y-106488690D02*
X131759432Y-106583928D01*
X131759432Y-106583928D02*
X131807051Y-106631547D01*
X131807051Y-106631547D02*
X131902289Y-106679166D01*
X131902289Y-106679166D02*
X131997527Y-106679166D01*
X131997527Y-106679166D02*
X132140384Y-106631547D01*
X132140384Y-106631547D02*
X132711813Y-106060119D01*
X132711813Y-106060119D02*
X132711813Y-106679166D01*
D10*
X208439108Y-96271519D02*
X208772441Y-95795328D01*
X209010536Y-96271519D02*
X209010536Y-95271519D01*
X209010536Y-95271519D02*
X208629584Y-95271519D01*
X208629584Y-95271519D02*
X208534346Y-95319138D01*
X208534346Y-95319138D02*
X208486727Y-95366757D01*
X208486727Y-95366757D02*
X208439108Y-95461995D01*
X208439108Y-95461995D02*
X208439108Y-95604852D01*
X208439108Y-95604852D02*
X208486727Y-95700090D01*
X208486727Y-95700090D02*
X208534346Y-95747709D01*
X208534346Y-95747709D02*
X208629584Y-95795328D01*
X208629584Y-95795328D02*
X209010536Y-95795328D01*
X208153393Y-95271519D02*
X207820060Y-96271519D01*
X207820060Y-96271519D02*
X207486727Y-95271519D01*
X206677203Y-95271519D02*
X207153393Y-95271519D01*
X207153393Y-95271519D02*
X207201012Y-95747709D01*
X207201012Y-95747709D02*
X207153393Y-95700090D01*
X207153393Y-95700090D02*
X207058155Y-95652471D01*
X207058155Y-95652471D02*
X206820060Y-95652471D01*
X206820060Y-95652471D02*
X206724822Y-95700090D01*
X206724822Y-95700090D02*
X206677203Y-95747709D01*
X206677203Y-95747709D02*
X206629584Y-95842947D01*
X206629584Y-95842947D02*
X206629584Y-96081042D01*
X206629584Y-96081042D02*
X206677203Y-96176280D01*
X206677203Y-96176280D02*
X206724822Y-96223900D01*
X206724822Y-96223900D02*
X206820060Y-96271519D01*
X206820060Y-96271519D02*
X207058155Y-96271519D01*
X207058155Y-96271519D02*
X207153393Y-96223900D01*
X207153393Y-96223900D02*
X207201012Y-96176280D01*
D11*
X131711813Y-86940766D02*
X132426098Y-86940766D01*
X132426098Y-86940766D02*
X132568955Y-86893147D01*
X132568955Y-86893147D02*
X132664194Y-86797909D01*
X132664194Y-86797909D02*
X132711813Y-86655052D01*
X132711813Y-86655052D02*
X132711813Y-86559814D01*
X132711813Y-87940766D02*
X132711813Y-87369338D01*
X132711813Y-87655052D02*
X131711813Y-87655052D01*
X131711813Y-87655052D02*
X131854670Y-87559814D01*
X131854670Y-87559814D02*
X131949908Y-87464576D01*
X131949908Y-87464576D02*
X131997527Y-87369338D01*
D10*
X208915298Y-98017769D02*
X209248631Y-97541578D01*
X209486726Y-98017769D02*
X209486726Y-97017769D01*
X209486726Y-97017769D02*
X209105774Y-97017769D01*
X209105774Y-97017769D02*
X209010536Y-97065388D01*
X209010536Y-97065388D02*
X208962917Y-97113007D01*
X208962917Y-97113007D02*
X208915298Y-97208245D01*
X208915298Y-97208245D02*
X208915298Y-97351102D01*
X208915298Y-97351102D02*
X208962917Y-97446340D01*
X208962917Y-97446340D02*
X209010536Y-97493959D01*
X209010536Y-97493959D02*
X209105774Y-97541578D01*
X209105774Y-97541578D02*
X209486726Y-97541578D01*
X208629583Y-97017769D02*
X208296250Y-98017769D01*
X208296250Y-98017769D02*
X207962917Y-97017769D01*
X207105774Y-98017769D02*
X207677202Y-98017769D01*
X207391488Y-98017769D02*
X207391488Y-97017769D01*
X207391488Y-97017769D02*
X207486726Y-97160626D01*
X207486726Y-97160626D02*
X207581964Y-97255864D01*
X207581964Y-97255864D02*
X207677202Y-97303483D01*
X206486726Y-97017769D02*
X206391488Y-97017769D01*
X206391488Y-97017769D02*
X206296250Y-97065388D01*
X206296250Y-97065388D02*
X206248631Y-97113007D01*
X206248631Y-97113007D02*
X206201012Y-97208245D01*
X206201012Y-97208245D02*
X206153393Y-97398721D01*
X206153393Y-97398721D02*
X206153393Y-97636816D01*
X206153393Y-97636816D02*
X206201012Y-97827292D01*
X206201012Y-97827292D02*
X206248631Y-97922530D01*
X206248631Y-97922530D02*
X206296250Y-97970150D01*
X206296250Y-97970150D02*
X206391488Y-98017769D01*
X206391488Y-98017769D02*
X206486726Y-98017769D01*
X206486726Y-98017769D02*
X206581964Y-97970150D01*
X206581964Y-97970150D02*
X206629583Y-97922530D01*
X206629583Y-97922530D02*
X206677202Y-97827292D01*
X206677202Y-97827292D02*
X206724821Y-97636816D01*
X206724821Y-97636816D02*
X206724821Y-97398721D01*
X206724821Y-97398721D02*
X206677202Y-97208245D01*
X206677202Y-97208245D02*
X206629583Y-97113007D01*
X206629583Y-97113007D02*
X206581964Y-97065388D01*
X206581964Y-97065388D02*
X206486726Y-97017769D01*
X179666238Y-96271519D02*
X179999571Y-95795328D01*
X180237666Y-96271519D02*
X180237666Y-95271519D01*
X180237666Y-95271519D02*
X179856714Y-95271519D01*
X179856714Y-95271519D02*
X179761476Y-95319138D01*
X179761476Y-95319138D02*
X179713857Y-95366757D01*
X179713857Y-95366757D02*
X179666238Y-95461995D01*
X179666238Y-95461995D02*
X179666238Y-95604852D01*
X179666238Y-95604852D02*
X179713857Y-95700090D01*
X179713857Y-95700090D02*
X179761476Y-95747709D01*
X179761476Y-95747709D02*
X179856714Y-95795328D01*
X179856714Y-95795328D02*
X180237666Y-95795328D01*
X179380523Y-95271519D02*
X179047190Y-96271519D01*
X179047190Y-96271519D02*
X178713857Y-95271519D01*
X177951952Y-95604852D02*
X177951952Y-96271519D01*
X178190047Y-95223900D02*
X178428142Y-95938185D01*
X178428142Y-95938185D02*
X177809095Y-95938185D01*
X93346708Y-98017769D02*
X93680041Y-97541578D01*
X93918136Y-98017769D02*
X93918136Y-97017769D01*
X93918136Y-97017769D02*
X93537184Y-97017769D01*
X93537184Y-97017769D02*
X93441946Y-97065388D01*
X93441946Y-97065388D02*
X93394327Y-97113007D01*
X93394327Y-97113007D02*
X93346708Y-97208245D01*
X93346708Y-97208245D02*
X93346708Y-97351102D01*
X93346708Y-97351102D02*
X93394327Y-97446340D01*
X93394327Y-97446340D02*
X93441946Y-97493959D01*
X93441946Y-97493959D02*
X93537184Y-97541578D01*
X93537184Y-97541578D02*
X93918136Y-97541578D01*
X93060993Y-97017769D02*
X92727660Y-98017769D01*
X92727660Y-98017769D02*
X92394327Y-97017769D01*
X91632422Y-97017769D02*
X91822898Y-97017769D01*
X91822898Y-97017769D02*
X91918136Y-97065388D01*
X91918136Y-97065388D02*
X91965755Y-97113007D01*
X91965755Y-97113007D02*
X92060993Y-97255864D01*
X92060993Y-97255864D02*
X92108612Y-97446340D01*
X92108612Y-97446340D02*
X92108612Y-97827292D01*
X92108612Y-97827292D02*
X92060993Y-97922530D01*
X92060993Y-97922530D02*
X92013374Y-97970150D01*
X92013374Y-97970150D02*
X91918136Y-98017769D01*
X91918136Y-98017769D02*
X91727660Y-98017769D01*
X91727660Y-98017769D02*
X91632422Y-97970150D01*
X91632422Y-97970150D02*
X91584803Y-97922530D01*
X91584803Y-97922530D02*
X91537184Y-97827292D01*
X91537184Y-97827292D02*
X91537184Y-97589197D01*
X91537184Y-97589197D02*
X91584803Y-97493959D01*
X91584803Y-97493959D02*
X91632422Y-97446340D01*
X91632422Y-97446340D02*
X91727660Y-97398721D01*
X91727660Y-97398721D02*
X91918136Y-97398721D01*
X91918136Y-97398721D02*
X92013374Y-97446340D01*
X92013374Y-97446340D02*
X92060993Y-97493959D01*
X92060993Y-97493959D02*
X92108612Y-97589197D01*
X93346708Y-96271519D02*
X93680041Y-95795328D01*
X93918136Y-96271519D02*
X93918136Y-95271519D01*
X93918136Y-95271519D02*
X93537184Y-95271519D01*
X93537184Y-95271519D02*
X93441946Y-95319138D01*
X93441946Y-95319138D02*
X93394327Y-95366757D01*
X93394327Y-95366757D02*
X93346708Y-95461995D01*
X93346708Y-95461995D02*
X93346708Y-95604852D01*
X93346708Y-95604852D02*
X93394327Y-95700090D01*
X93394327Y-95700090D02*
X93441946Y-95747709D01*
X93441946Y-95747709D02*
X93537184Y-95795328D01*
X93537184Y-95795328D02*
X93918136Y-95795328D01*
X93060993Y-95271519D02*
X92727660Y-96271519D01*
X92727660Y-96271519D02*
X92394327Y-95271519D01*
X91537184Y-96271519D02*
X92108612Y-96271519D01*
X91822898Y-96271519D02*
X91822898Y-95271519D01*
X91822898Y-95271519D02*
X91918136Y-95414376D01*
X91918136Y-95414376D02*
X92013374Y-95509614D01*
X92013374Y-95509614D02*
X92108612Y-95557233D01*
X122128808Y-98017769D02*
X122462141Y-97541578D01*
X122700236Y-98017769D02*
X122700236Y-97017769D01*
X122700236Y-97017769D02*
X122319284Y-97017769D01*
X122319284Y-97017769D02*
X122224046Y-97065388D01*
X122224046Y-97065388D02*
X122176427Y-97113007D01*
X122176427Y-97113007D02*
X122128808Y-97208245D01*
X122128808Y-97208245D02*
X122128808Y-97351102D01*
X122128808Y-97351102D02*
X122176427Y-97446340D01*
X122176427Y-97446340D02*
X122224046Y-97493959D01*
X122224046Y-97493959D02*
X122319284Y-97541578D01*
X122319284Y-97541578D02*
X122700236Y-97541578D01*
X121843093Y-97017769D02*
X121509760Y-98017769D01*
X121509760Y-98017769D02*
X121176427Y-97017769D01*
X120938331Y-97017769D02*
X120271665Y-97017769D01*
X120271665Y-97017769D02*
X120700236Y-98017769D01*
X122119508Y-96271519D02*
X122452841Y-95795328D01*
X122690936Y-96271519D02*
X122690936Y-95271519D01*
X122690936Y-95271519D02*
X122309984Y-95271519D01*
X122309984Y-95271519D02*
X122214746Y-95319138D01*
X122214746Y-95319138D02*
X122167127Y-95366757D01*
X122167127Y-95366757D02*
X122119508Y-95461995D01*
X122119508Y-95461995D02*
X122119508Y-95604852D01*
X122119508Y-95604852D02*
X122167127Y-95700090D01*
X122167127Y-95700090D02*
X122214746Y-95747709D01*
X122214746Y-95747709D02*
X122309984Y-95795328D01*
X122309984Y-95795328D02*
X122690936Y-95795328D01*
X121833793Y-95271519D02*
X121500460Y-96271519D01*
X121500460Y-96271519D02*
X121167127Y-95271519D01*
X120881412Y-95366757D02*
X120833793Y-95319138D01*
X120833793Y-95319138D02*
X120738555Y-95271519D01*
X120738555Y-95271519D02*
X120500460Y-95271519D01*
X120500460Y-95271519D02*
X120405222Y-95319138D01*
X120405222Y-95319138D02*
X120357603Y-95366757D01*
X120357603Y-95366757D02*
X120309984Y-95461995D01*
X120309984Y-95461995D02*
X120309984Y-95557233D01*
X120309984Y-95557233D02*
X120357603Y-95700090D01*
X120357603Y-95700090D02*
X120929031Y-96271519D01*
X120929031Y-96271519D02*
X120309984Y-96271519D01*
X179665238Y-98017769D02*
X179998571Y-97541578D01*
X180236666Y-98017769D02*
X180236666Y-97017769D01*
X180236666Y-97017769D02*
X179855714Y-97017769D01*
X179855714Y-97017769D02*
X179760476Y-97065388D01*
X179760476Y-97065388D02*
X179712857Y-97113007D01*
X179712857Y-97113007D02*
X179665238Y-97208245D01*
X179665238Y-97208245D02*
X179665238Y-97351102D01*
X179665238Y-97351102D02*
X179712857Y-97446340D01*
X179712857Y-97446340D02*
X179760476Y-97493959D01*
X179760476Y-97493959D02*
X179855714Y-97541578D01*
X179855714Y-97541578D02*
X180236666Y-97541578D01*
X179379523Y-97017769D02*
X179046190Y-98017769D01*
X179046190Y-98017769D02*
X178712857Y-97017769D01*
X178331904Y-98017769D02*
X178141428Y-98017769D01*
X178141428Y-98017769D02*
X178046190Y-97970150D01*
X178046190Y-97970150D02*
X177998571Y-97922530D01*
X177998571Y-97922530D02*
X177903333Y-97779673D01*
X177903333Y-97779673D02*
X177855714Y-97589197D01*
X177855714Y-97589197D02*
X177855714Y-97208245D01*
X177855714Y-97208245D02*
X177903333Y-97113007D01*
X177903333Y-97113007D02*
X177950952Y-97065388D01*
X177950952Y-97065388D02*
X178046190Y-97017769D01*
X178046190Y-97017769D02*
X178236666Y-97017769D01*
X178236666Y-97017769D02*
X178331904Y-97065388D01*
X178331904Y-97065388D02*
X178379523Y-97113007D01*
X178379523Y-97113007D02*
X178427142Y-97208245D01*
X178427142Y-97208245D02*
X178427142Y-97446340D01*
X178427142Y-97446340D02*
X178379523Y-97541578D01*
X178379523Y-97541578D02*
X178331904Y-97589197D01*
X178331904Y-97589197D02*
X178236666Y-97636816D01*
X178236666Y-97636816D02*
X178046190Y-97636816D01*
X178046190Y-97636816D02*
X177950952Y-97589197D01*
X177950952Y-97589197D02*
X177903333Y-97541578D01*
X177903333Y-97541578D02*
X177855714Y-97446340D01*
D12*
%TO.C,J2*%
X133163244Y-97652500D02*
X133163244Y-98902500D01*
X133263244Y-99412500D02*
X133263244Y-99712500D01*
X133263244Y-99712500D02*
X133463244Y-99712500D01*
X133363244Y-99412500D02*
X133363244Y-99712500D01*
X133463244Y-97952500D02*
X133463244Y-114072500D01*
X133463244Y-99412500D02*
X133263244Y-99412500D01*
X133463244Y-111512500D02*
X134073244Y-111512500D01*
X133463244Y-114072500D02*
X138183244Y-114072500D01*
X134073244Y-98562500D02*
X134073244Y-100512500D01*
X134073244Y-100512500D02*
X133463244Y-100512500D01*
X134073244Y-111512500D02*
X134073244Y-113462500D01*
X134073244Y-113462500D02*
X137573244Y-113462500D01*
X134413244Y-97652500D02*
X133163244Y-97652500D01*
X134773244Y-98562500D02*
X134773244Y-97952500D01*
X134773244Y-113462500D02*
X134773244Y-114072500D01*
X136073244Y-98562500D02*
X136073244Y-97952500D01*
X136073244Y-113462500D02*
X136073244Y-114072500D01*
X137073244Y-100912500D02*
X137573244Y-100912500D01*
X137073244Y-101012500D02*
X137573244Y-101012500D01*
X137073244Y-101112500D02*
X137073244Y-100912500D01*
X137073244Y-102912500D02*
X137573244Y-102912500D01*
X137073244Y-103012500D02*
X137573244Y-103012500D01*
X137073244Y-103112500D02*
X137073244Y-102912500D01*
X137073244Y-104912500D02*
X137573244Y-104912500D01*
X137073244Y-105012500D02*
X137573244Y-105012500D01*
X137073244Y-105112500D02*
X137073244Y-104912500D01*
X137073244Y-106912500D02*
X137573244Y-106912500D01*
X137073244Y-107012500D02*
X137573244Y-107012500D01*
X137073244Y-107112500D02*
X137073244Y-106912500D01*
X137073244Y-108912500D02*
X137573244Y-108912500D01*
X137073244Y-109012500D02*
X137573244Y-109012500D01*
X137073244Y-109112500D02*
X137073244Y-108912500D01*
X137073244Y-110912500D02*
X137573244Y-110912500D01*
X137073244Y-111012500D02*
X137573244Y-111012500D01*
X137073244Y-111112500D02*
X137073244Y-110912500D01*
X137573244Y-98562500D02*
X134073244Y-98562500D01*
X137573244Y-101112500D02*
X137073244Y-101112500D01*
X137573244Y-103112500D02*
X137073244Y-103112500D01*
X137573244Y-105112500D02*
X137073244Y-105112500D01*
X137573244Y-107112500D02*
X137073244Y-107112500D01*
X137573244Y-109112500D02*
X137073244Y-109112500D01*
X137573244Y-111112500D02*
X137073244Y-111112500D01*
X137573244Y-113462500D02*
X137573244Y-98562500D01*
X138183244Y-97952500D02*
X133463244Y-97952500D01*
X138183244Y-114072500D02*
X138183244Y-97952500D01*
%TO.C,J1*%
X133163244Y-78914100D02*
X133163244Y-80164100D01*
X133263244Y-80674100D02*
X133263244Y-80974100D01*
X133263244Y-80974100D02*
X133463244Y-80974100D01*
X133363244Y-80674100D02*
X133363244Y-80974100D01*
X133463244Y-79214100D02*
X133463244Y-95334100D01*
X133463244Y-80674100D02*
X133263244Y-80674100D01*
X133463244Y-92774100D02*
X134073244Y-92774100D01*
X133463244Y-95334100D02*
X138183244Y-95334100D01*
X134073244Y-79824100D02*
X134073244Y-81774100D01*
X134073244Y-81774100D02*
X133463244Y-81774100D01*
X134073244Y-92774100D02*
X134073244Y-94724100D01*
X134073244Y-94724100D02*
X137573244Y-94724100D01*
X134413244Y-78914100D02*
X133163244Y-78914100D01*
X134773244Y-79824100D02*
X134773244Y-79214100D01*
X134773244Y-94724100D02*
X134773244Y-95334100D01*
X136073244Y-79824100D02*
X136073244Y-79214100D01*
X136073244Y-94724100D02*
X136073244Y-95334100D01*
X137073244Y-82174100D02*
X137573244Y-82174100D01*
X137073244Y-82274100D02*
X137573244Y-82274100D01*
X137073244Y-82374100D02*
X137073244Y-82174100D01*
X137073244Y-84174100D02*
X137573244Y-84174100D01*
X137073244Y-84274100D02*
X137573244Y-84274100D01*
X137073244Y-84374100D02*
X137073244Y-84174100D01*
X137073244Y-86174100D02*
X137573244Y-86174100D01*
X137073244Y-86274100D02*
X137573244Y-86274100D01*
X137073244Y-86374100D02*
X137073244Y-86174100D01*
X137073244Y-88174100D02*
X137573244Y-88174100D01*
X137073244Y-88274100D02*
X137573244Y-88274100D01*
X137073244Y-88374100D02*
X137073244Y-88174100D01*
X137073244Y-90174100D02*
X137573244Y-90174100D01*
X137073244Y-90274100D02*
X137573244Y-90274100D01*
X137073244Y-90374100D02*
X137073244Y-90174100D01*
X137073244Y-92174100D02*
X137573244Y-92174100D01*
X137073244Y-92274100D02*
X137573244Y-92274100D01*
X137073244Y-92374100D02*
X137073244Y-92174100D01*
X137573244Y-79824100D02*
X134073244Y-79824100D01*
X137573244Y-82374100D02*
X137073244Y-82374100D01*
X137573244Y-84374100D02*
X137073244Y-84374100D01*
X137573244Y-86374100D02*
X137073244Y-86374100D01*
X137573244Y-88374100D02*
X137073244Y-88374100D01*
X137573244Y-90374100D02*
X137073244Y-90374100D01*
X137573244Y-92374100D02*
X137073244Y-92374100D01*
X137573244Y-94724100D02*
X137573244Y-79824100D01*
X138183244Y-79214100D02*
X133463244Y-79214100D01*
X138183244Y-95334100D02*
X138183244Y-79214100D01*
%TD*%
M02*
