%TF.GenerationSoftware,KiCad,Pcbnew,8.0.4*%
%TF.CreationDate,2024-07-29T20:22:53+02:00*%
%TF.ProjectId,WH148,57483134-382e-46b6-9963-61645f706362,rev?*%
%TF.SameCoordinates,Original*%
%TF.FileFunction,Copper,L2,Bot*%
%TF.FilePolarity,Positive*%
%FSLAX46Y46*%
G04 Gerber Fmt 4.6, Leading zero omitted, Abs format (unit mm)*
G04 Created by KiCad (PCBNEW 8.0.4) date 2024-07-29 20:22:53*
%MOMM*%
%LPD*%
G01*
G04 APERTURE LIST*
G04 Aperture macros list*
%AMRoundRect*
0 Rectangle with rounded corners*
0 $1 Rounding radius*
0 $2 $3 $4 $5 $6 $7 $8 $9 X,Y pos of 4 corners*
0 Add a 4 corners polygon primitive as box body*
4,1,4,$2,$3,$4,$5,$6,$7,$8,$9,$2,$3,0*
0 Add four circle primitives for the rounded corners*
1,1,$1+$1,$2,$3*
1,1,$1+$1,$4,$5*
1,1,$1+$1,$6,$7*
1,1,$1+$1,$8,$9*
0 Add four rect primitives between the rounded corners*
20,1,$1+$1,$2,$3,$4,$5,0*
20,1,$1+$1,$4,$5,$6,$7,0*
20,1,$1+$1,$6,$7,$8,$9,0*
20,1,$1+$1,$8,$9,$2,$3,0*%
G04 Aperture macros list end*
%TA.AperFunction,SMDPad,CuDef*%
%ADD10RoundRect,0.750000X0.750000X1.750000X-0.750000X1.750000X-0.750000X-1.750000X0.750000X-1.750000X0*%
%TD*%
%TA.AperFunction,SMDPad,CuDef*%
%ADD11RoundRect,0.750000X-0.750000X-1.750000X0.750000X-1.750000X0.750000X1.750000X-0.750000X1.750000X0*%
%TD*%
%TA.AperFunction,ComponentPad*%
%ADD12RoundRect,0.250000X-0.625000X0.350000X-0.625000X-0.350000X0.625000X-0.350000X0.625000X0.350000X0*%
%TD*%
%TA.AperFunction,ComponentPad*%
%ADD13O,1.750000X1.200000*%
%TD*%
%TA.AperFunction,ViaPad*%
%ADD14C,0.600000*%
%TD*%
%TA.AperFunction,ViaPad*%
%ADD15C,1.000000*%
%TD*%
%TA.AperFunction,Conductor*%
%ADD16C,0.500000*%
%TD*%
%TA.AperFunction,Conductor*%
%ADD17C,1.000000*%
%TD*%
%TA.AperFunction,Conductor*%
%ADD18C,0.100000*%
%TD*%
%TA.AperFunction,Conductor*%
%ADD19C,0.200000*%
%TD*%
G04 APERTURE END LIST*
D10*
%TO.P,RV3,1,1*%
%TO.N,GND*%
X145297170Y-92321600D03*
%TO.P,RV3,2,2*%
%TO.N,Net-(J1-Pin_5)*%
X150297170Y-92321600D03*
%TO.P,RV3,3,3*%
%TO.N,+3.3V*%
X155297170Y-92321600D03*
%TD*%
D11*
%TO.P,RV8,1,1*%
%TO.N,GND*%
X155297170Y-100965000D03*
%TO.P,RV8,2,2*%
%TO.N,Net-(J2-Pin_5)*%
X150297170Y-100965000D03*
%TO.P,RV8,3,3*%
%TO.N,+3.3V*%
X145297170Y-100965000D03*
%TD*%
D12*
%TO.P,J2,1,Pin_1*%
%TO.N,GND*%
X135273244Y-100012500D03*
D13*
%TO.P,J2,2,Pin_2*%
%TO.N,+3.3V*%
X135273244Y-102012500D03*
%TO.P,J2,3,Pin_3*%
%TO.N,Net-(J2-Pin_3)*%
X135273244Y-104012500D03*
%TO.P,J2,4,Pin_4*%
%TO.N,Net-(J2-Pin_4)*%
X135273244Y-106012500D03*
%TO.P,J2,5,Pin_5*%
%TO.N,Net-(J2-Pin_5)*%
X135273244Y-108012500D03*
%TO.P,J2,6,Pin_6*%
%TO.N,Net-(J2-Pin_6)*%
X135273244Y-110012500D03*
%TO.P,J2,7,Pin_7*%
%TO.N,Net-(J2-Pin_7)*%
X135273244Y-112012500D03*
%TD*%
D10*
%TO.P,RV5,1,1*%
%TO.N,GND*%
X202842870Y-92321600D03*
%TO.P,RV5,2,2*%
%TO.N,Net-(J1-Pin_7)*%
X207842870Y-92321600D03*
%TO.P,RV5,3,3*%
%TO.N,+3.3V*%
X212842870Y-92321600D03*
%TD*%
D12*
%TO.P,J1,1,Pin_1*%
%TO.N,GND*%
X135273244Y-81274100D03*
D13*
%TO.P,J1,2,Pin_2*%
%TO.N,+3.3V*%
X135273244Y-83274100D03*
%TO.P,J1,3,Pin_3*%
%TO.N,Net-(J1-Pin_3)*%
X135273244Y-85274100D03*
%TO.P,J1,4,Pin_4*%
%TO.N,Net-(J1-Pin_4)*%
X135273244Y-87274100D03*
%TO.P,J1,5,Pin_5*%
%TO.N,Net-(J1-Pin_5)*%
X135273244Y-89274100D03*
%TO.P,J1,6,Pin_6*%
%TO.N,Net-(J1-Pin_6)*%
X135273244Y-91274100D03*
%TO.P,J1,7,Pin_7*%
%TO.N,Net-(J1-Pin_7)*%
X135273244Y-93274100D03*
%TD*%
D11*
%TO.P,RV10,1,1*%
%TO.N,GND*%
X212842870Y-100965000D03*
%TO.P,RV10,2,2*%
%TO.N,Net-(J2-Pin_7)*%
X207842870Y-100965000D03*
%TO.P,RV10,3,3*%
%TO.N,+3.3V*%
X202842870Y-100965000D03*
%TD*%
D10*
%TO.P,RV4,1,1*%
%TO.N,GND*%
X174070000Y-92321600D03*
%TO.P,RV4,2,2*%
%TO.N,Net-(J1-Pin_6)*%
X179070000Y-92321600D03*
%TO.P,RV4,3,3*%
%TO.N,+3.3V*%
X184070000Y-92321600D03*
%TD*%
D11*
%TO.P,RV6,1,1*%
%TO.N,GND*%
X97751470Y-100965000D03*
%TO.P,RV6,2,2*%
%TO.N,Net-(J2-Pin_3)*%
X92751470Y-100965000D03*
%TO.P,RV6,3,3*%
%TO.N,+3.3V*%
X87751470Y-100965000D03*
%TD*%
D10*
%TO.P,RV1,1,1*%
%TO.N,GND*%
X87751470Y-92321600D03*
%TO.P,RV1,2,2*%
%TO.N,Net-(J1-Pin_3)*%
X92751470Y-92321600D03*
%TO.P,RV1,3,3*%
%TO.N,+3.3V*%
X97751470Y-92321600D03*
%TD*%
D11*
%TO.P,RV7,1,1*%
%TO.N,GND*%
X126533570Y-100965000D03*
%TO.P,RV7,2,2*%
%TO.N,Net-(J2-Pin_4)*%
X121533570Y-100965000D03*
%TO.P,RV7,3,3*%
%TO.N,+3.3V*%
X116533570Y-100965000D03*
%TD*%
D10*
%TO.P,RV2,1,1*%
%TO.N,GND*%
X116524270Y-92321600D03*
%TO.P,RV2,2,2*%
%TO.N,Net-(J1-Pin_4)*%
X121524270Y-92321600D03*
%TO.P,RV2,3,3*%
%TO.N,+3.3V*%
X126524270Y-92321600D03*
%TD*%
D11*
%TO.P,RV9,1,1*%
%TO.N,GND*%
X184070000Y-100965000D03*
%TO.P,RV9,2,2*%
%TO.N,Net-(J2-Pin_6)*%
X179070000Y-100965000D03*
%TO.P,RV9,3,3*%
%TO.N,+3.3V*%
X174070000Y-100965000D03*
%TD*%
D14*
%TO.N,Net-(J1-Pin_3)*%
X94656470Y-90734100D03*
%TO.N,Net-(J1-Pin_5)*%
X148392170Y-90734100D03*
%TO.N,Net-(J1-Pin_7)*%
X205937870Y-93274100D03*
%TO.N,Net-(J1-Pin_6)*%
X177165000Y-92004100D03*
D15*
%TO.N,GND*%
X114539270Y-94306600D03*
X200857870Y-94861600D03*
X132732244Y-94544100D03*
X157124420Y-98425000D03*
X214827870Y-98980000D03*
X143470920Y-94861600D03*
X99736470Y-98980000D03*
X186055000Y-98980000D03*
X85766470Y-94306600D03*
X128518570Y-98980000D03*
X172085000Y-94861600D03*
D14*
%TO.N,Net-(J1-Pin_4)*%
X123429270Y-92321600D03*
%TO.N,Net-(J2-Pin_7)*%
X205937870Y-102552500D03*
%TO.N,Net-(J2-Pin_3)*%
X94656470Y-100965000D03*
%TO.N,Net-(J2-Pin_4)*%
X123438570Y-102552500D03*
%TO.N,Net-(J2-Pin_6)*%
X177165000Y-101282500D03*
%TO.N,Net-(J2-Pin_5)*%
X148392170Y-100012500D03*
%TD*%
D16*
%TO.N,Net-(J1-Pin_3)*%
X94656470Y-90734100D02*
X94338970Y-90734100D01*
X94338970Y-90734100D02*
X92751470Y-92321600D01*
%TO.N,Net-(J1-Pin_5)*%
X148392170Y-90734100D02*
X148709670Y-90734100D01*
X148709670Y-90734100D02*
X150297170Y-92321600D01*
%TO.N,Net-(J1-Pin_7)*%
X206890370Y-93274100D02*
X207842870Y-92321600D01*
X205937870Y-93274100D02*
X206890370Y-93274100D01*
%TO.N,Net-(J1-Pin_6)*%
X178752500Y-92004100D02*
X179070000Y-92321600D01*
X177165000Y-92004100D02*
X178752500Y-92004100D01*
D17*
%TO.N,+3.3V*%
X153797170Y-96643300D02*
X146797170Y-96643300D01*
D18*
X185570000Y-96643300D02*
X185570000Y-96643300D01*
D17*
X211342870Y-96643300D02*
X204342870Y-96643300D01*
X145297170Y-100965000D02*
X145297170Y-100251250D01*
X97751470Y-92321600D02*
X97751470Y-95143300D01*
X125024270Y-96643300D02*
X118033570Y-96643300D01*
X96251470Y-96643300D02*
X99251470Y-96643300D01*
X201342870Y-96643300D02*
X204342870Y-96643300D01*
D18*
X156797170Y-96643300D02*
X156797170Y-96643300D01*
X184070000Y-95143300D02*
X184070000Y-95143300D01*
D17*
X137813244Y-84774100D02*
X137813244Y-95143300D01*
X136313244Y-96643300D02*
X139313244Y-96643300D01*
X128033570Y-96643300D02*
X131233244Y-96643300D01*
X174070000Y-98143300D02*
X174070000Y-100965000D01*
X125024270Y-96643300D02*
X128033570Y-96643300D01*
X132733244Y-98143300D02*
X132733244Y-100512500D01*
X116533570Y-98143300D02*
X116533570Y-100965000D01*
X184070000Y-95143300D02*
X184070000Y-92321600D01*
X172570000Y-96643300D02*
X175570000Y-96643300D01*
X87751470Y-100965000D02*
X87751470Y-98143300D01*
X135273244Y-83274100D02*
X136313244Y-83274100D01*
X115033570Y-96643300D02*
X118033570Y-96643300D01*
X131233244Y-96643300D02*
X134233244Y-96643300D01*
X116533570Y-98143300D02*
X116533570Y-98143300D01*
X145297170Y-98143300D02*
X145297170Y-100965000D01*
X126524270Y-95143300D02*
X126524270Y-92321600D01*
X156797170Y-96643300D02*
X172570000Y-96643300D01*
X182570000Y-96643300D02*
X185570000Y-96643300D01*
X132733244Y-98143300D02*
X132733244Y-98143300D01*
X185570000Y-96643300D02*
X201342870Y-96643300D01*
X126524270Y-95143300D02*
X126524270Y-95143300D01*
X115033570Y-96643300D02*
X99251470Y-96643300D01*
X89251470Y-96643300D02*
X96251470Y-96643300D01*
X202842870Y-98143300D02*
X202842870Y-100965000D01*
X143797170Y-96643300D02*
X146797170Y-96643300D01*
X153797170Y-96643300D02*
X156797170Y-96643300D01*
X212842870Y-92321600D02*
X212842870Y-95143300D01*
X182570000Y-96643300D02*
X175570000Y-96643300D01*
X136313244Y-96643300D02*
X134233244Y-96643300D01*
X139313244Y-96643300D02*
X143797170Y-96643300D01*
X128024270Y-96643300D02*
X128033570Y-96643300D01*
X134233244Y-102012500D02*
X135273244Y-102012500D01*
X155297170Y-92321600D02*
X155297170Y-95143300D01*
X97751470Y-95143300D02*
G75*
G03*
X99251470Y-96643330I1500030J0D01*
G01*
X182570000Y-96643300D02*
G75*
G03*
X184070000Y-95143300I0J1500000D01*
G01*
X145297170Y-98143300D02*
G75*
G03*
X143797170Y-96643330I-1499970J0D01*
G01*
X175570000Y-96643300D02*
G75*
G03*
X174070000Y-98143300I0J-1500000D01*
G01*
X132733244Y-98143300D02*
G75*
G02*
X134233244Y-96643344I1499956J0D01*
G01*
X132733244Y-98143300D02*
G75*
G03*
X131233244Y-96643256I-1500044J0D01*
G01*
X145297170Y-98143300D02*
G75*
G02*
X146797170Y-96643270I1500030J0D01*
G01*
X134233244Y-102012500D02*
G75*
G02*
X132733200Y-100512500I-44J1500000D01*
G01*
X201342870Y-96643300D02*
G75*
G02*
X202842900Y-98143300I30J-1500000D01*
G01*
X118033570Y-96643300D02*
G75*
G03*
X116533600Y-98143300I30J-1500000D01*
G01*
X128024270Y-96643300D02*
G75*
G02*
X126524300Y-95143300I30J1500000D01*
G01*
X136313244Y-96643300D02*
G75*
G03*
X137813200Y-95143300I-44J1500000D01*
G01*
X139313244Y-96643300D02*
G75*
G02*
X137813200Y-95143300I-44J1500000D01*
G01*
X155297170Y-95143300D02*
G75*
G02*
X153797170Y-96643270I-1499970J0D01*
G01*
X204342870Y-96643300D02*
G75*
G03*
X202842900Y-98143300I30J-1500000D01*
G01*
X97751470Y-95143300D02*
G75*
G02*
X96251470Y-96643270I-1499970J0D01*
G01*
X137813244Y-84774100D02*
G75*
G03*
X136313244Y-83274056I-1500044J0D01*
G01*
X172570000Y-96643300D02*
G75*
G02*
X174070000Y-98143300I0J-1500000D01*
G01*
X156797170Y-96643300D02*
G75*
G02*
X155297200Y-95143300I30J1500000D01*
G01*
X184070000Y-95143300D02*
G75*
G03*
X185570000Y-96643300I1500000J0D01*
G01*
X212842870Y-95143300D02*
G75*
G02*
X211342870Y-96643270I-1499970J0D01*
G01*
X116533570Y-98143300D02*
G75*
G03*
X115033570Y-96643330I-1499970J0D01*
G01*
X87751470Y-98143300D02*
G75*
G02*
X89251470Y-96643270I1500030J0D01*
G01*
X126524270Y-95143300D02*
G75*
G02*
X125024270Y-96643270I-1499970J0D01*
G01*
%TO.N,GND*%
X174070000Y-92876600D02*
X174070000Y-92321600D01*
X132732244Y-94544100D02*
X132732244Y-82774100D01*
X157124420Y-98425000D02*
X155297170Y-100252250D01*
X200857870Y-94861600D02*
X202842870Y-92876600D01*
X114539270Y-94306600D02*
X116524270Y-92321600D01*
X155297170Y-100252250D02*
X155297170Y-100965000D01*
X172085000Y-94861600D02*
X174070000Y-92876600D01*
X134232244Y-81274100D02*
X135273244Y-81274100D01*
X145297170Y-92321600D02*
X145297170Y-93035350D01*
X145297170Y-93035350D02*
X143470920Y-94861600D01*
X128518570Y-98980000D02*
X126533570Y-100965000D01*
D19*
X126524270Y-100994000D02*
X126533570Y-101003300D01*
D17*
X202842870Y-92876600D02*
X202842870Y-92321600D01*
X186055000Y-98980000D02*
X184070000Y-100965000D01*
X214827870Y-98980000D02*
X212842870Y-100965000D01*
X85766470Y-94306600D02*
X87751470Y-92321600D01*
X99736470Y-98980000D02*
X97751470Y-100965000D01*
X132732244Y-82774100D02*
G75*
G02*
X134232244Y-81274144I1499956J0D01*
G01*
D16*
%TO.N,Net-(J1-Pin_4)*%
X123429270Y-92321600D02*
X121524270Y-92321600D01*
%TO.N,Net-(J2-Pin_7)*%
X205937870Y-102552500D02*
X206255370Y-102552500D01*
X206255370Y-102552500D02*
X207842870Y-100965000D01*
%TO.N,Net-(J2-Pin_3)*%
X94656470Y-100965000D02*
X92751470Y-100965000D01*
%TO.N,Net-(J2-Pin_4)*%
X123438570Y-102552500D02*
X123121070Y-102552500D01*
X123121070Y-102552500D02*
X121533570Y-100965000D01*
%TO.N,Net-(J2-Pin_6)*%
X177165000Y-101282500D02*
X178752500Y-101282500D01*
X178752500Y-101282500D02*
X179070000Y-100965000D01*
%TO.N,Net-(J2-Pin_5)*%
X149344670Y-100012500D02*
X150297170Y-100965000D01*
X148392170Y-100012500D02*
X149344670Y-100012500D01*
%TD*%
%TA.AperFunction,Conductor*%
%TO.N,Net-(J1-Pin_3)*%
G36*
X94546155Y-90467786D02*
G01*
X94546563Y-90468658D01*
X94657177Y-90733393D01*
X94657163Y-90733398D01*
X94657204Y-90733459D01*
X94765977Y-90998362D01*
X94765950Y-91007317D01*
X94759598Y-91013629D01*
X94757649Y-91014237D01*
X94322236Y-91109270D01*
X94313422Y-91107686D01*
X94311468Y-91106112D01*
X93973741Y-90768385D01*
X93970314Y-90760112D01*
X93973741Y-90751839D01*
X93976628Y-90749725D01*
X94530385Y-90462780D01*
X94539306Y-90462017D01*
X94546155Y-90467786D01*
G37*
%TD.AperFunction*%
%TD*%
%TA.AperFunction,Conductor*%
%TO.N,Net-(J1-Pin_3)*%
G36*
X94374562Y-90284255D02*
G01*
X94651536Y-90480602D01*
X94656304Y-90488182D01*
X94656470Y-90490147D01*
X94656470Y-90982428D01*
X94656002Y-90985704D01*
X94254015Y-92364123D01*
X94248409Y-92371106D01*
X94242384Y-92372540D01*
X92769692Y-92322256D01*
X92761540Y-92318549D01*
X92758398Y-92310164D01*
X92759889Y-92304835D01*
X93893122Y-90288068D01*
X93900162Y-90282535D01*
X93903322Y-90282100D01*
X94367796Y-90282100D01*
X94374562Y-90284255D01*
G37*
%TD.AperFunction*%
%TD*%
%TA.AperFunction,Conductor*%
%TO.N,Net-(J1-Pin_5)*%
G36*
X148517383Y-90462373D02*
G01*
X148518255Y-90462781D01*
X149072008Y-90749724D01*
X149077777Y-90756573D01*
X149077013Y-90765495D01*
X149074898Y-90768385D01*
X148737171Y-91106112D01*
X148728898Y-91109539D01*
X148726403Y-91109270D01*
X148290990Y-91014237D01*
X148283638Y-91009125D01*
X148282054Y-91000311D01*
X148282659Y-90998369D01*
X148391436Y-90733457D01*
X148391489Y-90733404D01*
X148391463Y-90733393D01*
X148502078Y-90468655D01*
X148508428Y-90462346D01*
X148517383Y-90462373D01*
G37*
%TD.AperFunction*%
%TD*%
%TA.AperFunction,Conductor*%
%TO.N,Net-(J1-Pin_5)*%
G36*
X149153591Y-90285527D02*
G01*
X149155516Y-90288067D01*
X149547523Y-90985704D01*
X150288748Y-92304832D01*
X150289813Y-92313723D01*
X150284279Y-92320763D01*
X150278947Y-92322256D01*
X148806255Y-92372540D01*
X148797870Y-92369398D01*
X148794625Y-92364125D01*
X148392638Y-90985704D01*
X148392170Y-90982428D01*
X148392170Y-90490147D01*
X148395597Y-90481874D01*
X148397104Y-90480602D01*
X148674078Y-90284255D01*
X148680844Y-90282100D01*
X149145318Y-90282100D01*
X149153591Y-90285527D01*
G37*
%TD.AperFunction*%
%TD*%
%TA.AperFunction,Conductor*%
%TO.N,Net-(J1-Pin_7)*%
G36*
X207826192Y-92317268D02*
G01*
X207833410Y-92322565D01*
X207834770Y-92331416D01*
X207832587Y-92335883D01*
X206394688Y-94156224D01*
X206386871Y-94160592D01*
X206378255Y-94158153D01*
X206375893Y-94155640D01*
X205939956Y-93527107D01*
X205937870Y-93520439D01*
X205937870Y-93026240D01*
X205938627Y-93022099D01*
X206339204Y-91963475D01*
X206345336Y-91956952D01*
X206352929Y-91956254D01*
X207826192Y-92317268D01*
G37*
%TD.AperFunction*%
%TD*%
%TA.AperFunction,Conductor*%
%TO.N,Net-(J1-Pin_7)*%
G36*
X205950488Y-92975151D02*
G01*
X206527142Y-93023206D01*
X206535102Y-93027308D01*
X206537870Y-93034866D01*
X206537870Y-93513334D01*
X206534443Y-93521607D01*
X206527142Y-93524994D01*
X205950499Y-93573047D01*
X205941969Y-93570319D01*
X205937867Y-93562359D01*
X205937827Y-93561445D01*
X205936870Y-93274100D01*
X205937827Y-92986771D01*
X205941281Y-92978511D01*
X205949566Y-92975112D01*
X205950488Y-92975151D01*
G37*
%TD.AperFunction*%
%TD*%
%TA.AperFunction,Conductor*%
%TO.N,Net-(J1-Pin_6)*%
G36*
X177578995Y-91065588D02*
G01*
X177580649Y-91066752D01*
X178393756Y-91751373D01*
X178987626Y-92251401D01*
X179057494Y-92310228D01*
X179061615Y-92318178D01*
X179058908Y-92326714D01*
X179055264Y-92329606D01*
X177580609Y-93079945D01*
X177571681Y-93080642D01*
X177564875Y-93074823D01*
X177564822Y-93074717D01*
X177166182Y-92256526D01*
X177165000Y-92251401D01*
X177165000Y-91757255D01*
X177166586Y-91751373D01*
X177563000Y-91069818D01*
X177570121Y-91064391D01*
X177578995Y-91065588D01*
G37*
%TD.AperFunction*%
%TD*%
%TA.AperFunction,Conductor*%
%TO.N,Net-(J1-Pin_6)*%
G36*
X177177618Y-91705151D02*
G01*
X177754272Y-91753206D01*
X177762232Y-91757308D01*
X177765000Y-91764866D01*
X177765000Y-92243334D01*
X177761573Y-92251607D01*
X177754272Y-92254994D01*
X177177629Y-92303047D01*
X177169099Y-92300319D01*
X177164997Y-92292359D01*
X177164957Y-92291445D01*
X177164000Y-92004100D01*
X177164957Y-91716771D01*
X177168411Y-91708511D01*
X177176696Y-91705112D01*
X177177618Y-91705151D01*
G37*
%TD.AperFunction*%
%TD*%
%TA.AperFunction,Conductor*%
%TO.N,+3.3V*%
G36*
X97762541Y-92346776D02*
G01*
X97762584Y-92346871D01*
X98815769Y-94738315D01*
X98815967Y-94747268D01*
X98814529Y-94749905D01*
X98300275Y-95458196D01*
X98295667Y-95461965D01*
X97398927Y-95871490D01*
X97389978Y-95871809D01*
X97383697Y-95866266D01*
X96821270Y-94789922D01*
X96820476Y-94781002D01*
X96820688Y-94780389D01*
X97740935Y-92347445D01*
X97747065Y-92340922D01*
X97756015Y-92340644D01*
X97762541Y-92346776D01*
G37*
%TD.AperFunction*%
%TD*%
%TA.AperFunction,Conductor*%
%TO.N,+3.3V*%
G36*
X173717456Y-97415112D02*
G01*
X174614198Y-97824638D01*
X174618806Y-97828407D01*
X175133060Y-98536693D01*
X175135147Y-98545401D01*
X175134300Y-98548283D01*
X174081114Y-100939728D01*
X174074643Y-100945918D01*
X174065690Y-100945720D01*
X174059501Y-100939250D01*
X173139228Y-98506232D01*
X173139506Y-98497284D01*
X173139790Y-98496697D01*
X173702229Y-97420334D01*
X173709096Y-97414592D01*
X173717456Y-97415112D01*
G37*
%TD.AperFunction*%
%TD*%
%TA.AperFunction,Conductor*%
%TO.N,+3.3V*%
G36*
X116901451Y-97420295D02*
G01*
X117463850Y-98496692D01*
X117464644Y-98505611D01*
X117464423Y-98506250D01*
X116544106Y-100939151D01*
X116537974Y-100945676D01*
X116529023Y-100945954D01*
X116522498Y-100939822D01*
X116522455Y-100939726D01*
X115469350Y-98548228D01*
X115469152Y-98539276D01*
X115470591Y-98536639D01*
X115496221Y-98501343D01*
X115984877Y-97828373D01*
X115989484Y-97824605D01*
X116886224Y-97415070D01*
X116895171Y-97414752D01*
X116901451Y-97420295D01*
G37*
%TD.AperFunction*%
%TD*%
%TA.AperFunction,Conductor*%
%TO.N,+3.3V*%
G36*
X184074308Y-92340879D02*
G01*
X184080498Y-92347350D01*
X184080535Y-92347448D01*
X185000770Y-94780364D01*
X185000492Y-94789314D01*
X185000197Y-94789922D01*
X184437771Y-95866262D01*
X184430902Y-95872007D01*
X184422541Y-95871486D01*
X183945742Y-95653740D01*
X183525801Y-95461961D01*
X183521193Y-95458192D01*
X183006938Y-94749905D01*
X183004851Y-94741197D01*
X183005695Y-94738324D01*
X184058886Y-92346868D01*
X184065355Y-92340681D01*
X184074308Y-92340879D01*
G37*
%TD.AperFunction*%
%TD*%
%TA.AperFunction,Conductor*%
%TO.N,+3.3V*%
G36*
X87398924Y-97415108D02*
G01*
X88295667Y-97824634D01*
X88300275Y-97828403D01*
X88814529Y-98536693D01*
X88816616Y-98545401D01*
X88815769Y-98548283D01*
X87762584Y-100939728D01*
X87756113Y-100945918D01*
X87747160Y-100945720D01*
X87740971Y-100939250D01*
X86820697Y-98506232D01*
X86820975Y-98497284D01*
X86821259Y-98496697D01*
X87383697Y-97420332D01*
X87390566Y-97414588D01*
X87398924Y-97415108D01*
G37*
%TD.AperFunction*%
%TD*%
%TA.AperFunction,Conductor*%
%TO.N,+3.3V*%
G36*
X136759882Y-82824421D02*
G01*
X136767657Y-82828861D01*
X136770016Y-82837500D01*
X136769635Y-82839325D01*
X136493986Y-83778023D01*
X136488367Y-83784995D01*
X136483852Y-83786375D01*
X135556501Y-83873325D01*
X135547944Y-83870685D01*
X135544779Y-83866563D01*
X135275018Y-83279765D01*
X135274675Y-83270817D01*
X135275918Y-83268381D01*
X135661278Y-82691645D01*
X135668722Y-82686671D01*
X135672475Y-82686539D01*
X136759882Y-82824421D01*
G37*
%TD.AperFunction*%
%TD*%
%TA.AperFunction,Conductor*%
%TO.N,+3.3V*%
G36*
X144944624Y-97415108D02*
G01*
X145841367Y-97824634D01*
X145845975Y-97828403D01*
X146360229Y-98536693D01*
X146362316Y-98545401D01*
X146361469Y-98548283D01*
X145308284Y-100939728D01*
X145301813Y-100945918D01*
X145292860Y-100945720D01*
X145286671Y-100939250D01*
X144366397Y-98506232D01*
X144366675Y-98497284D01*
X144366959Y-98496697D01*
X144929397Y-97420332D01*
X144936266Y-97414588D01*
X144944624Y-97415108D01*
G37*
%TD.AperFunction*%
%TD*%
%TA.AperFunction,Conductor*%
%TO.N,+3.3V*%
G36*
X126528578Y-92340880D02*
G01*
X126534769Y-92347351D01*
X126534806Y-92347448D01*
X127455123Y-94780348D01*
X127454845Y-94789299D01*
X127454550Y-94789906D01*
X126892152Y-95866303D01*
X126885283Y-95872049D01*
X126876922Y-95871528D01*
X125980184Y-95461994D01*
X125975577Y-95458225D01*
X125461291Y-94749959D01*
X125459203Y-94741252D01*
X125460048Y-94738374D01*
X126513156Y-92346871D01*
X126519626Y-92340682D01*
X126528578Y-92340880D01*
G37*
%TD.AperFunction*%
%TD*%
%TA.AperFunction,Conductor*%
%TO.N,+3.3V*%
G36*
X203210751Y-97420295D02*
G01*
X203773150Y-98496692D01*
X203773944Y-98505611D01*
X203773723Y-98506250D01*
X202853406Y-100939151D01*
X202847274Y-100945676D01*
X202838323Y-100945954D01*
X202831798Y-100939822D01*
X202831755Y-100939726D01*
X201778650Y-98548228D01*
X201778452Y-98539276D01*
X201779891Y-98536639D01*
X201805521Y-98501343D01*
X202294177Y-97828373D01*
X202298784Y-97824605D01*
X203195524Y-97415070D01*
X203204471Y-97414752D01*
X203210751Y-97420295D01*
G37*
%TD.AperFunction*%
%TD*%
%TA.AperFunction,Conductor*%
%TO.N,+3.3V*%
G36*
X212847178Y-92340880D02*
G01*
X212853369Y-92347351D01*
X212853406Y-92347448D01*
X213773723Y-94780348D01*
X213773445Y-94789299D01*
X213773150Y-94789906D01*
X213210752Y-95866303D01*
X213203883Y-95872049D01*
X213195522Y-95871528D01*
X212298784Y-95461994D01*
X212294177Y-95458225D01*
X211779891Y-94749959D01*
X211777803Y-94741252D01*
X211778648Y-94738374D01*
X212831756Y-92346871D01*
X212838226Y-92340682D01*
X212847178Y-92340880D01*
G37*
%TD.AperFunction*%
%TD*%
%TA.AperFunction,Conductor*%
%TO.N,+3.3V*%
G36*
X134998543Y-101415914D02*
G01*
X135001708Y-101420036D01*
X135042470Y-101508703D01*
X135271469Y-102006834D01*
X135271812Y-102015782D01*
X135270567Y-102018221D01*
X134885209Y-102594954D01*
X134877764Y-102599929D01*
X134874011Y-102600061D01*
X133786592Y-102462317D01*
X133778815Y-102457878D01*
X133776455Y-102449240D01*
X133776833Y-102447425D01*
X134052439Y-101508702D01*
X134058058Y-101501730D01*
X134062568Y-101500350D01*
X134989986Y-101413275D01*
X134998543Y-101415914D01*
G37*
%TD.AperFunction*%
%TD*%
%TA.AperFunction,Conductor*%
%TO.N,+3.3V*%
G36*
X155301478Y-92340880D02*
G01*
X155307669Y-92347351D01*
X155307706Y-92347448D01*
X156228023Y-94780348D01*
X156227745Y-94789299D01*
X156227450Y-94789906D01*
X155665052Y-95866303D01*
X155658183Y-95872049D01*
X155649822Y-95871528D01*
X154753084Y-95461994D01*
X154748477Y-95458225D01*
X154234191Y-94749959D01*
X154232103Y-94741252D01*
X154232948Y-94738374D01*
X155286056Y-92346871D01*
X155292526Y-92340682D01*
X155301478Y-92340880D01*
G37*
%TD.AperFunction*%
%TD*%
%TA.AperFunction,Conductor*%
%TO.N,GND*%
G36*
X156776493Y-98077074D02*
G01*
X157472643Y-98773224D01*
X157476070Y-98781497D01*
X157475324Y-98785609D01*
X156799330Y-100586363D01*
X156793214Y-100592904D01*
X156791202Y-100593604D01*
X155314902Y-100961116D01*
X155306046Y-100959790D01*
X155300723Y-100952589D01*
X155300666Y-100947178D01*
X155862407Y-98470781D01*
X155867578Y-98463474D01*
X155869149Y-98462644D01*
X156763566Y-98074613D01*
X156772517Y-98074465D01*
X156776493Y-98077074D01*
G37*
%TD.AperFunction*%
%TD*%
%TA.AperFunction,Conductor*%
%TO.N,GND*%
G36*
X202833810Y-92326313D02*
G01*
X202838775Y-92333766D01*
X202838580Y-92339124D01*
X202159828Y-94816083D01*
X202154337Y-94823156D01*
X202153034Y-94823795D01*
X201218651Y-95212147D01*
X201209697Y-95212158D01*
X201205888Y-95209616D01*
X200509994Y-94513722D01*
X200506567Y-94505449D01*
X200507571Y-94500710D01*
X201340406Y-92622679D01*
X201346890Y-92616508D01*
X201348822Y-92615948D01*
X202825032Y-92324553D01*
X202833810Y-92326313D01*
G37*
%TD.AperFunction*%
%TD*%
%TA.AperFunction,Conductor*%
%TO.N,GND*%
G36*
X116514682Y-92324919D02*
G01*
X116518580Y-92332981D01*
X116517680Y-92338199D01*
X115497816Y-94757296D01*
X115491444Y-94763588D01*
X115485009Y-94764274D01*
X114896460Y-94660791D01*
X114890213Y-94657541D01*
X114191893Y-93959221D01*
X114188466Y-93950948D01*
X114189881Y-93945372D01*
X115021163Y-92413111D01*
X115028119Y-92407475D01*
X115030771Y-92407011D01*
X116506227Y-92321973D01*
X116514682Y-92324919D01*
G37*
%TD.AperFunction*%
%TD*%
%TA.AperFunction,Conductor*%
%TO.N,GND*%
G36*
X174060940Y-92326313D02*
G01*
X174065905Y-92333766D01*
X174065710Y-92339124D01*
X173386958Y-94816083D01*
X173381467Y-94823156D01*
X173380164Y-94823795D01*
X172445781Y-95212147D01*
X172436827Y-95212158D01*
X172433018Y-95209616D01*
X171737124Y-94513722D01*
X171733697Y-94505449D01*
X171734701Y-94500710D01*
X172567536Y-92622679D01*
X172574020Y-92616508D01*
X172575952Y-92615948D01*
X174052162Y-92324553D01*
X174060940Y-92326313D01*
G37*
%TD.AperFunction*%
%TD*%
%TA.AperFunction,Conductor*%
%TO.N,GND*%
G36*
X134570534Y-80693130D02*
G01*
X134571218Y-80693654D01*
X135264062Y-81265450D01*
X135268262Y-81273359D01*
X135265639Y-81281921D01*
X135264713Y-81282919D01*
X134652387Y-81870126D01*
X134644044Y-81873378D01*
X134642565Y-81873253D01*
X134061069Y-81786609D01*
X134053391Y-81782001D01*
X134051567Y-81778333D01*
X133775671Y-80838621D01*
X133776628Y-80829720D01*
X133783601Y-80824101D01*
X133784909Y-80823798D01*
X134561802Y-80691145D01*
X134570534Y-80693130D01*
G37*
%TD.AperFunction*%
%TD*%
%TA.AperFunction,Conductor*%
%TO.N,GND*%
G36*
X145288293Y-92326813D02*
G01*
X145293620Y-92334012D01*
X145293678Y-92339427D01*
X144732687Y-94815813D01*
X144727517Y-94823125D01*
X144725934Y-94823961D01*
X143831776Y-95211984D01*
X143822822Y-95212134D01*
X143818845Y-95209524D01*
X143122693Y-94513372D01*
X143119266Y-94505099D01*
X143120009Y-94500997D01*
X143795011Y-92700761D01*
X143801124Y-92694219D01*
X143803128Y-92693519D01*
X145279439Y-92325489D01*
X145288293Y-92326813D01*
G37*
%TD.AperFunction*%
%TD*%
%TA.AperFunction,Conductor*%
%TO.N,GND*%
G36*
X128161380Y-98625808D02*
G01*
X128167626Y-98629058D01*
X128865946Y-99327378D01*
X128869373Y-99335651D01*
X128867957Y-99341230D01*
X128036677Y-100873486D01*
X128029720Y-100879124D01*
X128027066Y-100879588D01*
X126551613Y-100964626D01*
X126543157Y-100961680D01*
X126539259Y-100953618D01*
X126540159Y-100948400D01*
X127560023Y-98529300D01*
X127566394Y-98523010D01*
X127572826Y-98522324D01*
X128161380Y-98625808D01*
G37*
%TD.AperFunction*%
%TD*%
%TA.AperFunction,Conductor*%
%TO.N,GND*%
G36*
X185697810Y-98625808D02*
G01*
X185704056Y-98629058D01*
X186402376Y-99327378D01*
X186405803Y-99335651D01*
X186404387Y-99341230D01*
X185573107Y-100873486D01*
X185566150Y-100879124D01*
X185563496Y-100879588D01*
X184088043Y-100964626D01*
X184079587Y-100961680D01*
X184075689Y-100953618D01*
X184076589Y-100948400D01*
X185096453Y-98529300D01*
X185102824Y-98523010D01*
X185109256Y-98522324D01*
X185697810Y-98625808D01*
G37*
%TD.AperFunction*%
%TD*%
%TA.AperFunction,Conductor*%
%TO.N,GND*%
G36*
X214470680Y-98625808D02*
G01*
X214476926Y-98629058D01*
X215175246Y-99327378D01*
X215178673Y-99335651D01*
X215177257Y-99341230D01*
X214345977Y-100873486D01*
X214339020Y-100879124D01*
X214336366Y-100879588D01*
X212860913Y-100964626D01*
X212852457Y-100961680D01*
X212848559Y-100953618D01*
X212849459Y-100948400D01*
X213869323Y-98529300D01*
X213875694Y-98523010D01*
X213882126Y-98522324D01*
X214470680Y-98625808D01*
G37*
%TD.AperFunction*%
%TD*%
%TA.AperFunction,Conductor*%
%TO.N,GND*%
G36*
X87741882Y-92324919D02*
G01*
X87745780Y-92332981D01*
X87744880Y-92338199D01*
X86725016Y-94757296D01*
X86718644Y-94763588D01*
X86712209Y-94764274D01*
X86123660Y-94660791D01*
X86117413Y-94657541D01*
X85419093Y-93959221D01*
X85415666Y-93950948D01*
X85417081Y-93945372D01*
X86248363Y-92413111D01*
X86255319Y-92407475D01*
X86257971Y-92407011D01*
X87733427Y-92321973D01*
X87741882Y-92324919D01*
G37*
%TD.AperFunction*%
%TD*%
%TA.AperFunction,Conductor*%
%TO.N,GND*%
G36*
X99379280Y-98625808D02*
G01*
X99385526Y-98629058D01*
X100083846Y-99327378D01*
X100087273Y-99335651D01*
X100085857Y-99341230D01*
X99254577Y-100873486D01*
X99247620Y-100879124D01*
X99244966Y-100879588D01*
X97769513Y-100964626D01*
X97761057Y-100961680D01*
X97757159Y-100953618D01*
X97758059Y-100948400D01*
X98777923Y-98529300D01*
X98784294Y-98523010D01*
X98790726Y-98522324D01*
X99379280Y-98625808D01*
G37*
%TD.AperFunction*%
%TD*%
%TA.AperFunction,Conductor*%
%TO.N,Net-(J1-Pin_4)*%
G36*
X123029811Y-91331967D02*
G01*
X123030369Y-91332895D01*
X123427865Y-92068998D01*
X123429270Y-92074557D01*
X123429270Y-92568642D01*
X123427865Y-92574201D01*
X123030369Y-93310304D01*
X123023423Y-93315956D01*
X123014515Y-93315040D01*
X123013587Y-93314482D01*
X121537885Y-92331337D01*
X121532900Y-92323898D01*
X121534635Y-92315113D01*
X121537885Y-92311863D01*
X123013587Y-91328716D01*
X123022372Y-91326982D01*
X123029811Y-91331967D01*
G37*
%TD.AperFunction*%
%TD*%
%TA.AperFunction,Conductor*%
%TO.N,Net-(J1-Pin_4)*%
G36*
X123425170Y-92025380D02*
G01*
X123429272Y-92033340D01*
X123429312Y-92034273D01*
X123430270Y-92321600D01*
X123430270Y-92321678D01*
X123429312Y-92608926D01*
X123425858Y-92617188D01*
X123417573Y-92620587D01*
X123416640Y-92620547D01*
X122839998Y-92572494D01*
X122832038Y-92568392D01*
X122829270Y-92560834D01*
X122829270Y-92082366D01*
X122832697Y-92074093D01*
X122839998Y-92070706D01*
X123416641Y-92022652D01*
X123425170Y-92025380D01*
G37*
%TD.AperFunction*%
%TD*%
%TA.AperFunction,Conductor*%
%TO.N,Net-(J2-Pin_7)*%
G36*
X206280917Y-102178913D02*
G01*
X206282871Y-102180487D01*
X206620598Y-102518214D01*
X206624025Y-102526487D01*
X206620598Y-102534760D01*
X206617708Y-102536875D01*
X206063955Y-102823818D01*
X206055033Y-102824582D01*
X206048184Y-102818813D01*
X206047783Y-102817956D01*
X205937163Y-102553207D01*
X205937176Y-102553201D01*
X205937135Y-102553140D01*
X205930456Y-102536875D01*
X205828362Y-102288236D01*
X205828389Y-102279282D01*
X205834741Y-102272970D01*
X205836687Y-102272362D01*
X206272104Y-102177329D01*
X206280917Y-102178913D01*
G37*
%TD.AperFunction*%
%TD*%
%TA.AperFunction,Conductor*%
%TO.N,Net-(J2-Pin_7)*%
G36*
X207824648Y-100964343D02*
G01*
X207832799Y-100968050D01*
X207835941Y-100976435D01*
X207834448Y-100981767D01*
X206701218Y-102998531D01*
X206694178Y-103004065D01*
X206691018Y-103004500D01*
X206226544Y-103004500D01*
X206219778Y-103002345D01*
X205942804Y-102805997D01*
X205938036Y-102798417D01*
X205937870Y-102796452D01*
X205937870Y-102304171D01*
X205938338Y-102300895D01*
X206340325Y-100922473D01*
X206345930Y-100915492D01*
X206351954Y-100914058D01*
X207824648Y-100964343D01*
G37*
%TD.AperFunction*%
%TD*%
%TA.AperFunction,Conductor*%
%TO.N,Net-(J2-Pin_3)*%
G36*
X94257011Y-99975367D02*
G01*
X94257569Y-99976295D01*
X94655065Y-100712398D01*
X94656470Y-100717957D01*
X94656470Y-101212042D01*
X94655065Y-101217601D01*
X94257569Y-101953704D01*
X94250623Y-101959356D01*
X94241715Y-101958440D01*
X94240787Y-101957882D01*
X92765085Y-100974737D01*
X92760100Y-100967298D01*
X92761835Y-100958513D01*
X92765085Y-100955263D01*
X94240787Y-99972116D01*
X94249572Y-99970382D01*
X94257011Y-99975367D01*
G37*
%TD.AperFunction*%
%TD*%
%TA.AperFunction,Conductor*%
%TO.N,Net-(J2-Pin_3)*%
G36*
X94652370Y-100668780D02*
G01*
X94656472Y-100676740D01*
X94656512Y-100677673D01*
X94657470Y-100965000D01*
X94657470Y-100965078D01*
X94656512Y-101252326D01*
X94653058Y-101260588D01*
X94644773Y-101263987D01*
X94643840Y-101263947D01*
X94067198Y-101215894D01*
X94059238Y-101211792D01*
X94056470Y-101204234D01*
X94056470Y-100725766D01*
X94059897Y-100717493D01*
X94067198Y-100714106D01*
X94643841Y-100666052D01*
X94652370Y-100668780D01*
G37*
%TD.AperFunction*%
%TD*%
%TA.AperFunction,Conductor*%
%TO.N,Net-(J2-Pin_4)*%
G36*
X123104333Y-102177328D02*
G01*
X123539749Y-102272362D01*
X123547101Y-102277474D01*
X123548685Y-102286288D01*
X123548077Y-102288237D01*
X123439304Y-102553140D01*
X123439277Y-102553207D01*
X123328663Y-102817941D01*
X123322311Y-102824253D01*
X123313356Y-102824226D01*
X123312484Y-102823818D01*
X122758731Y-102536875D01*
X122752962Y-102530026D01*
X122753726Y-102521104D01*
X122755838Y-102518217D01*
X123093569Y-102180486D01*
X123101841Y-102177060D01*
X123104333Y-102177328D01*
G37*
%TD.AperFunction*%
%TD*%
%TA.AperFunction,Conductor*%
%TO.N,Net-(J2-Pin_4)*%
G36*
X123032869Y-100917200D02*
G01*
X123036115Y-100922475D01*
X123438102Y-102300895D01*
X123438570Y-102304171D01*
X123438570Y-102796452D01*
X123435143Y-102804725D01*
X123433636Y-102805997D01*
X123156662Y-103002345D01*
X123149896Y-103004500D01*
X122685422Y-103004500D01*
X122677149Y-103001073D01*
X122675222Y-102998531D01*
X122567036Y-102805997D01*
X121541990Y-100981765D01*
X121540926Y-100972876D01*
X121546460Y-100965836D01*
X121551789Y-100964343D01*
X123024484Y-100914058D01*
X123032869Y-100917200D01*
G37*
%TD.AperFunction*%
%TD*%
%TA.AperFunction,Conductor*%
%TO.N,Net-(J2-Pin_6)*%
G36*
X177580428Y-100206563D02*
G01*
X177580609Y-100206653D01*
X179055264Y-100956993D01*
X179061083Y-100963799D01*
X179060386Y-100972727D01*
X179057494Y-100976371D01*
X177580649Y-102219846D01*
X177572113Y-102222553D01*
X177564163Y-102218432D01*
X177562999Y-102216778D01*
X177166586Y-101535226D01*
X177165000Y-101529344D01*
X177165000Y-101035198D01*
X177166182Y-101030073D01*
X177192347Y-100976371D01*
X177564787Y-100211954D01*
X177571489Y-100206020D01*
X177580428Y-100206563D01*
G37*
%TD.AperFunction*%
%TD*%
%TA.AperFunction,Conductor*%
%TO.N,Net-(J2-Pin_6)*%
G36*
X177177618Y-100983551D02*
G01*
X177754272Y-101031606D01*
X177762232Y-101035708D01*
X177765000Y-101043266D01*
X177765000Y-101521734D01*
X177761573Y-101530007D01*
X177754272Y-101533394D01*
X177177629Y-101581447D01*
X177169099Y-101578719D01*
X177164997Y-101570759D01*
X177164957Y-101569845D01*
X177164000Y-101282500D01*
X177164957Y-100995171D01*
X177168411Y-100986911D01*
X177176696Y-100983512D01*
X177177618Y-100983551D01*
G37*
%TD.AperFunction*%
%TD*%
%TA.AperFunction,Conductor*%
%TO.N,Net-(J2-Pin_5)*%
G36*
X148846475Y-99128013D02*
G01*
X148848986Y-99130373D01*
X150286887Y-100950716D01*
X150289326Y-100959332D01*
X150284958Y-100967149D01*
X150280491Y-100969332D01*
X148807231Y-101330344D01*
X148798380Y-101328984D01*
X148793504Y-101323122D01*
X148392927Y-100264500D01*
X148392170Y-100260359D01*
X148392170Y-99766160D01*
X148394256Y-99759492D01*
X148830193Y-99130959D01*
X148837724Y-99126114D01*
X148846475Y-99128013D01*
G37*
%TD.AperFunction*%
%TD*%
%TA.AperFunction,Conductor*%
%TO.N,Net-(J2-Pin_5)*%
G36*
X148404788Y-99713551D02*
G01*
X148981442Y-99761606D01*
X148989402Y-99765708D01*
X148992170Y-99773266D01*
X148992170Y-100251734D01*
X148988743Y-100260007D01*
X148981442Y-100263394D01*
X148404799Y-100311447D01*
X148396269Y-100308719D01*
X148392167Y-100300759D01*
X148392127Y-100299845D01*
X148391170Y-100012500D01*
X148392127Y-99725171D01*
X148395581Y-99716911D01*
X148403866Y-99713512D01*
X148404788Y-99713551D01*
G37*
%TD.AperFunction*%
%TD*%
M02*
