%TF.GenerationSoftware,KiCad,Pcbnew,8.0.4*%
%TF.CreationDate,2024-07-29T20:22:53+02:00*%
%TF.ProjectId,WH148,57483134-382e-46b6-9963-61645f706362,rev?*%
%TF.SameCoordinates,Original*%
%TF.FileFunction,Copper,L1,Top*%
%TF.FilePolarity,Positive*%
%FSLAX46Y46*%
G04 Gerber Fmt 4.6, Leading zero omitted, Abs format (unit mm)*
G04 Created by KiCad (PCBNEW 8.0.4) date 2024-07-29 20:22:53*
%MOMM*%
%LPD*%
G01*
G04 APERTURE LIST*
G04 Aperture macros list*
%AMRoundRect*
0 Rectangle with rounded corners*
0 $1 Rounding radius*
0 $2 $3 $4 $5 $6 $7 $8 $9 X,Y pos of 4 corners*
0 Add a 4 corners polygon primitive as box body*
4,1,4,$2,$3,$4,$5,$6,$7,$8,$9,$2,$3,0*
0 Add four circle primitives for the rounded corners*
1,1,$1+$1,$2,$3*
1,1,$1+$1,$4,$5*
1,1,$1+$1,$6,$7*
1,1,$1+$1,$8,$9*
0 Add four rect primitives between the rounded corners*
20,1,$1+$1,$2,$3,$4,$5,0*
20,1,$1+$1,$4,$5,$6,$7,0*
20,1,$1+$1,$6,$7,$8,$9,0*
20,1,$1+$1,$8,$9,$2,$3,0*%
G04 Aperture macros list end*
%TA.AperFunction,ComponentPad*%
%ADD10RoundRect,0.250000X-0.625000X0.350000X-0.625000X-0.350000X0.625000X-0.350000X0.625000X0.350000X0*%
%TD*%
%TA.AperFunction,ComponentPad*%
%ADD11O,1.750000X1.200000*%
%TD*%
%TA.AperFunction,ViaPad*%
%ADD12C,0.600000*%
%TD*%
%TA.AperFunction,ViaPad*%
%ADD13C,1.000000*%
%TD*%
%TA.AperFunction,Conductor*%
%ADD14C,0.500000*%
%TD*%
%TA.AperFunction,Conductor*%
%ADD15C,1.000000*%
%TD*%
G04 APERTURE END LIST*
D10*
%TO.P,J2,1,Pin_1*%
%TO.N,GND*%
X135273244Y-100012500D03*
D11*
%TO.P,J2,2,Pin_2*%
%TO.N,+3.3V*%
X135273244Y-102012500D03*
%TO.P,J2,3,Pin_3*%
%TO.N,Net-(J2-Pin_3)*%
X135273244Y-104012500D03*
%TO.P,J2,4,Pin_4*%
%TO.N,Net-(J2-Pin_4)*%
X135273244Y-106012500D03*
%TO.P,J2,5,Pin_5*%
%TO.N,Net-(J2-Pin_5)*%
X135273244Y-108012500D03*
%TO.P,J2,6,Pin_6*%
%TO.N,Net-(J2-Pin_6)*%
X135273244Y-110012500D03*
%TO.P,J2,7,Pin_7*%
%TO.N,Net-(J2-Pin_7)*%
X135273244Y-112012500D03*
%TD*%
D10*
%TO.P,J1,1,Pin_1*%
%TO.N,GND*%
X135273244Y-81274100D03*
D11*
%TO.P,J1,2,Pin_2*%
%TO.N,+3.3V*%
X135273244Y-83274100D03*
%TO.P,J1,3,Pin_3*%
%TO.N,Net-(J1-Pin_3)*%
X135273244Y-85274100D03*
%TO.P,J1,4,Pin_4*%
%TO.N,Net-(J1-Pin_4)*%
X135273244Y-87274100D03*
%TO.P,J1,5,Pin_5*%
%TO.N,Net-(J1-Pin_5)*%
X135273244Y-89274100D03*
%TO.P,J1,6,Pin_6*%
%TO.N,Net-(J1-Pin_6)*%
X135273244Y-91274100D03*
%TO.P,J1,7,Pin_7*%
%TO.N,Net-(J1-Pin_7)*%
X135273244Y-93274100D03*
%TD*%
D12*
%TO.N,Net-(J1-Pin_3)*%
X94656470Y-90734100D03*
%TO.N,Net-(J1-Pin_5)*%
X148392170Y-90734100D03*
%TO.N,Net-(J1-Pin_7)*%
X205937870Y-93274100D03*
%TO.N,Net-(J1-Pin_6)*%
X177165000Y-92004100D03*
D13*
%TO.N,GND*%
X114539270Y-94306600D03*
X200857870Y-94861600D03*
X132732244Y-94544100D03*
X157124420Y-98425000D03*
X214827870Y-98980000D03*
X143470920Y-94861600D03*
X99736470Y-98980000D03*
X186055000Y-98980000D03*
X85766470Y-94306600D03*
X128518570Y-98980000D03*
X172085000Y-94861600D03*
D12*
%TO.N,Net-(J1-Pin_4)*%
X123429270Y-92321600D03*
%TO.N,Net-(J2-Pin_7)*%
X205937870Y-102552500D03*
%TO.N,Net-(J2-Pin_3)*%
X94656470Y-100965000D03*
%TO.N,Net-(J2-Pin_4)*%
X123438570Y-102552500D03*
%TO.N,Net-(J2-Pin_6)*%
X177165000Y-101282500D03*
%TO.N,Net-(J2-Pin_5)*%
X148392170Y-100012500D03*
%TD*%
D14*
%TO.N,Net-(J1-Pin_3)*%
X135273244Y-85274100D02*
X134003244Y-85274100D01*
X131463244Y-90734100D02*
X94656470Y-90734100D01*
X132098244Y-87179100D02*
X132098244Y-90099100D01*
X131463244Y-90734100D02*
G75*
G03*
X132098200Y-90099100I-44J635000D01*
G01*
X134003244Y-85274100D02*
G75*
G03*
X132098200Y-87179100I-44J-1905000D01*
G01*
%TO.N,Net-(J1-Pin_5)*%
X139717244Y-90004100D02*
X139717244Y-90004100D01*
X148392170Y-90734100D02*
X140447244Y-90734100D01*
X138987244Y-89274100D02*
X135273244Y-89274100D01*
X138987244Y-89274100D02*
G75*
G02*
X139717200Y-90004100I-44J-730000D01*
G01*
X140447244Y-90734100D02*
G75*
G02*
X139717200Y-90004100I-44J730000D01*
G01*
%TO.N,Net-(J1-Pin_7)*%
X205937870Y-93274100D02*
X135273244Y-93274100D01*
%TO.N,Net-(J1-Pin_6)*%
X177165000Y-92004100D02*
X138812244Y-92004100D01*
X138082244Y-91274100D02*
X135273244Y-91274100D01*
X138447244Y-91639100D02*
X138447244Y-91639100D01*
X138447244Y-91639100D02*
G75*
G03*
X138082244Y-91274056I-365044J0D01*
G01*
X138812244Y-92004100D02*
G75*
G02*
X138447200Y-91639100I-44J365000D01*
G01*
D15*
%TO.N,GND*%
X170585000Y-96643300D02*
X158624420Y-96643300D01*
X170585000Y-96643300D02*
X170585000Y-96643300D01*
X199357870Y-96643300D02*
X202357870Y-96643300D01*
X136773244Y-96643300D02*
X131232244Y-96643300D01*
X132732244Y-94544100D02*
X132732244Y-95143300D01*
X136773244Y-96643300D02*
X141970920Y-96643300D01*
X131232244Y-96643300D02*
X131244819Y-96655875D01*
X172085000Y-95143300D02*
X172085000Y-94861600D01*
X170585000Y-96643300D02*
X173585000Y-96643300D01*
X173585000Y-96643300D02*
X184555000Y-96643300D01*
X98236470Y-96643300D02*
X101236470Y-96643300D01*
X87266470Y-96643300D02*
X98236470Y-96643300D01*
X213327870Y-96643300D02*
X202357870Y-96643300D01*
X155624420Y-96643300D02*
X158624420Y-96643300D01*
X157124420Y-98143300D02*
X157124420Y-98425000D01*
X131244819Y-96655875D02*
X134005156Y-96655875D01*
X143470920Y-95143300D02*
X143470920Y-94861600D01*
X136773244Y-96643300D02*
X136773244Y-96643300D01*
X184555000Y-96643300D02*
X187555000Y-96643300D01*
X116048570Y-96643300D02*
X113048570Y-96643300D01*
X214827870Y-98980000D02*
X214827870Y-98143300D01*
X144970920Y-96643300D02*
X155624420Y-96643300D01*
X199357870Y-96643300D02*
X199357870Y-96643300D01*
X116039270Y-96643300D02*
X127018570Y-96643300D01*
X128518570Y-98143300D02*
X128518570Y-98980000D01*
X127018570Y-96643300D02*
X130018570Y-96643300D01*
X133773244Y-96643300D02*
X133773244Y-96643300D01*
X114539270Y-95143300D02*
X114539270Y-94306600D01*
X144970920Y-96643300D02*
X141970920Y-96643300D01*
X135273244Y-98143300D02*
X135273244Y-100012500D01*
X99736470Y-98143300D02*
X99736470Y-98980000D01*
X113039270Y-96643300D02*
X101236470Y-96643300D01*
X199357870Y-96643300D02*
X187555000Y-96643300D01*
X186055000Y-98143300D02*
X186055000Y-98980000D01*
X131232244Y-96643300D02*
X130018570Y-96643300D01*
X200857870Y-95143300D02*
X200857870Y-95143300D01*
X85766470Y-94306600D02*
X85766470Y-95143300D01*
X173585000Y-96643300D02*
X173585000Y-96643300D01*
X143470920Y-95143300D02*
G75*
G03*
X144970920Y-96643280I1499980J0D01*
G01*
X131232244Y-96643300D02*
G75*
G03*
X132732200Y-95143300I-44J1500000D01*
G01*
X186055000Y-98143300D02*
G75*
G02*
X187555000Y-96643300I1500000J0D01*
G01*
X128518570Y-98143300D02*
G75*
G02*
X130018570Y-96643270I1500030J0D01*
G01*
X157124420Y-98143300D02*
G75*
G02*
X158624420Y-96643320I1499980J0D01*
G01*
X214827870Y-98143300D02*
G75*
G03*
X213327870Y-96643330I-1499970J0D01*
G01*
X202357870Y-96643300D02*
G75*
G02*
X200857900Y-95143300I30J1500000D01*
G01*
X134005156Y-96655875D02*
G75*
G02*
X135273273Y-98143300I-235456J-1485025D01*
G01*
X136773244Y-96643300D02*
G75*
G03*
X135273200Y-98143300I-44J-1500000D01*
G01*
X170585000Y-96643300D02*
G75*
G03*
X172085000Y-95143300I0J1500000D01*
G01*
X200857870Y-95143300D02*
G75*
G02*
X199357870Y-96643270I-1499970J0D01*
G01*
X155624420Y-96643300D02*
G75*
G02*
X157124400Y-98143300I-20J-1500000D01*
G01*
X184555000Y-96643300D02*
G75*
G02*
X186055000Y-98143300I0J-1500000D01*
G01*
X143470920Y-95143300D02*
G75*
G02*
X141970920Y-96643320I-1500020J0D01*
G01*
X85766470Y-95143300D02*
G75*
G03*
X87266470Y-96643330I1500030J0D01*
G01*
X172085000Y-95143300D02*
G75*
G03*
X173585000Y-96643300I1500000J0D01*
G01*
X114539270Y-95143300D02*
G75*
G03*
X116039270Y-96643330I1500030J0D01*
G01*
X99736470Y-98143300D02*
G75*
G02*
X101236470Y-96643270I1500030J0D01*
G01*
X134232244Y-96643300D02*
G75*
G02*
X132732200Y-95143300I-44J1500000D01*
G01*
X114539270Y-95143300D02*
G75*
G02*
X113039270Y-96643270I-1499970J0D01*
G01*
X127018570Y-96643300D02*
G75*
G02*
X128518600Y-98143300I30J-1500000D01*
G01*
X99736470Y-98143300D02*
G75*
G03*
X98236470Y-96643330I-1499970J0D01*
G01*
D14*
%TO.N,Net-(J1-Pin_4)*%
X133391470Y-90416600D02*
X133391470Y-87909100D01*
X123429270Y-92321600D02*
X131486470Y-92321600D01*
X134026470Y-87274100D02*
X135273244Y-87274100D01*
X131486470Y-92321600D02*
G75*
G03*
X133391500Y-90416600I30J1905000D01*
G01*
X134026470Y-87274100D02*
G75*
G03*
X133391500Y-87909100I30J-635000D01*
G01*
%TO.N,Net-(J2-Pin_7)*%
X135273244Y-112012500D02*
X136543244Y-112012500D01*
X139718244Y-108837500D02*
X139718244Y-103187500D01*
X140353244Y-102552500D02*
X205937870Y-102552500D01*
X139718244Y-103187500D02*
G75*
G02*
X140353244Y-102552544I634956J0D01*
G01*
X139718244Y-108837500D02*
G75*
G02*
X136543244Y-112012544I-3175044J0D01*
G01*
%TO.N,Net-(J2-Pin_3)*%
X94656470Y-100965000D02*
X131463244Y-100965000D01*
X134003244Y-104012500D02*
X135273244Y-104012500D01*
X133368244Y-102870000D02*
X133368244Y-103377500D01*
X131463244Y-100965000D02*
G75*
G02*
X133368200Y-102870000I-44J-1905000D01*
G01*
X134003244Y-104012500D02*
G75*
G02*
X133368200Y-103377500I-44J635000D01*
G01*
%TO.N,Net-(J2-Pin_4)*%
X123438570Y-102552500D02*
X131463244Y-102552500D01*
X134003244Y-106012500D02*
X135273244Y-106012500D01*
X132098244Y-103187500D02*
X132098244Y-104107500D01*
X134003244Y-106012500D02*
G75*
G02*
X132098200Y-104107500I-44J1905000D01*
G01*
X132098244Y-103187500D02*
G75*
G03*
X131463244Y-102552456I-635044J0D01*
G01*
%TO.N,Net-(J2-Pin_6)*%
X177165000Y-101282500D02*
X140353244Y-101282500D01*
X136543244Y-110012500D02*
X135273244Y-110012500D01*
X138448244Y-103187500D02*
X138448244Y-108107500D01*
X140353244Y-101282500D02*
G75*
G03*
X138448200Y-103187500I-44J-1905000D01*
G01*
X138448244Y-108107500D02*
G75*
G02*
X136543244Y-110012544I-1905044J0D01*
G01*
%TO.N,Net-(J2-Pin_5)*%
X136543244Y-108012500D02*
X135273244Y-108012500D01*
X137178244Y-103187500D02*
X137178244Y-107377500D01*
X148392170Y-100012500D02*
X140353244Y-100012500D01*
X140353244Y-100012500D02*
G75*
G03*
X137178200Y-103187500I-44J-3175000D01*
G01*
X137178244Y-107377500D02*
G75*
G02*
X136543244Y-108012544I-635044J0D01*
G01*
%TD*%
%TA.AperFunction,Conductor*%
%TO.N,Net-(J1-Pin_3)*%
G36*
X134881666Y-84689081D02*
G01*
X134886137Y-84693034D01*
X135269894Y-85267472D01*
X135271640Y-85276255D01*
X135269895Y-85280468D01*
X134886223Y-85855033D01*
X134878779Y-85860011D01*
X134872634Y-85859581D01*
X133917916Y-85526007D01*
X133911236Y-85520043D01*
X133910176Y-85516494D01*
X133847129Y-85037505D01*
X133849447Y-85028856D01*
X133855053Y-85024871D01*
X134872735Y-84688424D01*
X134881666Y-84689081D01*
G37*
%TD.AperFunction*%
%TD*%
%TA.AperFunction,Conductor*%
%TO.N,Net-(J1-Pin_3)*%
G36*
X94669088Y-90435151D02*
G01*
X95245742Y-90483206D01*
X95253702Y-90487308D01*
X95256470Y-90494866D01*
X95256470Y-90973334D01*
X95253043Y-90981607D01*
X95245742Y-90984994D01*
X94669099Y-91033047D01*
X94660569Y-91030319D01*
X94656467Y-91022359D01*
X94656427Y-91021445D01*
X94655470Y-90734100D01*
X94656427Y-90446771D01*
X94659881Y-90438511D01*
X94668166Y-90435112D01*
X94669088Y-90435151D01*
G37*
%TD.AperFunction*%
%TD*%
%TA.AperFunction,Conductor*%
%TO.N,Net-(J1-Pin_5)*%
G36*
X148388070Y-90437880D02*
G01*
X148392172Y-90445840D01*
X148392212Y-90446773D01*
X148393170Y-90734100D01*
X148393170Y-90734178D01*
X148392212Y-91021426D01*
X148388758Y-91029688D01*
X148380473Y-91033087D01*
X148379540Y-91033047D01*
X147802898Y-90984994D01*
X147794938Y-90980892D01*
X147792170Y-90973334D01*
X147792170Y-90494866D01*
X147795597Y-90486593D01*
X147802898Y-90483206D01*
X148379541Y-90435152D01*
X148388070Y-90437880D01*
G37*
%TD.AperFunction*%
%TD*%
%TA.AperFunction,Conductor*%
%TO.N,Net-(J1-Pin_5)*%
G36*
X135673670Y-88688273D02*
G01*
X136728539Y-89021517D01*
X136735396Y-89027277D01*
X136736715Y-89032674D01*
X136736715Y-89515525D01*
X136733288Y-89523798D01*
X136728539Y-89526682D01*
X135673672Y-89859925D01*
X135664751Y-89859149D01*
X135660419Y-89855266D01*
X135276584Y-89280598D01*
X135274838Y-89271815D01*
X135276584Y-89267602D01*
X135660419Y-88692933D01*
X135667863Y-88687956D01*
X135673670Y-88688273D01*
G37*
%TD.AperFunction*%
%TD*%
%TA.AperFunction,Conductor*%
%TO.N,Net-(J1-Pin_7)*%
G36*
X135673670Y-92688273D02*
G01*
X136728539Y-93021517D01*
X136735396Y-93027277D01*
X136736715Y-93032674D01*
X136736715Y-93515525D01*
X136733288Y-93523798D01*
X136728539Y-93526682D01*
X135673672Y-93859925D01*
X135664751Y-93859149D01*
X135660419Y-93855266D01*
X135276584Y-93280598D01*
X135274838Y-93271815D01*
X135276584Y-93267602D01*
X135660419Y-92692933D01*
X135667863Y-92687956D01*
X135673670Y-92688273D01*
G37*
%TD.AperFunction*%
%TD*%
%TA.AperFunction,Conductor*%
%TO.N,Net-(J1-Pin_7)*%
G36*
X205933770Y-92977880D02*
G01*
X205937872Y-92985840D01*
X205937912Y-92986773D01*
X205938870Y-93274100D01*
X205938870Y-93274178D01*
X205937912Y-93561426D01*
X205934458Y-93569688D01*
X205926173Y-93573087D01*
X205925240Y-93573047D01*
X205348598Y-93524994D01*
X205340638Y-93520892D01*
X205337870Y-93513334D01*
X205337870Y-93034866D01*
X205341297Y-93026593D01*
X205348598Y-93023206D01*
X205925241Y-92975152D01*
X205933770Y-92977880D01*
G37*
%TD.AperFunction*%
%TD*%
%TA.AperFunction,Conductor*%
%TO.N,Net-(J1-Pin_6)*%
G36*
X177160900Y-91707880D02*
G01*
X177165002Y-91715840D01*
X177165042Y-91716773D01*
X177166000Y-92004100D01*
X177166000Y-92004178D01*
X177165042Y-92291426D01*
X177161588Y-92299688D01*
X177153303Y-92303087D01*
X177152370Y-92303047D01*
X176575728Y-92254994D01*
X176567768Y-92250892D01*
X176565000Y-92243334D01*
X176565000Y-91764866D01*
X176568427Y-91756593D01*
X176575728Y-91753206D01*
X177152371Y-91705152D01*
X177160900Y-91707880D01*
G37*
%TD.AperFunction*%
%TD*%
%TA.AperFunction,Conductor*%
%TO.N,Net-(J1-Pin_6)*%
G36*
X135673670Y-90688273D02*
G01*
X136728539Y-91021517D01*
X136735396Y-91027277D01*
X136736715Y-91032674D01*
X136736715Y-91515525D01*
X136733288Y-91523798D01*
X136728539Y-91526682D01*
X135673672Y-91859925D01*
X135664751Y-91859149D01*
X135660419Y-91855266D01*
X135276584Y-91280598D01*
X135274838Y-91271815D01*
X135276584Y-91267602D01*
X135660419Y-90692933D01*
X135667863Y-90687956D01*
X135673670Y-90688273D01*
G37*
%TD.AperFunction*%
%TD*%
%TA.AperFunction,Conductor*%
%TO.N,GND*%
G36*
X135771606Y-98815927D02*
G01*
X135774874Y-98822277D01*
X135872255Y-99406567D01*
X135870235Y-99415290D01*
X135868994Y-99416756D01*
X135281524Y-100005206D01*
X135273254Y-100008640D01*
X135264978Y-100005220D01*
X135264964Y-100005206D01*
X134677493Y-99416756D01*
X134674073Y-99408480D01*
X134674231Y-99406576D01*
X134771614Y-98822275D01*
X134776355Y-98814679D01*
X134783155Y-98812500D01*
X135763333Y-98812500D01*
X135771606Y-98815927D01*
G37*
%TD.AperFunction*%
%TD*%
%TA.AperFunction,Conductor*%
%TO.N,Net-(J1-Pin_4)*%
G36*
X123441888Y-92022651D02*
G01*
X124018542Y-92070706D01*
X124026502Y-92074808D01*
X124029270Y-92082366D01*
X124029270Y-92560834D01*
X124025843Y-92569107D01*
X124018542Y-92572494D01*
X123441899Y-92620547D01*
X123433369Y-92617819D01*
X123429267Y-92609859D01*
X123429227Y-92608945D01*
X123428270Y-92321600D01*
X123429227Y-92034271D01*
X123432681Y-92026011D01*
X123440966Y-92022612D01*
X123441888Y-92022651D01*
G37*
%TD.AperFunction*%
%TD*%
%TA.AperFunction,Conductor*%
%TO.N,Net-(J1-Pin_4)*%
G36*
X134881633Y-86689095D02*
G01*
X134886168Y-86693079D01*
X135269803Y-87267171D01*
X135271550Y-87275954D01*
X135269807Y-87280166D01*
X134886202Y-87855058D01*
X134878760Y-87860038D01*
X134872653Y-87859624D01*
X133928913Y-87533927D01*
X133922211Y-87527989D01*
X133922189Y-87527944D01*
X133713090Y-87093787D01*
X133712588Y-87084847D01*
X133718555Y-87078170D01*
X133719874Y-87077632D01*
X134872699Y-86688495D01*
X134881633Y-86689095D01*
G37*
%TD.AperFunction*%
%TD*%
%TA.AperFunction,Conductor*%
%TO.N,Net-(J2-Pin_7)*%
G36*
X135673760Y-111426836D02*
G01*
X136676234Y-111759486D01*
X136683007Y-111765344D01*
X136684185Y-111769368D01*
X136734671Y-112249652D01*
X136732128Y-112258238D01*
X136726595Y-112262020D01*
X135673692Y-112598290D01*
X135664768Y-112597543D01*
X135660403Y-112593644D01*
X135276589Y-112019100D01*
X135274844Y-112010319D01*
X135276587Y-112006108D01*
X135660346Y-111431443D01*
X135667790Y-111426467D01*
X135673760Y-111426836D01*
G37*
%TD.AperFunction*%
%TD*%
%TA.AperFunction,Conductor*%
%TO.N,Net-(J2-Pin_7)*%
G36*
X205933770Y-102256280D02*
G01*
X205937872Y-102264240D01*
X205937912Y-102265173D01*
X205938870Y-102552500D01*
X205938870Y-102552578D01*
X205937912Y-102839826D01*
X205934458Y-102848088D01*
X205926173Y-102851487D01*
X205925240Y-102851447D01*
X205348598Y-102803394D01*
X205340638Y-102799292D01*
X205337870Y-102791734D01*
X205337870Y-102313266D01*
X205341297Y-102304993D01*
X205348598Y-102301606D01*
X205925241Y-102253552D01*
X205933770Y-102256280D01*
G37*
%TD.AperFunction*%
%TD*%
%TA.AperFunction,Conductor*%
%TO.N,Net-(J2-Pin_3)*%
G36*
X94669088Y-100666051D02*
G01*
X95245742Y-100714106D01*
X95253702Y-100718208D01*
X95256470Y-100725766D01*
X95256470Y-101204234D01*
X95253043Y-101212507D01*
X95245742Y-101215894D01*
X94669099Y-101263947D01*
X94660569Y-101261219D01*
X94656467Y-101253259D01*
X94656427Y-101252345D01*
X94655470Y-100965000D01*
X94656427Y-100677671D01*
X94659881Y-100669411D01*
X94668166Y-100666012D01*
X94669088Y-100666051D01*
G37*
%TD.AperFunction*%
%TD*%
%TA.AperFunction,Conductor*%
%TO.N,Net-(J2-Pin_3)*%
G36*
X134881407Y-103427616D02*
G01*
X134886386Y-103431812D01*
X135269879Y-104006223D01*
X135271622Y-104015006D01*
X135269876Y-104019219D01*
X134886198Y-104593474D01*
X134878753Y-104598449D01*
X134872664Y-104598038D01*
X133886131Y-104258659D01*
X133879423Y-104252727D01*
X133878530Y-104244992D01*
X133986033Y-103773848D01*
X133991215Y-103766545D01*
X133993234Y-103765533D01*
X134872456Y-103427388D01*
X134881407Y-103427616D01*
G37*
%TD.AperFunction*%
%TD*%
%TA.AperFunction,Conductor*%
%TO.N,Net-(J2-Pin_4)*%
G36*
X123451188Y-102253551D02*
G01*
X124027842Y-102301606D01*
X124035802Y-102305708D01*
X124038570Y-102313266D01*
X124038570Y-102791734D01*
X124035143Y-102800007D01*
X124027842Y-102803394D01*
X123451199Y-102851447D01*
X123442669Y-102848719D01*
X123438567Y-102840759D01*
X123438527Y-102839845D01*
X123437570Y-102552500D01*
X123438527Y-102265171D01*
X123441981Y-102256911D01*
X123450266Y-102253512D01*
X123451188Y-102253551D01*
G37*
%TD.AperFunction*%
%TD*%
%TA.AperFunction,Conductor*%
%TO.N,Net-(J2-Pin_4)*%
G36*
X134881574Y-105427524D02*
G01*
X134886223Y-105431566D01*
X135269895Y-106006131D01*
X135271640Y-106014914D01*
X135269894Y-106019127D01*
X134886137Y-106593565D01*
X134878692Y-106598541D01*
X134872735Y-106598175D01*
X133855056Y-106261729D01*
X133848277Y-106255878D01*
X133847129Y-106249093D01*
X133910176Y-105770107D01*
X133914652Y-105762355D01*
X133917910Y-105760595D01*
X134872635Y-105427018D01*
X134881574Y-105427524D01*
G37*
%TD.AperFunction*%
%TD*%
%TA.AperFunction,Conductor*%
%TO.N,Net-(J2-Pin_6)*%
G36*
X177160900Y-100986280D02*
G01*
X177165002Y-100994240D01*
X177165042Y-100995173D01*
X177166000Y-101282500D01*
X177166000Y-101282578D01*
X177165042Y-101569826D01*
X177161588Y-101578088D01*
X177153303Y-101581487D01*
X177152370Y-101581447D01*
X176575728Y-101533394D01*
X176567768Y-101529292D01*
X176565000Y-101521734D01*
X176565000Y-101043266D01*
X176568427Y-101034993D01*
X176575728Y-101031606D01*
X177152371Y-100983552D01*
X177160900Y-100986280D01*
G37*
%TD.AperFunction*%
%TD*%
%TA.AperFunction,Conductor*%
%TO.N,Net-(J2-Pin_6)*%
G36*
X135673852Y-109427017D02*
G01*
X136628547Y-109760490D01*
X136635228Y-109766454D01*
X136636289Y-109770009D01*
X136699359Y-110248990D01*
X136697041Y-110257639D01*
X136691433Y-110261625D01*
X135673753Y-110598174D01*
X135664822Y-110597518D01*
X135660350Y-110593565D01*
X135438595Y-110261625D01*
X135276592Y-110019126D01*
X135274847Y-110010344D01*
X135276590Y-110006134D01*
X135660265Y-109431564D01*
X135667708Y-109426588D01*
X135673852Y-109427017D01*
G37*
%TD.AperFunction*%
%TD*%
%TA.AperFunction,Conductor*%
%TO.N,Net-(J2-Pin_5)*%
G36*
X135674031Y-107427386D02*
G01*
X136553188Y-107765320D01*
X136559680Y-107771486D01*
X136560392Y-107773625D01*
X136667958Y-108244766D01*
X136666458Y-108253594D01*
X136660359Y-108258433D01*
X135673824Y-108598035D01*
X135664886Y-108597487D01*
X135660288Y-108593472D01*
X135276611Y-108019219D01*
X135274864Y-108010436D01*
X135276606Y-108006226D01*
X135660102Y-107431810D01*
X135667546Y-107426833D01*
X135674031Y-107427386D01*
G37*
%TD.AperFunction*%
%TD*%
%TA.AperFunction,Conductor*%
%TO.N,Net-(J2-Pin_5)*%
G36*
X148388070Y-99716280D02*
G01*
X148392172Y-99724240D01*
X148392212Y-99725173D01*
X148393170Y-100012500D01*
X148393170Y-100012578D01*
X148392212Y-100299826D01*
X148388758Y-100308088D01*
X148380473Y-100311487D01*
X148379540Y-100311447D01*
X147802898Y-100263394D01*
X147794938Y-100259292D01*
X147792170Y-100251734D01*
X147792170Y-99773266D01*
X147795597Y-99764993D01*
X147802898Y-99761606D01*
X148379541Y-99713552D01*
X148388070Y-99716280D01*
G37*
%TD.AperFunction*%
%TD*%
M02*
