M48
; DRILL file {KiCad 8.0.4} date 2024-07-29T20:22:56+0200
; FORMAT={-:-/ absolute / inch / decimal}
; #@! TF.CreationDate,2024-07-29T20:22:56+02:00
; #@! TF.GenerationSoftware,Kicad,Pcbnew,8.0.4
; #@! TF.FileFunction,Plated,1,2,PTH
FMAT,2
INCH
; #@! TA.AperFunction,Plated,PTH,ViaDrill
T1C0.0118
; #@! TA.AperFunction,Plated,PTH,ViaDrill
T2C0.0197
; #@! TA.AperFunction,Plated,PTH,ComponentDrill
T3C0.0295
%
G90
G05
T1
X3.7266Y-3.5722
X3.7266Y-3.975
X4.8594Y-3.6347
X4.8598Y-4.0375
X5.8422Y-3.5722
X5.8422Y-3.9375
X6.975Y-3.6222
X6.975Y-3.9875
X8.1078Y-3.6722
X8.1078Y-4.0375
T2
X3.3766Y-3.7129
X3.9266Y-3.8969
X4.5094Y-3.7129
X5.0598Y-3.8969
X5.2257Y-3.7222
X5.6485Y-3.7347
X6.186Y-3.875
X6.775Y-3.7347
X7.325Y-3.8969
X7.9078Y-3.7347
X8.4578Y-3.8969
T3
X5.3257Y-3.1998
X5.3257Y-3.2785
X5.3257Y-3.3572
X5.3257Y-3.436
X5.3257Y-3.5147
X5.3257Y-3.5935
X5.3257Y-3.6722
X5.3257Y-3.9375
X5.3257Y-4.0162
X5.3257Y-4.095
X5.3257Y-4.1737
X5.3257Y-4.2525
X5.3257Y-4.3312
X5.3257Y-4.4099
M30
