%TF.GenerationSoftware,KiCad,Pcbnew,8.0.3*%
%TF.CreationDate,2024-06-19T23:54:17+02:00*%
%TF.ProjectId,PT-10 Top,50542d31-3020-4546-9f70-2e6b69636164,rev?*%
%TF.SameCoordinates,Original*%
%TF.FileFunction,Profile,NP*%
%FSLAX46Y46*%
G04 Gerber Fmt 4.6, Leading zero omitted, Abs format (unit mm)*
G04 Created by KiCad (PCBNEW 8.0.3) date 2024-06-19 23:54:17*
%MOMM*%
%LPD*%
G01*
G04 APERTURE LIST*
%TA.AperFunction,Profile*%
%ADD10C,0.150000*%
%TD*%
G04 APERTURE END LIST*
D10*
X305050670Y-196066667D02*
X305050670Y-196066669D01*
X202755000Y-187128369D02*
G75*
G02*
X194755000Y-187128369I-4000000J0D01*
G01*
X194755000Y-187128369D02*
G75*
G02*
X202755000Y-187128369I4000000J0D01*
G01*
X310200570Y-197066669D02*
G75*
G02*
X307900570Y-197066669I-1150000J0D01*
G01*
X307900570Y-197066669D02*
G75*
G02*
X310200570Y-197066669I1150000J0D01*
G01*
X290518570Y-73731669D02*
X290518570Y-116131669D01*
X117368570Y-71431669D02*
G75*
G02*
X113868570Y-71431669I-1750000J0D01*
G01*
X113868570Y-71431669D02*
G75*
G02*
X117368570Y-71431669I1750000J0D01*
G01*
X116436470Y-187128369D02*
G75*
G02*
X108436470Y-187128369I-4000000J0D01*
G01*
X108436470Y-187128369D02*
G75*
G02*
X116436470Y-187128369I4000000J0D01*
G01*
X173982170Y-148004969D02*
G75*
G02*
X165982170Y-148004969I-4000000J0D01*
G01*
X165982170Y-148004969D02*
G75*
G02*
X173982170Y-148004969I4000000J0D01*
G01*
X309050570Y-143094953D02*
X309050570Y-192094811D01*
X249050670Y-192066669D02*
X249050670Y-143066669D01*
X310200570Y-138066669D02*
G75*
G02*
X307900570Y-138066669I-1150000J0D01*
G01*
X307900570Y-138066669D02*
G75*
G02*
X310200570Y-138066669I1150000J0D01*
G01*
X202755000Y-148004969D02*
G75*
G02*
X194755000Y-148004969I-4000000J0D01*
G01*
X194755000Y-148004969D02*
G75*
G02*
X202755000Y-148004969I4000000J0D01*
G01*
X99548570Y-64321669D02*
G75*
G02*
X96098570Y-64321669I-1725000J0D01*
G01*
X96098570Y-64321669D02*
G75*
G02*
X99548570Y-64321669I1725000J0D01*
G01*
X305050670Y-139066669D02*
G75*
G02*
X309050631Y-143094953I30J-4000031D01*
G01*
X145209270Y-148004969D02*
G75*
G02*
X137209270Y-148004969I-4000000J0D01*
G01*
X137209270Y-148004969D02*
G75*
G02*
X145209270Y-148004969I4000000J0D01*
G01*
X123718570Y-116131669D02*
X123718570Y-94931669D01*
X309050570Y-192094811D02*
G75*
G02*
X305050670Y-196066669I-3999870J28111D01*
G01*
X116436470Y-148004969D02*
G75*
G02*
X108436470Y-148004969I-4000000J0D01*
G01*
X108436470Y-148004969D02*
G75*
G02*
X116436470Y-148004969I4000000J0D01*
G01*
X318138570Y-210411669D02*
G75*
G02*
X314688570Y-210411669I-1725000J0D01*
G01*
X314688570Y-210411669D02*
G75*
G02*
X318138570Y-210411669I1725000J0D01*
G01*
X117368570Y-118431669D02*
G75*
G02*
X113868570Y-118431669I-1750000J0D01*
G01*
X113868570Y-118431669D02*
G75*
G02*
X117368570Y-118431669I1750000J0D01*
G01*
X253050670Y-139066669D02*
X305050670Y-139066669D01*
X250200670Y-197066669D02*
G75*
G02*
X247900670Y-197066669I-1150000J0D01*
G01*
X247900670Y-197066669D02*
G75*
G02*
X250200670Y-197066669I1150000J0D01*
G01*
X323323570Y-219001669D02*
X90913570Y-219001669D01*
X250200670Y-138066669D02*
G75*
G02*
X247900670Y-138066669I-1150000J0D01*
G01*
X247900670Y-138066669D02*
G75*
G02*
X250200670Y-138066669I1150000J0D01*
G01*
X123718570Y-94931669D02*
X123718570Y-73731669D01*
X300368570Y-118431669D02*
G75*
G02*
X296868570Y-118431669I-1750000J0D01*
G01*
X296868570Y-118431669D02*
G75*
G02*
X300368570Y-118431669I1750000J0D01*
G01*
X173982170Y-187128369D02*
G75*
G02*
X165982170Y-187128369I-4000000J0D01*
G01*
X165982170Y-187128369D02*
G75*
G02*
X173982170Y-187128369I4000000J0D01*
G01*
X123718570Y-73731669D02*
X290518570Y-73731669D01*
X145209270Y-187128369D02*
G75*
G02*
X137209270Y-187128369I-4000000J0D01*
G01*
X137209270Y-187128369D02*
G75*
G02*
X145209270Y-187128369I4000000J0D01*
G01*
X231527870Y-187128369D02*
G75*
G02*
X223527870Y-187128369I-4000000J0D01*
G01*
X223527870Y-187128369D02*
G75*
G02*
X231527870Y-187128369I4000000J0D01*
G01*
X318138570Y-64321669D02*
G75*
G02*
X314688570Y-64321669I-1725000J0D01*
G01*
X314688570Y-64321669D02*
G75*
G02*
X318138570Y-64321669I1725000J0D01*
G01*
X323323570Y-55731669D02*
X323323570Y-219001669D01*
X300368570Y-71431669D02*
G75*
G02*
X296868570Y-71431669I-1750000J0D01*
G01*
X296868570Y-71431669D02*
G75*
G02*
X300368570Y-71431669I1750000J0D01*
G01*
X290518570Y-116131669D02*
X123718570Y-116131669D01*
X231527870Y-148004969D02*
G75*
G02*
X223527870Y-148004969I-4000000J0D01*
G01*
X223527870Y-148004969D02*
G75*
G02*
X231527870Y-148004969I4000000J0D01*
G01*
X99548570Y-210411669D02*
G75*
G02*
X96098570Y-210411669I-1725000J0D01*
G01*
X96098570Y-210411669D02*
G75*
G02*
X99548570Y-210411669I1725000J0D01*
G01*
X90913570Y-55731669D02*
X323323570Y-55731669D01*
X90913570Y-219001669D02*
X90913570Y-55731669D01*
X253050670Y-196066669D02*
G75*
G02*
X249050731Y-192066669I30J3999969D01*
G01*
X249050670Y-143066669D02*
G75*
G02*
X253050670Y-139066670I4000030J-31D01*
G01*
X305050670Y-196066669D02*
X253050670Y-196066669D01*
M02*
