%TF.GenerationSoftware,KiCad,Pcbnew,8.0.3*%
%TF.CreationDate,2024-06-19T23:54:17+02:00*%
%TF.ProjectId,PT-10 Top,50542d31-3020-4546-9f70-2e6b69636164,rev?*%
%TF.SameCoordinates,Original*%
%TF.FileFunction,Legend,Top*%
%TF.FilePolarity,Positive*%
%FSLAX46Y46*%
G04 Gerber Fmt 4.6, Leading zero omitted, Abs format (unit mm)*
G04 Created by KiCad (PCBNEW 8.0.3) date 2024-06-19 23:54:17*
%MOMM*%
%LPD*%
G01*
G04 APERTURE LIST*
%ADD10C,1.000000*%
%ADD11C,0.150000*%
G04 APERTURE END LIST*
D10*
X164758570Y-118631669D02*
X164758570Y-122943369D01*
X228298570Y-118631669D02*
X228298570Y-122943369D01*
X227527870Y-157754969D02*
X227527870Y-177378369D01*
X141209270Y-157754969D02*
X141209270Y-177378369D01*
X143578570Y-118631669D02*
X136893570Y-118631669D01*
X260068570Y-118631669D02*
X277343570Y-118631669D01*
X185938570Y-118631669D02*
X185938570Y-122943369D01*
X164758570Y-122943369D02*
X141209270Y-132254999D01*
X112436470Y-138255002D02*
X112436470Y-132254999D01*
X158073570Y-118631669D02*
X164758570Y-118631669D01*
X242793570Y-118631669D02*
X260068570Y-118631669D01*
X112436470Y-157754969D02*
X112436470Y-177378369D01*
X221613570Y-118631669D02*
X228298570Y-118631669D01*
X143578570Y-118631669D02*
X143578570Y-122943369D01*
X143578570Y-122943369D02*
X112436470Y-132254999D01*
X207118570Y-122943369D02*
X198755000Y-132254999D01*
X185938570Y-122943369D02*
X169982170Y-132254999D01*
X300097370Y-132254999D02*
X300097370Y-136566669D01*
X150263570Y-118631669D02*
X143578570Y-118631669D01*
X141209270Y-138255002D02*
X141209270Y-132254999D01*
X228298570Y-122943369D02*
X227527870Y-132254999D01*
X207118570Y-118631669D02*
X213803570Y-118631669D01*
X198755000Y-138255002D02*
X198755000Y-132254999D01*
X169982170Y-157754969D02*
X169982170Y-177378369D01*
X198755000Y-157754969D02*
X198755000Y-177378369D01*
X200433570Y-118631669D02*
X207118570Y-118631669D01*
X164758570Y-118631669D02*
X171443570Y-118631669D01*
X185938570Y-118631669D02*
X192623570Y-118631669D01*
X260068570Y-118631669D02*
X260068570Y-122943369D01*
X179253570Y-118631669D02*
X185938570Y-118631669D01*
X228298570Y-118631669D02*
X234983570Y-118631669D01*
X260068570Y-122943369D02*
X300097370Y-132254999D01*
X169982170Y-138255002D02*
X169982170Y-132254999D01*
X207118570Y-118631669D02*
X207118570Y-122943369D01*
X227527870Y-132254999D02*
X227527870Y-138255002D01*
D11*
G36*
X198118570Y-62856669D02*
G01*
X198118570Y-60230569D01*
X200744669Y-60230569D01*
X200744669Y-60755936D01*
X198643936Y-60755936D01*
X198643936Y-62331302D01*
X200219302Y-62331302D01*
X200219302Y-61824987D01*
X199168570Y-61824987D01*
X199168570Y-61299620D01*
X200744669Y-61299620D01*
X200744669Y-62856669D01*
X198118570Y-62856669D01*
G37*
G36*
X201266371Y-62856669D02*
G01*
X201266371Y-60230569D01*
X201791738Y-60230569D01*
X201791738Y-62331302D01*
X203892470Y-62331302D01*
X203892470Y-62856669D01*
X201266371Y-62856669D01*
G37*
G36*
X204414173Y-62856669D02*
G01*
X204414173Y-60230569D01*
X204939539Y-60230569D01*
X204939539Y-62856669D01*
X204414173Y-62856669D01*
G37*
G36*
X205463440Y-62856669D02*
G01*
X205463440Y-60230569D01*
X208089539Y-60230569D01*
X208089539Y-60755936D01*
X205988807Y-60755936D01*
X205988807Y-62331302D01*
X207564173Y-62331302D01*
X207564173Y-61824987D01*
X206513440Y-61824987D01*
X206513440Y-61299620D01*
X208089539Y-61299620D01*
X208089539Y-62856669D01*
X205463440Y-62856669D01*
G37*
G36*
X208611242Y-62856669D02*
G01*
X208611242Y-60230569D01*
X209136609Y-60230569D01*
X209136609Y-62331302D01*
X211237341Y-62331302D01*
X211237341Y-62856669D01*
X208611242Y-62856669D01*
G37*
G36*
X211759044Y-62856669D02*
G01*
X211759044Y-60230569D01*
X212284410Y-60230569D01*
X212284410Y-62856669D01*
X211759044Y-62856669D01*
G37*
G36*
X212808311Y-61262251D02*
G01*
X212808311Y-60230569D01*
X213333678Y-60230569D01*
X213333678Y-61262251D01*
X212808311Y-61262251D01*
G37*
G36*
X213857579Y-62856669D02*
G01*
X213857579Y-62331302D01*
X215958311Y-62331302D01*
X215958311Y-61824987D01*
X213857579Y-61824987D01*
X213857579Y-60230569D01*
X216483678Y-60230569D01*
X216483678Y-60755936D01*
X214382945Y-60755936D01*
X214382945Y-61299620D01*
X216483678Y-61299620D01*
X216483678Y-62856669D01*
X213857579Y-62856669D01*
G37*
G36*
X225914258Y-60325784D02*
G01*
X226210060Y-60360521D01*
X226531364Y-60416820D01*
X226682352Y-60448762D01*
X226682352Y-60432642D01*
X226654508Y-60371093D01*
X226682352Y-60371093D01*
X226738039Y-60432642D01*
X226765883Y-60432642D01*
X226765883Y-60412126D01*
X226738039Y-60334456D01*
X226765883Y-60334456D01*
X227012080Y-60510311D01*
X227174745Y-60489795D01*
X227460366Y-60607289D01*
X227701519Y-60796483D01*
X227903225Y-61031025D01*
X228023245Y-61209334D01*
X228170936Y-61499747D01*
X228298934Y-61784068D01*
X228407241Y-62062299D01*
X228514932Y-62401522D01*
X228591854Y-62731229D01*
X228638007Y-63051418D01*
X228653392Y-63362091D01*
X228627541Y-63694884D01*
X228581586Y-64007164D01*
X228525737Y-64322652D01*
X228469568Y-64611210D01*
X228403188Y-64931916D01*
X228326595Y-65284770D01*
X228273838Y-65284770D01*
X228273838Y-65127966D01*
X228245994Y-65127966D01*
X228215220Y-65321407D01*
X228162463Y-65321407D01*
X228109707Y-64937457D01*
X228081863Y-64937457D01*
X227930525Y-65207366D01*
X227718091Y-65475442D01*
X227482737Y-65724734D01*
X227256279Y-65941118D01*
X226995885Y-66172568D01*
X226701557Y-66419086D01*
X226541668Y-66547994D01*
X226302867Y-66732161D01*
X226057609Y-66906573D01*
X225805894Y-67071231D01*
X225547722Y-67226135D01*
X225283092Y-67371284D01*
X225012005Y-67506678D01*
X224734462Y-67632318D01*
X224450461Y-67748204D01*
X224160214Y-67834860D01*
X223864440Y-67913300D01*
X223551958Y-67978292D01*
X223294215Y-68003193D01*
X222991421Y-67977720D01*
X222682903Y-67929574D01*
X222355168Y-67868437D01*
X222037425Y-67803479D01*
X221754020Y-67742342D01*
X221428302Y-67707771D01*
X221114084Y-67604057D01*
X220853908Y-67460127D01*
X220602182Y-67265399D01*
X220358904Y-67019872D01*
X220253758Y-66741160D01*
X220178653Y-66453106D01*
X220133590Y-66155710D01*
X220118570Y-65848971D01*
X220130329Y-65539169D01*
X220139546Y-65459160D01*
X221994355Y-65459160D01*
X222043187Y-65764968D01*
X222172330Y-66054396D01*
X222357570Y-66324180D01*
X222407613Y-66385329D01*
X222707918Y-66496612D01*
X223007598Y-66579662D01*
X223154997Y-66596354D01*
X223485274Y-66556352D01*
X223782212Y-66514014D01*
X224106502Y-66457807D01*
X224426887Y-66385542D01*
X224705862Y-66294591D01*
X224863720Y-66210939D01*
X225167344Y-66037786D01*
X225430485Y-65881028D01*
X225702482Y-65708136D01*
X225945381Y-65534479D01*
X226154123Y-65311916D01*
X226159184Y-65284770D01*
X226336747Y-65024740D01*
X226496846Y-64763423D01*
X226639479Y-64500817D01*
X226802488Y-64148672D01*
X226934448Y-63794237D01*
X227035358Y-63437513D01*
X227105219Y-63078499D01*
X227144031Y-62717195D01*
X227152763Y-62444715D01*
X227086932Y-62151280D01*
X226984236Y-62076885D01*
X226698207Y-61892815D01*
X226446453Y-61739944D01*
X226189592Y-61597680D01*
X225896842Y-61468520D01*
X225745925Y-61437946D01*
X225416197Y-61631386D01*
X225118726Y-61742404D01*
X224824404Y-61864800D01*
X224533230Y-61998573D01*
X224245205Y-62143723D01*
X223960328Y-62300251D01*
X223678600Y-62468156D01*
X223566790Y-62538504D01*
X223313891Y-62736353D01*
X223105442Y-62951466D01*
X223043622Y-63099774D01*
X222771017Y-63273976D01*
X222561113Y-63509342D01*
X222374233Y-63750902D01*
X222271326Y-63892586D01*
X222391509Y-64167273D01*
X222407613Y-64297052D01*
X222288559Y-64576198D01*
X222172330Y-64863473D01*
X222062558Y-65165563D01*
X221994355Y-65459160D01*
X220139546Y-65459160D01*
X220165607Y-65232947D01*
X220224404Y-64930306D01*
X220306720Y-64631245D01*
X220412555Y-64335765D01*
X220541909Y-64043866D01*
X220694782Y-63755547D01*
X220871173Y-63470809D01*
X221071084Y-63189652D01*
X221294513Y-62912075D01*
X221456532Y-62729013D01*
X221648478Y-62480962D01*
X221886895Y-62225903D01*
X222121075Y-62008003D01*
X222387526Y-61785236D01*
X222623923Y-61603519D01*
X222880973Y-61418689D01*
X223017244Y-61325105D01*
X223334320Y-61162567D01*
X223600450Y-61027577D01*
X223887439Y-60884874D01*
X224155492Y-60763108D01*
X224166162Y-60760904D01*
X224405398Y-60571128D01*
X224704443Y-60465798D01*
X225007226Y-60382233D01*
X225123105Y-60353507D01*
X225422677Y-60313116D01*
X225479212Y-60312475D01*
X225615499Y-60312475D01*
X225914258Y-60325784D01*
G37*
G36*
X234705729Y-58810381D02*
G01*
X234762882Y-58817708D01*
X234661004Y-59094989D01*
X234655904Y-59116662D01*
X234651507Y-59150367D01*
X234676420Y-59153298D01*
X234801442Y-58884278D01*
X234808311Y-58858741D01*
X234861068Y-58871930D01*
X234861068Y-58924687D01*
X234881584Y-59137178D01*
X234778676Y-59451038D01*
X234680244Y-59747816D01*
X234586289Y-60027512D01*
X234453749Y-60415028D01*
X234331282Y-60764110D01*
X234218887Y-61074758D01*
X234084695Y-61429170D01*
X233968408Y-61715255D01*
X233827553Y-62016269D01*
X233772233Y-62109125D01*
X233626268Y-62393438D01*
X233473039Y-62689137D01*
X233312546Y-62996222D01*
X233144789Y-63314692D01*
X232969767Y-63644549D01*
X232787480Y-63985792D01*
X232597930Y-64338420D01*
X232401115Y-64702434D01*
X232197036Y-65077835D01*
X231985692Y-65464621D01*
X231840761Y-65728804D01*
X231716248Y-66019800D01*
X231595869Y-66300378D01*
X231479623Y-66570537D01*
X231313003Y-66956242D01*
X231155682Y-67318504D01*
X231007661Y-67657325D01*
X230868939Y-67972705D01*
X230739517Y-68264643D01*
X230619394Y-68533139D01*
X230473695Y-68854670D01*
X230344529Y-69134526D01*
X230184373Y-69435181D01*
X230036382Y-69702419D01*
X229874850Y-69978996D01*
X229708535Y-70240850D01*
X229529735Y-70481281D01*
X229438877Y-70497401D01*
X229361207Y-70453438D01*
X229299658Y-70506194D01*
X229267418Y-70501798D01*
X229189749Y-70456368D01*
X229148716Y-70534038D01*
X229141389Y-70583863D01*
X229088632Y-70575070D01*
X229104752Y-70476885D01*
X229104752Y-70472488D01*
X229053461Y-70435852D01*
X229027083Y-70432921D01*
X229013894Y-70510590D01*
X228962603Y-70501798D01*
X228833643Y-69933200D01*
X228804573Y-69606791D01*
X228778362Y-69289218D01*
X228755010Y-68980480D01*
X228734518Y-68680578D01*
X228711643Y-68294453D01*
X228693852Y-67924036D01*
X228681144Y-67569326D01*
X228673519Y-67230325D01*
X228670977Y-66907031D01*
X228673553Y-66595572D01*
X228681281Y-66300498D01*
X228697355Y-65968040D01*
X228720848Y-65659177D01*
X228757634Y-65328661D01*
X228776490Y-65196843D01*
X228761835Y-65147017D01*
X228769163Y-65060555D01*
X228789679Y-65048832D01*
X228789679Y-64966766D01*
X228840970Y-64610660D01*
X228826315Y-64524198D01*
X228852694Y-64528595D01*
X228835108Y-64491958D01*
X228840970Y-64443598D01*
X228886399Y-64304380D01*
X228867348Y-64250158D01*
X228892261Y-64254554D01*
X228874676Y-64217918D01*
X228890796Y-64206194D01*
X228901054Y-64206194D01*
X228879072Y-64168092D01*
X228886399Y-64119732D01*
X228921662Y-63823549D01*
X228927432Y-63681560D01*
X228927432Y-63562858D01*
X228942087Y-63551135D01*
X228955276Y-63551135D01*
X228955276Y-63542342D01*
X228942087Y-63448553D01*
X228976283Y-63147841D01*
X229009668Y-62827318D01*
X229038068Y-62508983D01*
X229057891Y-62187691D01*
X229060789Y-62051972D01*
X229027083Y-61823361D01*
X229116476Y-61786724D01*
X229104752Y-61700262D01*
X229129997Y-61393998D01*
X229138687Y-61082223D01*
X229139923Y-60881072D01*
X229139923Y-60579188D01*
X229167767Y-60582119D01*
X229147251Y-60545482D01*
X229250849Y-60268351D01*
X229372931Y-60202565D01*
X229372931Y-60205496D01*
X229397844Y-60221616D01*
X229472582Y-60173256D01*
X229493098Y-60173256D01*
X229520942Y-60177652D01*
X229509218Y-60255322D01*
X229627921Y-60226013D01*
X229652833Y-60230409D01*
X229825757Y-60755043D01*
X230023594Y-60771163D01*
X230023594Y-60787283D01*
X230080747Y-60778490D01*
X230108590Y-60787283D01*
X230380272Y-60928562D01*
X230561417Y-60992447D01*
X230717454Y-61247282D01*
X230734341Y-61413033D01*
X230718221Y-61613800D01*
X230688911Y-61609404D01*
X230713824Y-61647506D01*
X230684515Y-61807241D01*
X230663999Y-61818964D01*
X230656671Y-61818964D01*
X230677188Y-61855601D01*
X230677188Y-61871721D01*
X230656671Y-61884910D01*
X230643482Y-61884910D01*
X230668395Y-61921546D01*
X230663999Y-61937666D01*
X230643482Y-61949390D01*
X230636155Y-61949390D01*
X230636155Y-61953786D01*
X230659602Y-61969906D01*
X230609777Y-62076885D01*
X230403147Y-63354763D01*
X230362115Y-63414847D01*
X230391424Y-63435364D01*
X230341598Y-63546738D01*
X230280049Y-63930688D01*
X230259533Y-63943877D01*
X230247809Y-63943877D01*
X230275653Y-63964394D01*
X230234620Y-64042063D01*
X230205311Y-64217918D01*
X230184794Y-64229641D01*
X230171605Y-64229641D01*
X230196518Y-64250158D01*
X230092022Y-64554558D01*
X229995384Y-64840004D01*
X229928339Y-65053228D01*
X229928339Y-65715615D01*
X229957648Y-65720011D01*
X230103421Y-65442032D01*
X230276020Y-65153635D01*
X230461962Y-64851201D01*
X230629337Y-64582542D01*
X230820644Y-64278024D01*
X231035881Y-63937649D01*
X231275050Y-63561416D01*
X231360091Y-63428036D01*
X231525723Y-63110682D01*
X231693442Y-62802137D01*
X231863248Y-62502403D01*
X232035140Y-62211478D01*
X232209119Y-61929363D01*
X232385184Y-61656058D01*
X232563336Y-61391563D01*
X232743574Y-61135878D01*
X232925899Y-60889003D01*
X233110310Y-60650938D01*
X233234410Y-60497122D01*
X233408439Y-60242110D01*
X233600981Y-59975877D01*
X233780751Y-59738748D01*
X233974123Y-59493376D01*
X234181096Y-59239760D01*
X234206008Y-59244156D01*
X234201612Y-59276396D01*
X234005241Y-59607590D01*
X234005241Y-59625175D01*
X234030154Y-59628106D01*
X234255834Y-59301309D01*
X234311521Y-59310102D01*
X234295401Y-59390702D01*
X234255834Y-59468371D01*
X234260230Y-59468371D01*
X234460411Y-59236404D01*
X234620870Y-58964597D01*
X234705729Y-58810381D01*
G37*
G36*
X231804124Y-57443110D02*
G01*
X231804124Y-57476815D01*
X231788004Y-57476815D01*
X231788004Y-57443110D01*
X231804124Y-57443110D01*
G37*
G36*
X240034131Y-60312475D02*
G01*
X240331724Y-60312475D01*
X240692650Y-60312475D01*
X241012589Y-60312475D01*
X241354874Y-60312475D01*
X241681082Y-60312475D01*
X241997479Y-60312475D01*
X242019826Y-60312475D01*
X242236713Y-60362300D01*
X242236713Y-60416522D01*
X242081375Y-60416522D01*
X242081375Y-60445831D01*
X242270419Y-60445831D01*
X242270419Y-60498588D01*
X241946988Y-60640039D01*
X241624770Y-60764328D01*
X241346082Y-60864036D01*
X241035657Y-60969308D01*
X240693495Y-61080145D01*
X240319598Y-61196546D01*
X239913964Y-61318511D01*
X239625910Y-61402912D01*
X239323751Y-61489786D01*
X239007487Y-61579133D01*
X238677118Y-61670953D01*
X238373419Y-61699872D01*
X238145775Y-61886049D01*
X238143692Y-61915685D01*
X238019700Y-62191266D01*
X237874414Y-62476520D01*
X237791982Y-62635224D01*
X237825687Y-62635224D01*
X238014731Y-62610311D01*
X238205241Y-62610311D01*
X239153392Y-62875559D01*
X239153392Y-62903403D01*
X239119686Y-62953228D01*
X239181235Y-62953228D01*
X239181235Y-63007450D01*
X238881435Y-63145180D01*
X238555821Y-63291518D01*
X238284805Y-63409163D01*
X237997104Y-63525659D01*
X237761207Y-63595098D01*
X237443587Y-63618282D01*
X237180079Y-63751822D01*
X237158904Y-63832502D01*
X236064208Y-66124477D01*
X236096448Y-66124477D01*
X236419478Y-65987248D01*
X236740139Y-65865821D01*
X237016938Y-65767959D01*
X237324856Y-65664275D01*
X237663892Y-65554769D01*
X238034046Y-65439442D01*
X238435318Y-65318293D01*
X238720120Y-65234292D01*
X239018753Y-65147704D01*
X239331216Y-65058529D01*
X239657509Y-64966766D01*
X239657509Y-65019523D01*
X239497774Y-65097192D01*
X239657509Y-65072279D01*
X239685352Y-65072279D01*
X239685352Y-65097192D01*
X239443428Y-65306208D01*
X239156689Y-65500193D01*
X238899067Y-65655583D01*
X238597439Y-65824997D01*
X238324452Y-65970627D01*
X238177397Y-66046808D01*
X237856805Y-66252453D01*
X237541297Y-66447336D01*
X237230872Y-66631457D01*
X236925530Y-66804816D01*
X236625272Y-66967413D01*
X236330097Y-67119248D01*
X236040005Y-67260321D01*
X235754997Y-67390632D01*
X235457185Y-67528311D01*
X235177045Y-67660528D01*
X234831014Y-67828323D01*
X234516399Y-67986409D01*
X234233200Y-68134787D01*
X233923378Y-68306606D01*
X233662644Y-68463255D01*
X233489400Y-68577652D01*
X233238807Y-68732991D01*
X233206567Y-68732991D01*
X233079072Y-68577652D01*
X232796239Y-68630409D01*
X232647976Y-68363993D01*
X232574955Y-68101379D01*
X232513406Y-68023710D01*
X232661483Y-67728858D01*
X232826097Y-67437710D01*
X233047539Y-67060884D01*
X233226737Y-66762068D01*
X233431191Y-66425174D01*
X233660901Y-66050200D01*
X233915868Y-65637147D01*
X234196091Y-65186015D01*
X234501570Y-64696804D01*
X234663781Y-64437919D01*
X234832305Y-64169515D01*
X235007144Y-63891590D01*
X235188297Y-63604146D01*
X235375764Y-63307182D01*
X235569545Y-63000698D01*
X235769640Y-62684695D01*
X235976049Y-62359171D01*
X236188772Y-62024128D01*
X236331952Y-61746253D01*
X236405660Y-61625524D01*
X236284027Y-61625524D01*
X236190237Y-61625524D01*
X235878026Y-61625524D01*
X235596727Y-61625524D01*
X235320177Y-61523944D01*
X235283119Y-61484840D01*
X235283119Y-61415964D01*
X235344669Y-61415964D01*
X235189330Y-61310451D01*
X235189330Y-61287003D01*
X235189330Y-61156578D01*
X235341738Y-60922105D01*
X235625634Y-60791759D01*
X235908663Y-60707965D01*
X236002659Y-60687632D01*
X236317183Y-60664184D01*
X236637797Y-60634875D01*
X236949725Y-60605200D01*
X237322910Y-60568929D01*
X237757352Y-60526065D01*
X238081012Y-60493825D01*
X238431897Y-60458654D01*
X238810008Y-60420552D01*
X239215344Y-60379519D01*
X239647906Y-60335555D01*
X239874396Y-60312475D01*
X240034131Y-60312475D01*
G37*
G36*
X245366930Y-60265580D02*
G01*
X245429944Y-60343249D01*
X245676141Y-60324198D01*
X245997703Y-60334631D01*
X246293957Y-60349443D01*
X246591445Y-60365929D01*
X246942697Y-60386537D01*
X247241418Y-60404698D01*
X247570382Y-60425177D01*
X247929588Y-60447975D01*
X248056043Y-60456089D01*
X248056043Y-60500053D01*
X247839156Y-60500053D01*
X247839156Y-60520569D01*
X248085352Y-60520569D01*
X248085352Y-60561602D01*
X247995960Y-60608497D01*
X248288529Y-60631858D01*
X248595990Y-60645523D01*
X248888423Y-60649530D01*
X249229874Y-60649530D01*
X249539092Y-60581334D01*
X249837032Y-60501427D01*
X250000705Y-60456089D01*
X249877606Y-60520569D01*
X249877606Y-60541086D01*
X249909847Y-60541086D01*
X250095960Y-60500053D01*
X249877606Y-60690562D01*
X249939156Y-60690562D01*
X250221916Y-60582886D01*
X250342156Y-60561602D01*
X250280607Y-60649530D01*
X250371466Y-60649530D01*
X250119858Y-60862663D01*
X249839138Y-61055828D01*
X249539704Y-61253687D01*
X249271461Y-61427357D01*
X248965789Y-61622690D01*
X248622687Y-61839688D01*
X248373159Y-61996389D01*
X248242156Y-62078350D01*
X245428479Y-63589237D01*
X245742756Y-64060192D01*
X246036758Y-64501461D01*
X246310484Y-64913042D01*
X246563933Y-65294937D01*
X246797107Y-65647145D01*
X247010005Y-65969665D01*
X247202626Y-66262499D01*
X247374972Y-66525646D01*
X247595473Y-66864703D01*
X247770354Y-67136965D01*
X247932561Y-67396076D01*
X248023803Y-67562091D01*
X248826874Y-68935224D01*
X248642226Y-68725664D01*
X248612917Y-68725664D01*
X248612917Y-68746180D01*
X248736015Y-68976257D01*
X248485730Y-68788783D01*
X248259919Y-68568682D01*
X248025177Y-68317625D01*
X247800514Y-68064412D01*
X247653043Y-67893284D01*
X247447512Y-67683540D01*
X247230785Y-67457940D01*
X247029651Y-67240869D01*
X247002380Y-67210381D01*
X246973071Y-67210381D01*
X246973071Y-67230897D01*
X247063929Y-67393563D01*
X247034620Y-67393563D01*
X246788125Y-67197043D01*
X246549553Y-66981037D01*
X246298794Y-66744832D01*
X246064184Y-66519083D01*
X245799348Y-66260636D01*
X245580886Y-66045343D01*
X245343258Y-65816279D01*
X245116720Y-65585212D01*
X244901273Y-65352141D01*
X244696918Y-65117067D01*
X244503654Y-64879989D01*
X244321481Y-64640908D01*
X244251717Y-64544715D01*
X244223873Y-64544715D01*
X244145511Y-64857711D01*
X244060377Y-65144838D01*
X243944286Y-65523052D01*
X243836901Y-65866488D01*
X243712102Y-66261161D01*
X243619229Y-66552741D01*
X243518616Y-66867093D01*
X243410264Y-67204217D01*
X243294172Y-67564113D01*
X243233224Y-67752600D01*
X243200984Y-67956299D01*
X243139435Y-67956299D01*
X243110126Y-67956299D01*
X242953322Y-67853717D01*
X242924013Y-67853717D01*
X242924013Y-67915266D01*
X242891773Y-67915266D01*
X242800914Y-67771651D01*
X242818923Y-67469369D01*
X242849137Y-67125900D01*
X242879648Y-66808608D01*
X242909415Y-66511601D01*
X242943945Y-66176218D01*
X242953322Y-66086375D01*
X242953322Y-66024826D01*
X242924013Y-66024826D01*
X242821939Y-66303442D01*
X242704440Y-66595009D01*
X242593293Y-66866212D01*
X242459463Y-67189865D01*
X242459463Y-66939271D01*
X242459463Y-66918755D01*
X242438946Y-66918755D01*
X242397914Y-67148832D01*
X242336364Y-67148832D01*
X242336364Y-67021337D01*
X242307055Y-66939271D01*
X242350458Y-66647130D01*
X242396036Y-66349562D01*
X242443789Y-66046568D01*
X242493718Y-65738146D01*
X242545822Y-65424298D01*
X242600101Y-65105023D01*
X242656555Y-64780321D01*
X242715185Y-64450193D01*
X242775990Y-64114637D01*
X242838970Y-63773655D01*
X242904126Y-63427246D01*
X242971457Y-63075411D01*
X243040963Y-62718148D01*
X243061407Y-62614708D01*
X244807125Y-62614708D01*
X245106971Y-62490476D01*
X245404385Y-62354993D01*
X245673433Y-62225689D01*
X245970143Y-62077792D01*
X246294512Y-61911302D01*
X246555942Y-61774234D01*
X246832930Y-61626706D01*
X247125478Y-61468720D01*
X246821579Y-61496289D01*
X246523510Y-61513950D01*
X246195428Y-61525581D01*
X245890327Y-61530750D01*
X245674676Y-61531735D01*
X245210126Y-61531735D01*
X245069808Y-61802478D01*
X244969941Y-62091200D01*
X244865699Y-62421168D01*
X244807125Y-62614708D01*
X243061407Y-62614708D01*
X243112644Y-62355459D01*
X243186501Y-61987343D01*
X243262533Y-61613800D01*
X243233224Y-61531735D01*
X242960072Y-61410709D01*
X242953322Y-61402775D01*
X242987027Y-61319244D01*
X242686523Y-61274020D01*
X242417126Y-61119810D01*
X242227819Y-60884650D01*
X242211800Y-60856159D01*
X242211800Y-60781421D01*
X242397914Y-60555740D01*
X242459463Y-60574791D01*
X242746365Y-60503810D01*
X242862463Y-60500053D01*
X243166179Y-60500053D01*
X243294773Y-60500053D01*
X243417872Y-60500053D01*
X243417872Y-60520569D01*
X243722043Y-60428792D01*
X244050717Y-60385973D01*
X244356609Y-60367083D01*
X244650401Y-60359999D01*
X244777816Y-60359369D01*
X244902380Y-60218685D01*
X244930223Y-60218685D01*
X245025478Y-60250925D01*
X245182282Y-60171791D01*
X245366930Y-60265580D01*
G37*
G36*
X255641249Y-60406264D02*
G01*
X255934180Y-60446438D01*
X256224524Y-60552684D01*
X256505411Y-60705080D01*
X256570349Y-60746250D01*
X256536643Y-60794610D01*
X256536643Y-60819523D01*
X256672931Y-60894261D01*
X256639225Y-60967534D01*
X256741807Y-61040807D01*
X256672931Y-61134596D01*
X256741807Y-61159509D01*
X256651998Y-61455995D01*
X256494313Y-61760581D01*
X256306000Y-62049980D01*
X256118101Y-62304786D01*
X255897092Y-62580292D01*
X255642972Y-62876498D01*
X255503496Y-63032363D01*
X255261696Y-63130548D01*
X255191354Y-63130548D01*
X255122477Y-63057276D01*
X255088772Y-63057276D01*
X254949553Y-63155461D01*
X254675513Y-63032363D01*
X254641807Y-62982537D01*
X254572931Y-63007450D01*
X254298891Y-63007450D01*
X254057090Y-62888748D01*
X253851926Y-62520918D01*
X253954508Y-62280583D01*
X254179708Y-62073015D01*
X254228549Y-62009474D01*
X254194843Y-62009474D01*
X253901202Y-62147685D01*
X253625513Y-62291208D01*
X253367776Y-62440043D01*
X253127990Y-62594191D01*
X252853509Y-62744152D01*
X252579423Y-62952361D01*
X252347926Y-63140741D01*
X252077412Y-63368780D01*
X251848921Y-63565835D01*
X251598482Y-63785198D01*
X251510126Y-63863277D01*
X251297413Y-64146882D01*
X251102757Y-64420672D01*
X250926160Y-64684647D01*
X250767620Y-64938808D01*
X250584323Y-65262422D01*
X250433129Y-65568588D01*
X250314038Y-65857306D01*
X250210318Y-66193667D01*
X250172163Y-66382398D01*
X250172163Y-66458602D01*
X250242505Y-66506962D01*
X250172163Y-66556787D01*
X250338859Y-66814124D01*
X250377327Y-66946599D01*
X250447669Y-66971511D01*
X250760584Y-66892131D01*
X251049788Y-66792905D01*
X251368112Y-66676263D01*
X251683050Y-66556787D01*
X251991706Y-66486016D01*
X252301083Y-66403395D01*
X252611182Y-66308925D01*
X252922002Y-66202604D01*
X253233543Y-66084435D01*
X253337551Y-66042412D01*
X253369791Y-66042412D01*
X253267209Y-66136201D01*
X253299449Y-66136201D01*
X253402031Y-66090772D01*
X253440133Y-66090772D01*
X253277848Y-66347775D01*
X253267209Y-66358950D01*
X253402031Y-66309125D01*
X253402031Y-66334038D01*
X253299449Y-66457136D01*
X253337551Y-66457136D01*
X253472373Y-66383863D01*
X253509009Y-66383863D01*
X253359938Y-66638078D01*
X253120634Y-66894226D01*
X252864225Y-67100535D01*
X252550068Y-67308080D01*
X252276553Y-67464550D01*
X251970554Y-67621716D01*
X251632072Y-67779578D01*
X251261107Y-67938135D01*
X250995750Y-68044226D01*
X250707353Y-68121506D01*
X250413534Y-68166586D01*
X250087258Y-68188482D01*
X249931828Y-68190772D01*
X249617170Y-68165119D01*
X249333567Y-68088161D01*
X249034236Y-67928089D01*
X248779624Y-67694136D01*
X248601608Y-67442740D01*
X248454648Y-67140039D01*
X248395915Y-66852167D01*
X248384306Y-66602216D01*
X248384306Y-66410241D01*
X248411805Y-66053624D01*
X248494301Y-65685544D01*
X248631795Y-65306001D01*
X248824286Y-64914994D01*
X248983168Y-64647955D01*
X249166493Y-64375821D01*
X249374262Y-64098592D01*
X249606474Y-63816268D01*
X249863129Y-63528849D01*
X250144228Y-63236336D01*
X250449770Y-62938728D01*
X250779756Y-62636025D01*
X251134184Y-62328228D01*
X251513057Y-62015336D01*
X251817484Y-61821960D01*
X252119670Y-61640253D01*
X252419615Y-61470216D01*
X252717319Y-61311848D01*
X253012782Y-61165149D01*
X253306003Y-61030119D01*
X253596984Y-60906759D01*
X253885723Y-60795068D01*
X254172221Y-60695046D01*
X254456479Y-60606694D01*
X254644738Y-60554275D01*
X254944974Y-60489520D01*
X255242012Y-60438786D01*
X255546498Y-60408576D01*
X255641249Y-60406264D01*
G37*
G36*
X263392052Y-59878699D02*
G01*
X263487306Y-59935852D01*
X263512219Y-59935852D01*
X263515150Y-59899216D01*
X263540063Y-59899216D01*
X263638248Y-59919732D01*
X263742296Y-59899216D01*
X263742296Y-59919732D01*
X263836085Y-60034038D01*
X263836085Y-60073605D01*
X263847809Y-60170325D01*
X263795052Y-60226013D01*
X263856602Y-60322733D01*
X263739170Y-60597632D01*
X263680747Y-60724268D01*
X264237620Y-60309544D01*
X264262533Y-60309544D01*
X264262533Y-60328595D01*
X264118918Y-60485398D01*
X264118918Y-60505915D01*
X264307962Y-60366696D01*
X264331410Y-60366696D01*
X264299170Y-60464882D01*
X264294773Y-60485398D01*
X264410544Y-60583584D01*
X264237459Y-60875745D01*
X264053425Y-61156887D01*
X263858443Y-61427009D01*
X263652514Y-61686112D01*
X263435636Y-61934195D01*
X263207811Y-62171258D01*
X263113615Y-62262998D01*
X262926494Y-62491632D01*
X262741022Y-62723976D01*
X262557199Y-62960029D01*
X262375024Y-63199791D01*
X262194498Y-63443263D01*
X262015621Y-63690445D01*
X261838392Y-63941336D01*
X261662812Y-64195936D01*
X261575091Y-64484974D01*
X261489855Y-64799336D01*
X261387953Y-65197341D01*
X261310759Y-65509146D01*
X261226158Y-65858125D01*
X261134149Y-66244278D01*
X261034732Y-66667607D01*
X260927909Y-67128109D01*
X260813677Y-67625787D01*
X260692039Y-68160638D01*
X260562993Y-68732665D01*
X260495692Y-69032618D01*
X260426539Y-69341865D01*
X260355534Y-69660406D01*
X260282678Y-69988241D01*
X260207970Y-70325369D01*
X260131410Y-70671791D01*
X260131410Y-69640109D01*
X259741598Y-70646878D01*
X259529107Y-69991819D01*
X259930642Y-68645063D01*
X259124641Y-70856438D01*
X259162743Y-70660067D01*
X259165673Y-70655671D01*
X259162743Y-70655671D01*
X258875300Y-70740176D01*
X258771466Y-70774373D01*
X259111452Y-70361114D01*
X259328339Y-69231246D01*
X259381096Y-68957206D01*
X259376699Y-68932293D01*
X259225185Y-69205109D01*
X259162743Y-69345552D01*
X259556951Y-68711009D01*
X259441179Y-68567394D01*
X259485143Y-68391539D01*
X259485143Y-68375419D01*
X259460230Y-68375419D01*
X259285841Y-69037806D01*
X259011800Y-69640109D01*
X259051391Y-69340950D01*
X259052833Y-69279606D01*
X259016197Y-69018755D01*
X259447041Y-66729711D01*
X259504964Y-66411216D01*
X259584290Y-66100687D01*
X259670523Y-65802443D01*
X259776998Y-65459915D01*
X259870138Y-65173958D01*
X259974663Y-64863091D01*
X260090574Y-64527314D01*
X260217872Y-64166627D01*
X259956723Y-63995237D01*
X259705969Y-63824717D01*
X259465611Y-63655068D01*
X259179783Y-63444229D01*
X258910197Y-63234750D01*
X258656855Y-63026631D01*
X258419756Y-62819872D01*
X258156678Y-62563727D01*
X257916990Y-62329453D01*
X257700692Y-62117049D01*
X257448679Y-61867864D01*
X257238248Y-61657559D01*
X257000569Y-61415003D01*
X256819477Y-61215196D01*
X256819477Y-61194680D01*
X256901542Y-61137527D01*
X256848786Y-60968999D01*
X256848786Y-60941156D01*
X257045755Y-60720488D01*
X257059812Y-60687632D01*
X257191703Y-60653926D01*
X257171186Y-60624617D01*
X257254717Y-60583584D01*
X257297216Y-60624617D01*
X257297216Y-60640737D01*
X257402729Y-60640737D01*
X257458416Y-60583584D01*
X257458416Y-60624617D01*
X257499449Y-60702286D01*
X257522896Y-60702286D01*
X257603496Y-60640737D01*
X257730991Y-60661253D01*
X257735387Y-60604100D01*
X257811591Y-60604100D01*
X258065115Y-60583584D01*
X258177955Y-60656857D01*
X258230712Y-60640737D01*
X258283468Y-60640737D01*
X258537908Y-60802304D01*
X258780121Y-61004262D01*
X259040526Y-61234270D01*
X259287180Y-61458668D01*
X259567907Y-61718970D01*
X259643412Y-61789655D01*
X259875235Y-62028845D01*
X260091499Y-62280400D01*
X260292204Y-62544320D01*
X260477349Y-62820604D01*
X260646936Y-63109254D01*
X260700007Y-63208218D01*
X260777676Y-63208218D01*
X260991627Y-62945888D01*
X261180105Y-62702950D01*
X261372652Y-62437021D01*
X261550928Y-62162063D01*
X261693535Y-61894365D01*
X261706776Y-61864394D01*
X261932365Y-61665183D01*
X262039435Y-61610869D01*
X262222726Y-61344327D01*
X262390664Y-61100839D01*
X262590699Y-60812052D01*
X262763439Y-60564253D01*
X262940983Y-60312141D01*
X263117897Y-60066776D01*
X263203008Y-59956368D01*
X263392052Y-59878699D01*
G37*
G36*
X269475164Y-60406264D02*
G01*
X269768095Y-60446438D01*
X270058439Y-60552684D01*
X270339326Y-60705080D01*
X270404264Y-60746250D01*
X270370558Y-60794610D01*
X270370558Y-60819523D01*
X270506846Y-60894261D01*
X270473140Y-60967534D01*
X270575722Y-61040807D01*
X270506846Y-61134596D01*
X270575722Y-61159509D01*
X270485913Y-61455995D01*
X270328228Y-61760581D01*
X270139915Y-62049980D01*
X269952016Y-62304786D01*
X269731007Y-62580292D01*
X269476887Y-62876498D01*
X269337411Y-63032363D01*
X269095611Y-63130548D01*
X269025269Y-63130548D01*
X268956392Y-63057276D01*
X268922687Y-63057276D01*
X268783468Y-63155461D01*
X268509428Y-63032363D01*
X268475722Y-62982537D01*
X268406846Y-63007450D01*
X268132805Y-63007450D01*
X267891005Y-62888748D01*
X267685841Y-62520918D01*
X267788423Y-62280583D01*
X268013622Y-62073015D01*
X268062463Y-62009474D01*
X268028758Y-62009474D01*
X267735117Y-62147685D01*
X267459428Y-62291208D01*
X267201691Y-62440043D01*
X266961905Y-62594191D01*
X266687424Y-62744152D01*
X266413338Y-62952361D01*
X266181841Y-63140741D01*
X265911327Y-63368780D01*
X265682836Y-63565835D01*
X265432397Y-63785198D01*
X265344041Y-63863277D01*
X265131327Y-64146882D01*
X264936672Y-64420672D01*
X264760074Y-64684647D01*
X264601535Y-64938808D01*
X264418238Y-65262422D01*
X264267044Y-65568588D01*
X264147953Y-65857306D01*
X264044233Y-66193667D01*
X264006078Y-66382398D01*
X264006078Y-66458602D01*
X264076420Y-66506962D01*
X264006078Y-66556787D01*
X264172774Y-66814124D01*
X264211242Y-66946599D01*
X264281584Y-66971511D01*
X264594499Y-66892131D01*
X264883702Y-66792905D01*
X265202027Y-66676263D01*
X265516964Y-66556787D01*
X265825621Y-66486016D01*
X266134998Y-66403395D01*
X266445097Y-66308925D01*
X266755917Y-66202604D01*
X267067458Y-66084435D01*
X267171466Y-66042412D01*
X267203706Y-66042412D01*
X267101124Y-66136201D01*
X267133364Y-66136201D01*
X267235946Y-66090772D01*
X267274048Y-66090772D01*
X267111762Y-66347775D01*
X267101124Y-66358950D01*
X267235946Y-66309125D01*
X267235946Y-66334038D01*
X267133364Y-66457136D01*
X267171466Y-66457136D01*
X267306288Y-66383863D01*
X267342924Y-66383863D01*
X267193852Y-66638078D01*
X266954549Y-66894226D01*
X266698140Y-67100535D01*
X266383983Y-67308080D01*
X266110467Y-67464550D01*
X265804469Y-67621716D01*
X265465987Y-67779578D01*
X265095022Y-67938135D01*
X264829665Y-68044226D01*
X264541268Y-68121506D01*
X264247449Y-68166586D01*
X263921173Y-68188482D01*
X263765743Y-68190772D01*
X263451085Y-68165119D01*
X263167482Y-68088161D01*
X262868151Y-67928089D01*
X262613539Y-67694136D01*
X262435523Y-67442740D01*
X262288563Y-67140039D01*
X262229830Y-66852167D01*
X262218221Y-66602216D01*
X262218221Y-66410241D01*
X262245719Y-66053624D01*
X262328216Y-65685544D01*
X262465710Y-65306001D01*
X262658201Y-64914994D01*
X262817083Y-64647955D01*
X263000408Y-64375821D01*
X263208177Y-64098592D01*
X263440389Y-63816268D01*
X263697044Y-63528849D01*
X263978143Y-63236336D01*
X264283685Y-62938728D01*
X264613670Y-62636025D01*
X264968099Y-62328228D01*
X265346971Y-62015336D01*
X265651399Y-61821960D01*
X265953585Y-61640253D01*
X266253530Y-61470216D01*
X266551234Y-61311848D01*
X266846696Y-61165149D01*
X267139918Y-61030119D01*
X267430899Y-60906759D01*
X267719638Y-60795068D01*
X268006136Y-60695046D01*
X268290394Y-60606694D01*
X268478653Y-60554275D01*
X268778889Y-60489520D01*
X269075927Y-60438786D01*
X269380413Y-60408576D01*
X269475164Y-60406264D01*
G37*
G36*
X271696797Y-59957834D02*
G01*
X271749553Y-59957834D01*
X272014504Y-60084298D01*
X272049972Y-60114638D01*
X272129107Y-60114638D01*
X272177467Y-60078001D01*
X272227292Y-60078001D01*
X272379700Y-60189376D01*
X272605380Y-60078001D01*
X272659602Y-60078001D01*
X272757788Y-60078001D01*
X272885283Y-60151274D01*
X273036225Y-60094121D01*
X273234757Y-60312824D01*
X273261905Y-60372558D01*
X273261905Y-60442900D01*
X273210540Y-60769709D01*
X273119223Y-61085698D01*
X273020773Y-61374201D01*
X272896640Y-61706857D01*
X272746824Y-62083665D01*
X272632679Y-62359400D01*
X272507119Y-62654759D01*
X272370144Y-62969740D01*
X272221755Y-63304345D01*
X272061952Y-63658574D01*
X271890734Y-64032426D01*
X271800844Y-64226710D01*
X271593734Y-64535899D01*
X271414239Y-64809871D01*
X271228702Y-65102812D01*
X271063014Y-65381707D01*
X270930981Y-65651478D01*
X270917174Y-65714149D01*
X270788686Y-65981610D01*
X270691493Y-66209474D01*
X270716406Y-66209474D01*
X270987816Y-66082620D01*
X271275398Y-65960346D01*
X271579151Y-65842652D01*
X271899076Y-65729537D01*
X272235172Y-65621001D01*
X272587440Y-65517045D01*
X272732875Y-65476745D01*
X272628828Y-65550018D01*
X272658137Y-65550018D01*
X272781235Y-65511916D01*
X272781235Y-65529502D01*
X272541002Y-65733081D01*
X272296110Y-65909371D01*
X272099798Y-66046808D01*
X272129107Y-66046808D01*
X273790935Y-65476745D01*
X273663440Y-65567604D01*
X273688353Y-65567604D01*
X273815848Y-65530967D01*
X273815848Y-65551484D01*
X273590388Y-65745400D01*
X273590168Y-65752251D01*
X273249260Y-65961256D01*
X272923362Y-66159259D01*
X272612473Y-66346259D01*
X272316594Y-66522257D01*
X272035724Y-66687253D01*
X271769864Y-66841246D01*
X271399216Y-67051606D01*
X271062340Y-67237211D01*
X270759235Y-67398061D01*
X270489901Y-67534155D01*
X270183323Y-67677106D01*
X269936783Y-67776047D01*
X269653160Y-67883718D01*
X269432059Y-68078899D01*
X269412149Y-68108706D01*
X269309567Y-68190772D01*
X269182073Y-67972419D01*
X269182073Y-67846389D01*
X268984236Y-67883026D01*
X268760240Y-67687955D01*
X268760021Y-67682258D01*
X268760021Y-67551832D01*
X268988999Y-67358311D01*
X269135178Y-67260207D01*
X269302544Y-67003168D01*
X269388702Y-66929013D01*
X269513541Y-66628045D01*
X269616013Y-66315711D01*
X269698822Y-66011606D01*
X269776995Y-65673909D01*
X269838597Y-65366836D01*
X269905847Y-65012948D01*
X270004662Y-64648393D01*
X270107595Y-64297499D01*
X270235231Y-63880196D01*
X270334046Y-63565099D01*
X270443841Y-63220488D01*
X270564615Y-62846361D01*
X270696369Y-62442720D01*
X270839102Y-62009563D01*
X270992815Y-61546890D01*
X271157507Y-61054703D01*
X271243971Y-60797541D01*
X271353632Y-60519566D01*
X271461477Y-60207213D01*
X271520942Y-60031107D01*
X271696797Y-59957834D01*
G37*
G36*
X280011800Y-60312475D02*
G01*
X280309393Y-60312475D01*
X280670319Y-60312475D01*
X280990258Y-60312475D01*
X281332544Y-60312475D01*
X281658751Y-60312475D01*
X281975148Y-60312475D01*
X281997495Y-60312475D01*
X282214382Y-60362300D01*
X282214382Y-60416522D01*
X282059044Y-60416522D01*
X282059044Y-60445831D01*
X282248088Y-60445831D01*
X282248088Y-60498588D01*
X281924657Y-60640039D01*
X281602440Y-60764328D01*
X281323751Y-60864036D01*
X281013326Y-60969308D01*
X280671165Y-61080145D01*
X280297267Y-61196546D01*
X279891633Y-61318511D01*
X279603579Y-61402912D01*
X279301420Y-61489786D01*
X278985156Y-61579133D01*
X278654787Y-61670953D01*
X278351088Y-61699872D01*
X278123445Y-61886049D01*
X278121361Y-61915685D01*
X277997369Y-62191266D01*
X277852083Y-62476520D01*
X277769651Y-62635224D01*
X277803357Y-62635224D01*
X277992401Y-62610311D01*
X278182910Y-62610311D01*
X279131061Y-62875559D01*
X279131061Y-62903403D01*
X279097355Y-62953228D01*
X279158904Y-62953228D01*
X279158904Y-63007450D01*
X278859104Y-63145180D01*
X278533491Y-63291518D01*
X278262474Y-63409163D01*
X277974774Y-63525659D01*
X277738877Y-63595098D01*
X277421256Y-63618282D01*
X277157748Y-63751822D01*
X277136574Y-63832502D01*
X276041877Y-66124477D01*
X276074117Y-66124477D01*
X276397148Y-65987248D01*
X276717808Y-65865821D01*
X276994608Y-65767959D01*
X277302525Y-65664275D01*
X277641561Y-65554769D01*
X278011715Y-65439442D01*
X278412987Y-65318293D01*
X278697789Y-65234292D01*
X278996422Y-65147704D01*
X279308885Y-65058529D01*
X279635178Y-64966766D01*
X279635178Y-65019523D01*
X279475443Y-65097192D01*
X279635178Y-65072279D01*
X279663022Y-65072279D01*
X279663022Y-65097192D01*
X279421097Y-65306208D01*
X279134358Y-65500193D01*
X278876737Y-65655583D01*
X278575109Y-65824997D01*
X278302122Y-65970627D01*
X278155066Y-66046808D01*
X277834475Y-66252453D01*
X277518966Y-66447336D01*
X277208541Y-66631457D01*
X276903200Y-66804816D01*
X276602941Y-66967413D01*
X276307766Y-67119248D01*
X276017674Y-67260321D01*
X275732666Y-67390632D01*
X275434855Y-67528311D01*
X275154715Y-67660528D01*
X274808684Y-67828323D01*
X274494068Y-67986409D01*
X274210869Y-68134787D01*
X273901048Y-68306606D01*
X273640314Y-68463255D01*
X273467069Y-68577652D01*
X273216476Y-68732991D01*
X273184236Y-68732991D01*
X273056741Y-68577652D01*
X272773908Y-68630409D01*
X272625645Y-68363993D01*
X272552624Y-68101379D01*
X272491075Y-68023710D01*
X272639152Y-67728858D01*
X272803767Y-67437710D01*
X273025208Y-67060884D01*
X273204406Y-66762068D01*
X273408860Y-66425174D01*
X273638571Y-66050200D01*
X273893537Y-65637147D01*
X274173760Y-65186015D01*
X274479239Y-64696804D01*
X274641450Y-64437919D01*
X274809975Y-64169515D01*
X274984813Y-63891590D01*
X275165966Y-63604146D01*
X275353433Y-63307182D01*
X275547214Y-63000698D01*
X275747309Y-62684695D01*
X275953718Y-62359171D01*
X276166441Y-62024128D01*
X276309621Y-61746253D01*
X276383329Y-61625524D01*
X276261696Y-61625524D01*
X276167907Y-61625524D01*
X275855696Y-61625524D01*
X275574396Y-61625524D01*
X275297846Y-61523944D01*
X275260789Y-61484840D01*
X275260789Y-61415964D01*
X275322338Y-61415964D01*
X275166999Y-61310451D01*
X275166999Y-61287003D01*
X275166999Y-61156578D01*
X275319407Y-60922105D01*
X275603303Y-60791759D01*
X275886333Y-60707965D01*
X275980328Y-60687632D01*
X276294852Y-60664184D01*
X276615466Y-60634875D01*
X276927394Y-60605200D01*
X277300579Y-60568929D01*
X277735021Y-60526065D01*
X278058681Y-60493825D01*
X278409566Y-60458654D01*
X278787677Y-60420552D01*
X279193014Y-60379519D01*
X279625575Y-60335555D01*
X279852066Y-60312475D01*
X280011800Y-60312475D01*
G37*
G36*
X285344599Y-60265580D02*
G01*
X285407613Y-60343249D01*
X285653810Y-60324198D01*
X285975372Y-60334631D01*
X286271626Y-60349443D01*
X286569114Y-60365929D01*
X286920366Y-60386537D01*
X287219087Y-60404698D01*
X287548051Y-60425177D01*
X287907257Y-60447975D01*
X288033713Y-60456089D01*
X288033713Y-60500053D01*
X287816825Y-60500053D01*
X287816825Y-60520569D01*
X288063022Y-60520569D01*
X288063022Y-60561602D01*
X287973629Y-60608497D01*
X288266198Y-60631858D01*
X288573659Y-60645523D01*
X288866092Y-60649530D01*
X289207544Y-60649530D01*
X289516761Y-60581334D01*
X289814701Y-60501427D01*
X289978374Y-60456089D01*
X289855276Y-60520569D01*
X289855276Y-60541086D01*
X289887516Y-60541086D01*
X290073629Y-60500053D01*
X289855276Y-60690562D01*
X289916825Y-60690562D01*
X290199585Y-60582886D01*
X290319826Y-60561602D01*
X290258276Y-60649530D01*
X290349135Y-60649530D01*
X290097527Y-60862663D01*
X289816807Y-61055828D01*
X289517373Y-61253687D01*
X289249130Y-61427357D01*
X288943458Y-61622690D01*
X288600356Y-61839688D01*
X288350828Y-61996389D01*
X288219826Y-62078350D01*
X285406148Y-63589237D01*
X285720426Y-64060192D01*
X286014427Y-64501461D01*
X286288153Y-64913042D01*
X286541602Y-65294937D01*
X286774776Y-65647145D01*
X286987674Y-65969665D01*
X287180296Y-66262499D01*
X287352641Y-66525646D01*
X287573143Y-66864703D01*
X287748023Y-67136965D01*
X287910231Y-67396076D01*
X288001473Y-67562091D01*
X288804543Y-68935224D01*
X288619895Y-68725664D01*
X288590586Y-68725664D01*
X288590586Y-68746180D01*
X288713685Y-68976257D01*
X288463399Y-68788783D01*
X288237589Y-68568682D01*
X288002846Y-68317625D01*
X287778183Y-68064412D01*
X287630712Y-67893284D01*
X287425182Y-67683540D01*
X287208454Y-67457940D01*
X287007320Y-67240869D01*
X286980049Y-67210381D01*
X286950740Y-67210381D01*
X286950740Y-67230897D01*
X287041598Y-67393563D01*
X287012289Y-67393563D01*
X286765795Y-67197043D01*
X286527223Y-66981037D01*
X286276464Y-66744832D01*
X286041853Y-66519083D01*
X285777017Y-66260636D01*
X285558556Y-66045343D01*
X285320927Y-65816279D01*
X285094389Y-65585212D01*
X284878943Y-65352141D01*
X284674587Y-65117067D01*
X284481323Y-64879989D01*
X284299150Y-64640908D01*
X284229386Y-64544715D01*
X284201542Y-64544715D01*
X284123180Y-64857711D01*
X284038047Y-65144838D01*
X283921955Y-65523052D01*
X283814570Y-65866488D01*
X283689771Y-66261161D01*
X283596898Y-66552741D01*
X283496285Y-66867093D01*
X283387933Y-67204217D01*
X283271841Y-67564113D01*
X283210893Y-67752600D01*
X283178653Y-67956299D01*
X283117104Y-67956299D01*
X283087795Y-67956299D01*
X282930991Y-67853717D01*
X282901682Y-67853717D01*
X282901682Y-67915266D01*
X282869442Y-67915266D01*
X282778583Y-67771651D01*
X282796593Y-67469369D01*
X282826806Y-67125900D01*
X282857317Y-66808608D01*
X282887085Y-66511601D01*
X282921614Y-66176218D01*
X282930991Y-66086375D01*
X282930991Y-66024826D01*
X282901682Y-66024826D01*
X282799608Y-66303442D01*
X282682109Y-66595009D01*
X282570962Y-66866212D01*
X282437132Y-67189865D01*
X282437132Y-66939271D01*
X282437132Y-66918755D01*
X282416616Y-66918755D01*
X282375583Y-67148832D01*
X282314034Y-67148832D01*
X282314034Y-67021337D01*
X282284724Y-66939271D01*
X282328127Y-66647130D01*
X282373705Y-66349562D01*
X282421458Y-66046568D01*
X282471387Y-65738146D01*
X282523491Y-65424298D01*
X282577770Y-65105023D01*
X282634224Y-64780321D01*
X282692854Y-64450193D01*
X282753659Y-64114637D01*
X282816640Y-63773655D01*
X282881795Y-63427246D01*
X282949126Y-63075411D01*
X283018632Y-62718148D01*
X283039076Y-62614708D01*
X284784794Y-62614708D01*
X285084640Y-62490476D01*
X285382054Y-62354993D01*
X285651103Y-62225689D01*
X285947812Y-62077792D01*
X286272182Y-61911302D01*
X286533611Y-61774234D01*
X286810600Y-61626706D01*
X287103147Y-61468720D01*
X286799248Y-61496289D01*
X286501179Y-61513950D01*
X286173097Y-61525581D01*
X285867996Y-61530750D01*
X285652345Y-61531735D01*
X285187795Y-61531735D01*
X285047477Y-61802478D01*
X284947610Y-62091200D01*
X284843368Y-62421168D01*
X284784794Y-62614708D01*
X283039076Y-62614708D01*
X283090314Y-62355459D01*
X283164170Y-61987343D01*
X283240202Y-61613800D01*
X283210893Y-61531735D01*
X282937742Y-61410709D01*
X282930991Y-61402775D01*
X282964697Y-61319244D01*
X282664192Y-61274020D01*
X282394795Y-61119810D01*
X282205488Y-60884650D01*
X282189470Y-60856159D01*
X282189470Y-60781421D01*
X282375583Y-60555740D01*
X282437132Y-60574791D01*
X282724034Y-60503810D01*
X282840133Y-60500053D01*
X283143849Y-60500053D01*
X283272442Y-60500053D01*
X283395541Y-60500053D01*
X283395541Y-60520569D01*
X283699712Y-60428792D01*
X284028387Y-60385973D01*
X284334278Y-60367083D01*
X284628070Y-60359999D01*
X284755485Y-60359369D01*
X284880049Y-60218685D01*
X284907893Y-60218685D01*
X285003147Y-60250925D01*
X285159951Y-60171791D01*
X285344599Y-60265580D01*
G37*
M02*
