M48
; DRILL file {KiCad 7.0.8} date Mon Feb 12 22:40:21 2024
; FORMAT={-:-/ absolute / metric / decimal}
; #@! TF.CreationDate,2024-02-12T22:40:21+01:00
; #@! TF.GenerationSoftware,Kicad,Pcbnew,7.0.8
; #@! TF.FileFunction,Plated,1,2,PTH
FMAT,2
METRIC
; #@! TA.AperFunction,Plated,PTH,ViaDrill
T1C0.300
; #@! TA.AperFunction,Plated,PTH,ViaDrill
T2C0.400
; #@! TA.AperFunction,Plated,PTH,ViaDrill
T3C0.600
; #@! TA.AperFunction,Plated,PTH,ComponentDrill
T4C0.800
; #@! TA.AperFunction,Plated,PTH,ComponentDrill
T5C0.850
; #@! TA.AperFunction,Plated,PTH,ComponentDrill
T6C0.950
; #@! TA.AperFunction,Plated,PTH,ComponentDrill
T7C1.000
; #@! TA.AperFunction,Plated,PTH,ComponentDrill
T8C1.100
; #@! TA.AperFunction,Plated,PTH,ComponentDrill
T9C1.200
; #@! TA.AperFunction,Plated,PTH,ComponentDrill
T10C1.400
; #@! TA.AperFunction,Plated,PTH,ComponentDrill
T11C1.500
; #@! TA.AperFunction,Plated,PTH,ComponentDrill
T12C1.550
; #@! TA.AperFunction,Plated,PTH,ComponentDrill
T13C2.300
; #@! TA.AperFunction,Plated,PTH,ComponentDrill
T14C3.048
%
G90
G05
T1
X50.322Y-126.105
X50.322Y-129.28
X50.322Y-132.455
X50.322Y-135.63
X53.339Y-124.517
X53.339Y-127.692
X53.339Y-130.868
X53.339Y-134.042
X56.355Y-134.042
X57.625Y-113.722
X57.625Y-130.868
X58.895Y-113.722
X58.895Y-127.692
X60.165Y-114.539
X60.165Y-124.517
X60.48Y-103.595
X61.435Y-115.809
X61.435Y-134.042
X62.204Y-106.93
X62.705Y-130.868
X63.805Y-104.076
X63.975Y-127.692
X65.004Y-106.77
X65.245Y-124.517
X66.115Y-106.77
X66.662Y-104.071
X67.15Y-108.089
X67.697Y-97.611
X68.248Y-138.939
X69.531Y-124.517
X69.531Y-127.692
X69.531Y-130.868
X69.531Y-134.042
X69.889Y-98.442
X69.92Y-108.565
X70.739Y-98.442
X72.255Y-111.056
X72.547Y-122.93
X72.547Y-126.105
X72.547Y-129.28
X72.547Y-132.455
X73.5Y-146.107
X74.841Y-108.882
X75.235Y-95.071
X75.815Y-110.936
X77.31Y-55.302
X78.175Y-95.071
X78.421Y-96.73
X79.85Y-109.041
X79.88Y-120.105
X81.329Y-121.405
X81.579Y-124.805
X82.07Y-99.155
X82.938Y-109.041
X83.414Y-93.484
X84.486Y-127.305
X84.82Y-111.055
X85.32Y-123.805
X85.831Y-111.999
X85.831Y-113.269
X85.831Y-114.539
X85.831Y-115.809
X86.2Y-121.805
X87.07Y-128.805
X88.52Y-132.055
X88.52Y-135.055
X88.57Y-128.885
X89.82Y-120.555
X89.82Y-122.805
X89.82Y-124.805
X90.32Y-105.585
X91.07Y-110.123
X92.07Y-99.155
X92.181Y-133.012
X93.57Y-110.555
X93.57Y-124.805
X93.57Y-128.916
X93.579Y-97.855
X94.526Y-131.743
X94.721Y-118.055
X94.82Y-105.585
X95.07Y-139.555
X96.36Y-95.307
X96.626Y-118.055
X97.251Y-72.017
X97.57Y-119.305
X97.63Y-101.657
X98.32Y-127.555
X98.852Y-75.069
X99.07Y-110.748
X100.17Y-107.372
X100.77Y-136.305
X100.805Y-102.927
X102.07Y-134.795
X102.57Y-113.305
X102.57Y-120.305
X102.57Y-122.805
X103.98Y-99.752
X105.689Y-130.284
X106.203Y-123.605
X107.155Y-108.642
X107.631Y-98.124
X109.608Y-99.992
X109.795Y-134.805
X110.489Y-118.249
X110.965Y-105.468
X110.975Y-103.126
X111.234Y-120.305
X112.07Y-135.805
X112.076Y-145.236
X112.235Y-120.225
X113.505Y-116.841
X113.505Y-120.225
X114.299Y-138.251
X115.093Y-139.521
X116.07Y-142.061
X116.434Y-95.547
X116.434Y-98.405
X117.545Y-137.24
X118.32Y-124.355
X120.07Y-128.305
X121.55Y-137.24
X121.685Y-103.167
X121.76Y-99.516
X121.812Y-118.867
X122.907Y-133.806
X123.665Y-132.854
X124.57Y-135.305
X124.659Y-124.414
X124.935Y-99.516
X125.065Y-103.167
X125.57Y-147.141
X125.72Y-130.755
X125.729Y-143.331
X126.262Y-118.858
X126.681Y-102.691
X126.84Y-108.406
X127.316Y-103.485
X127.44Y-148.411
X127.965Y-104.279
X127.965Y-113.962
X128.326Y-107.454
X128.615Y-113.169
X129.062Y-97.453
X129.095Y-143.331
X132.88Y-133.575
X133.512Y-114.057
X133.666Y-89.832
X134.142Y-98.087
X134.142Y-105.826
X135.971Y-138.442
X136.841Y-99.754
X137.635Y-124.281
X137.635Y-128.885
X137.743Y-117.297
X138.905Y-121.741
X138.905Y-132.536
X139.58Y-94.277
X139.58Y-96.817
X140.175Y-117.614
X140.175Y-124.916
X140.175Y-128.885
X140.651Y-104.001
X141.286Y-117.772
X141.445Y-122.694
X141.445Y-132.536
X141.445Y-140.95
X142.08Y-103.009
X142.397Y-86.34
X142.397Y-90.468
X142.397Y-98.087
X142.715Y-124.281
X142.715Y-128.885
X142.715Y-140.156
X142.766Y-107.341
X143.337Y-89.578
X144.62Y-117.256
X145.255Y-112.951
X145.572Y-103.485
X145.731Y-129.044
X146.207Y-86.022
X146.843Y-133.806
X147.636Y-124.281
X147.795Y-108.803
X147.795Y-117.256
X148.112Y-103.485
X148.748Y-86.022
X150.017Y-133.806
X150.017Y-138.251
X150.653Y-117.256
X152.558Y-86.34
X152.558Y-90.468
X152.558Y-98.087
X152.558Y-105.826
X153.034Y-129.044
X153.51Y-108.565
X153.51Y-117.256
X153.986Y-120.709
X154.78Y-133.806
X155.375Y-94.277
X155.375Y-96.817
X155.415Y-117.614
X155.415Y-120.789
X156.05Y-124.916
X156.05Y-128.885
X157.32Y-121.741
X157.32Y-132.536
X158.59Y-117.614
X158.59Y-124.916
X158.59Y-128.885
X158.907Y-99.675
X158.907Y-142.22
X159.066Y-104.001
X159.384Y-82.212
X159.701Y-117.772
X159.86Y-122.694
X159.86Y-132.536
X159.86Y-140.95
X160.495Y-103.009
X160.812Y-98.087
X161.13Y-124.916
X161.13Y-128.885
X161.13Y-140.156
X161.236Y-107.331
X161.447Y-89.991
X163.035Y-117.256
X163.67Y-112.951
X164.146Y-129.202
X165.257Y-133.806
X166.21Y-108.803
X166.21Y-117.256
X168.433Y-133.806
X168.433Y-138.093
X168.433Y-142.168
X169.067Y-117.256
X170.338Y-89.991
X170.972Y-98.087
X170.972Y-105.826
X171.449Y-129.044
X171.925Y-117.256
X172.56Y-82.212
X172.877Y-99.675
X173.195Y-133.806
X173.83Y-117.614
X173.83Y-120.789
X174.156Y-142.141
X174.465Y-124.916
X174.465Y-128.885
X175.735Y-121.741
X175.735Y-132.536
X176.37Y-66.536
X176.41Y-94.277
X176.41Y-96.817
X176.688Y-143.49
X177.005Y-117.614
X177.005Y-124.916
X177.005Y-128.885
X177.481Y-104.001
X177.957Y-69.671
X178.116Y-117.772
X178.275Y-122.694
X178.275Y-132.536
X178.275Y-140.95
X178.91Y-103.009
X179.227Y-72.806
X179.227Y-86.34
X179.227Y-90.468
X179.227Y-98.087
X179.545Y-66.536
X179.545Y-69.671
X179.545Y-124.916
X179.545Y-128.885
X179.545Y-140.156
X179.616Y-107.341
X180.18Y-89.594
X181.45Y-117.256
X182.085Y-112.951
X182.403Y-103.483
X182.561Y-129.044
X183.672Y-94.436
X183.672Y-133.806
X184.625Y-108.803
X184.625Y-117.256
X184.942Y-103.483
X185.022Y-99.596
X186.847Y-70.509
X186.847Y-74.116
X186.847Y-133.806
X186.847Y-138.093
X186.847Y-142.22
X187.482Y-117.256
X188.117Y-65.067
X188.117Y-68.719
X188.117Y-88.245
X189.07Y-123.805
X189.387Y-73.481
X189.387Y-86.34
X189.387Y-90.468
X189.387Y-98.087
X189.387Y-105.826
X189.864Y-129.044
X190.34Y-117.256
X191.292Y-69.671
X191.292Y-83.8
X191.61Y-133.806
X192.205Y-94.277
X192.205Y-96.817
X192.245Y-117.614
X192.245Y-120.789
X192.88Y-124.916
X192.88Y-128.885
X193.356Y-69.671
X193.356Y-142.22
X193.515Y-89.674
X194.15Y-121.741
X194.15Y-132.536
X194.15Y-144.76
X195.42Y-117.614
X195.42Y-124.916
X195.42Y-128.885
X195.737Y-99.675
X195.896Y-104.001
X196.055Y-82.212
X196.531Y-117.772
X196.69Y-122.694
X196.69Y-132.536
X196.69Y-140.95
X197.325Y-103.009
X197.642Y-98.087
X197.96Y-124.916
X197.96Y-128.885
X197.96Y-140.156
X198.056Y-107.341
X198.278Y-89.832
X199.865Y-117.256
X200.5Y-112.951
X200.976Y-129.044
X202.087Y-133.806
X203.04Y-108.803
X203.04Y-117.256
X205.262Y-133.806
X205.262Y-138.251
X205.262Y-142.22
X205.897Y-117.256
X207.167Y-89.832
X207.802Y-98.087
X207.802Y-105.826
X208.755Y-117.256
X209.39Y-82.054
X209.707Y-99.675
X210.025Y-133.806
X210.66Y-117.614
X210.66Y-120.789
X211.096Y-143.491
X211.295Y-124.916
X211.454Y-128.885
X211.612Y-146.03
X212.565Y-121.741
X212.565Y-132.536
X213.24Y-94.277
X213.24Y-96.817
X213.835Y-117.614
X213.835Y-124.916
X213.835Y-128.885
X214.311Y-104.001
X214.946Y-117.772
X215.105Y-122.694
X215.105Y-132.536
X215.105Y-140.95
X215.74Y-102.85
X216.057Y-86.34
X216.057Y-90.468
X216.057Y-98.087
X216.216Y-128.885
X216.375Y-124.916
X216.375Y-140.156
X216.446Y-107.321
X216.972Y-89.578
X218.28Y-117.256
X218.915Y-112.951
X219.232Y-103.483
X219.391Y-129.044
X220.502Y-133.806
X221.455Y-108.803
X221.455Y-117.256
X221.772Y-103.483
X223.677Y-133.806
X223.677Y-138.093
X223.677Y-142.22
X224.312Y-117.256
X225.125Y-100.196
X226.218Y-86.34
X226.218Y-90.468
X226.218Y-98.087
X226.218Y-105.826
X226.376Y-124.916
X226.694Y-129.044
X227.17Y-117.256
X227.335Y-100.196
X228.44Y-133.806
X228.736Y-144.771
X229.035Y-94.277
X229.035Y-96.817
X229.075Y-117.614
X229.075Y-120.789
X229.71Y-124.916
X229.71Y-128.885
X229.869Y-104.001
X230.136Y-146.471
X230.98Y-121.741
X230.98Y-132.536
X232.25Y-117.614
X232.25Y-124.916
X232.25Y-128.885
X232.726Y-104.001
X233.361Y-118.169
X233.52Y-122.694
X233.52Y-132.536
X233.52Y-140.95
X234.631Y-89.832
X234.79Y-122.376
X234.79Y-124.916
X234.79Y-128.885
X234.79Y-140.156
X234.886Y-107.321
X234.949Y-95.071
X234.949Y-96.024
X236.06Y-119.201
X236.695Y-117.256
X237.33Y-112.951
X237.409Y-104.755
X237.806Y-129.044
X238.124Y-87.292
X238.124Y-93.007
X238.917Y-133.806
X238.917Y-139.362
X238.917Y-140.95
X239.87Y-108.803
X239.87Y-117.256
X240.667Y-88.519
X240.981Y-97.294
X242.093Y-133.806
X242.45Y-91.42
X242.727Y-117.256
X243.362Y-104.755
X243.998Y-110.787
X244.95Y-99.358
X245.416Y-109.674
X246.22Y-91.102
X246.22Y-105.861
X247.952Y-114.28
X248.601Y-115.074
X249.077Y-96.262
X249.077Y-108.724
X249.252Y-115.867
X249.776Y-93.426
X249.871Y-88.56
X249.871Y-101.104
X249.952Y-116.661
X250.824Y-89.832
X251.3Y-87.292
X252.376Y-105.861
X256.42Y-91.42
X258.245Y-75.862
X258.245Y-91.42
X259.238Y-68.242
X259.238Y-71.417
X259.714Y-79.037
T2
X55.074Y-69.146
X55.074Y-70.575
T3
X120.093Y-131.055
X120.093Y-135.868
X120.172Y-99.358
X120.172Y-101.262
X120.172Y-103.167
X121.272Y-88.245
X123.177Y-88.245
X125.082Y-88.245
X134.142Y-119.201
X136.047Y-119.201
X137.635Y-136.346
X137.952Y-119.201
X139.54Y-136.346
X141.445Y-136.346
T4
X106.899Y-85.874
X106.899Y-93.494
X109.439Y-85.874
X109.439Y-93.494
X111.979Y-85.874
X111.979Y-93.494
X114.519Y-85.874
X114.519Y-93.494
T5
X52.534Y-76.165
X52.534Y-84.585
X55.074Y-76.165
X55.074Y-84.585
X60.154Y-76.165
X65.234Y-76.165
X67.774Y-84.585
X72.854Y-84.585
X75.394Y-84.585
T6
X63.892Y-61.26
X63.892Y-63.26
X66.392Y-61.26
X66.392Y-63.26
T7
X62.07Y-141.78
X62.07Y-144.32
X64.61Y-141.78
X64.61Y-144.32
X67.15Y-141.78
X67.15Y-144.32
X69.69Y-141.78
X69.69Y-144.32
X72.23Y-141.78
X72.23Y-144.32
X74.77Y-141.78
X74.77Y-144.32
X77.31Y-141.78
X77.31Y-144.32
X79.85Y-141.78
X79.85Y-144.32
X82.39Y-141.78
X82.39Y-144.32
X84.93Y-141.78
X84.93Y-144.32
X87.47Y-141.78
X87.47Y-144.32
X90.01Y-141.78
X90.01Y-144.32
X92.55Y-141.78
X92.55Y-144.32
X95.09Y-141.78
X95.09Y-144.32
X97.63Y-141.78
X97.63Y-144.32
X100.17Y-141.78
X100.17Y-144.32
X102.71Y-141.78
X102.71Y-144.32
X105.25Y-141.78
X105.25Y-144.32
X107.79Y-141.78
X107.79Y-144.32
X110.33Y-141.78
X110.33Y-144.32
X113.295Y-101.68
X113.295Y-104.22
X113.295Y-106.76
X113.295Y-109.3
X113.295Y-111.84
X113.295Y-114.38
T8
X50.295Y-95.985
X50.295Y-102.485
X54.795Y-95.985
X54.795Y-102.485
T9
X160.142Y-57.21
X160.142Y-62.21
X165.142Y-57.21
X165.142Y-62.21
X170.142Y-57.21
X170.142Y-62.21
T10
X106.027Y-57.765
X106.027Y-64.115
X106.027Y-70.465
X122.257Y-57.765
X122.257Y-64.115
X122.257Y-70.465
X200.028Y-57.765
X200.028Y-64.115
X200.028Y-70.465
X216.257Y-57.765
X216.257Y-64.115
X216.257Y-70.465
X229.056Y-57.765
X229.056Y-64.115
X229.056Y-70.465
X245.286Y-57.765
X245.286Y-64.115
X245.286Y-70.465
T11
X132.642Y-65.8
X135.142Y-56.3
X135.142Y-68.3
X140.142Y-65.8
X145.142Y-56.3
X145.142Y-68.3
X147.642Y-65.8
T12
X83.142Y-73.29
X83.142Y-77.29
X83.142Y-81.29
X89.142Y-73.29
X89.142Y-77.29
X89.142Y-81.29
T13
X59.142Y-58.4
X71.142Y-58.4
T14
X49.142Y-58.317
X49.142Y-145.317
X256.142Y-58.317
X256.142Y-145.317
T0
M30
