%TF.GenerationSoftware,KiCad,Pcbnew,7.0.8*%
%TF.CreationDate,2024-02-06T15:01:25+01:00*%
%TF.ProjectId,overcycler3,6f766572-6379-4636-9c65-72332e6b6963,2*%
%TF.SameCoordinates,Original*%
%TF.FileFunction,Paste,Top*%
%TF.FilePolarity,Positive*%
%FSLAX46Y46*%
G04 Gerber Fmt 4.6, Leading zero omitted, Abs format (unit mm)*
G04 Created by KiCad (PCBNEW 7.0.8) date 2024-02-06 15:01:25*
%MOMM*%
%LPD*%
G01*
G04 APERTURE LIST*
G04 Aperture macros list*
%AMRoundRect*
0 Rectangle with rounded corners*
0 $1 Rounding radius*
0 $2 $3 $4 $5 $6 $7 $8 $9 X,Y pos of 4 corners*
0 Add a 4 corners polygon primitive as box body*
4,1,4,$2,$3,$4,$5,$6,$7,$8,$9,$2,$3,0*
0 Add four circle primitives for the rounded corners*
1,1,$1+$1,$2,$3*
1,1,$1+$1,$4,$5*
1,1,$1+$1,$6,$7*
1,1,$1+$1,$8,$9*
0 Add four rect primitives between the rounded corners*
20,1,$1+$1,$2,$3,$4,$5,0*
20,1,$1+$1,$4,$5,$6,$7,0*
20,1,$1+$1,$6,$7,$8,$9,0*
20,1,$1+$1,$8,$9,$2,$3,0*%
G04 Aperture macros list end*
%ADD10RoundRect,0.250000X-0.450000X0.262500X-0.450000X-0.262500X0.450000X-0.262500X0.450000X0.262500X0*%
%ADD11RoundRect,0.250000X0.475000X-0.250000X0.475000X0.250000X-0.475000X0.250000X-0.475000X-0.250000X0*%
%ADD12RoundRect,0.250000X0.450000X-0.262500X0.450000X0.262500X-0.450000X0.262500X-0.450000X-0.262500X0*%
%ADD13RoundRect,0.250000X-0.262500X-0.450000X0.262500X-0.450000X0.262500X0.450000X-0.262500X0.450000X0*%
%ADD14RoundRect,0.250000X0.250000X0.475000X-0.250000X0.475000X-0.250000X-0.475000X0.250000X-0.475000X0*%
%ADD15RoundRect,0.225000X-0.225000X-0.250000X0.225000X-0.250000X0.225000X0.250000X-0.225000X0.250000X0*%
%ADD16RoundRect,0.250000X-0.475000X0.250000X-0.475000X-0.250000X0.475000X-0.250000X0.475000X0.250000X0*%
%ADD17RoundRect,0.100000X-0.500000X-0.100000X0.500000X-0.100000X0.500000X0.100000X-0.500000X0.100000X0*%
%ADD18RoundRect,0.250000X0.262500X0.450000X-0.262500X0.450000X-0.262500X-0.450000X0.262500X-0.450000X0*%
%ADD19RoundRect,0.150000X0.150000X-0.825000X0.150000X0.825000X-0.150000X0.825000X-0.150000X-0.825000X0*%
%ADD20RoundRect,0.250000X-0.250000X-0.475000X0.250000X-0.475000X0.250000X0.475000X-0.250000X0.475000X0*%
%ADD21RoundRect,0.225000X0.225000X0.250000X-0.225000X0.250000X-0.225000X-0.250000X0.225000X-0.250000X0*%
%ADD22RoundRect,0.100000X0.100000X-0.637500X0.100000X0.637500X-0.100000X0.637500X-0.100000X-0.637500X0*%
%ADD23RoundRect,0.250000X0.650000X-0.325000X0.650000X0.325000X-0.650000X0.325000X-0.650000X-0.325000X0*%
%ADD24RoundRect,0.250000X-0.425000X0.450000X-0.425000X-0.450000X0.425000X-0.450000X0.425000X0.450000X0*%
%ADD25RoundRect,0.250000X0.412500X0.925000X-0.412500X0.925000X-0.412500X-0.925000X0.412500X-0.925000X0*%
%ADD26RoundRect,0.250000X-0.925000X0.412500X-0.925000X-0.412500X0.925000X-0.412500X0.925000X0.412500X0*%
%ADD27RoundRect,0.150000X0.725000X0.150000X-0.725000X0.150000X-0.725000X-0.150000X0.725000X-0.150000X0*%
%ADD28RoundRect,0.300000X1.450000X0.300000X-1.450000X0.300000X-1.450000X-0.300000X1.450000X-0.300000X0*%
%ADD29RoundRect,0.225000X0.375000X-0.225000X0.375000X0.225000X-0.375000X0.225000X-0.375000X-0.225000X0*%
%ADD30RoundRect,0.150000X0.150000X-0.875000X0.150000X0.875000X-0.150000X0.875000X-0.150000X-0.875000X0*%
%ADD31RoundRect,0.150000X-0.725000X-0.150000X0.725000X-0.150000X0.725000X0.150000X-0.725000X0.150000X0*%
%ADD32RoundRect,0.150000X0.587500X0.150000X-0.587500X0.150000X-0.587500X-0.150000X0.587500X-0.150000X0*%
%ADD33RoundRect,0.250000X-0.615000X0.435000X-0.615000X-0.435000X0.615000X-0.435000X0.615000X0.435000X0*%
%ADD34RoundRect,0.125000X-0.125000X0.200000X-0.125000X-0.200000X0.125000X-0.200000X0.125000X0.200000X0*%
%ADD35RoundRect,0.075000X-0.075000X0.662500X-0.075000X-0.662500X0.075000X-0.662500X0.075000X0.662500X0*%
%ADD36RoundRect,0.075000X-0.662500X0.075000X-0.662500X-0.075000X0.662500X-0.075000X0.662500X0.075000X0*%
%ADD37RoundRect,0.150000X-0.825000X-0.150000X0.825000X-0.150000X0.825000X0.150000X-0.825000X0.150000X0*%
%ADD38RoundRect,0.250000X-0.412500X-0.925000X0.412500X-0.925000X0.412500X0.925000X-0.412500X0.925000X0*%
%ADD39RoundRect,0.250000X0.787500X1.025000X-0.787500X1.025000X-0.787500X-1.025000X0.787500X-1.025000X0*%
%ADD40RoundRect,0.218750X-0.218750X-0.381250X0.218750X-0.381250X0.218750X0.381250X-0.218750X0.381250X0*%
%ADD41RoundRect,0.100000X-0.100000X0.637500X-0.100000X-0.637500X0.100000X-0.637500X0.100000X0.637500X0*%
%ADD42RoundRect,0.225000X-0.225000X-0.375000X0.225000X-0.375000X0.225000X0.375000X-0.225000X0.375000X0*%
G04 APERTURE END LIST*
D10*
%TO.C,R90*%
X160495000Y-104001250D03*
X160495000Y-105826250D03*
%TD*%
D11*
%TO.C,C9*%
X80561250Y-101055000D03*
X80561250Y-99155000D03*
%TD*%
D10*
%TO.C,R76*%
X188117500Y-104001250D03*
X188117500Y-105826250D03*
%TD*%
D12*
%TO.C,R86*%
X164305000Y-117256250D03*
X164305000Y-115431250D03*
%TD*%
D13*
%TO.C,R44*%
X184030000Y-63956250D03*
X185855000Y-63956250D03*
%TD*%
D14*
%TO.C,C72*%
X156050000Y-130631250D03*
X154150000Y-130631250D03*
%TD*%
D15*
%TO.C,C86*%
X220680000Y-112533750D03*
X222230000Y-112533750D03*
%TD*%
D14*
%TO.C,C62*%
X192880000Y-130631250D03*
X190980000Y-130631250D03*
%TD*%
D12*
%TO.C,R101*%
X209395000Y-127733750D03*
X209395000Y-125908750D03*
%TD*%
D13*
%TO.C,R15*%
X242450000Y-86657500D03*
X244275000Y-86657500D03*
%TD*%
D16*
%TO.C,C3*%
X147477500Y-86025000D03*
X147477500Y-87925000D03*
%TD*%
D11*
%TO.C,C19*%
X107820000Y-114505000D03*
X107820000Y-112605000D03*
%TD*%
D15*
%TO.C,C77*%
X152735000Y-112533750D03*
X154285000Y-112533750D03*
%TD*%
D12*
%TO.C,R135*%
X227810000Y-127733750D03*
X227810000Y-125908750D03*
%TD*%
%TO.C,R4*%
X71583750Y-101967500D03*
X71583750Y-100142500D03*
%TD*%
D17*
%TO.C,U13*%
X157260000Y-108406250D03*
X157260000Y-109041250D03*
X157260000Y-109676250D03*
X157260000Y-110311250D03*
X157260000Y-110946250D03*
X157260000Y-111581250D03*
X157260000Y-112216250D03*
X157260000Y-112851250D03*
X162460000Y-112851250D03*
X162460000Y-112216250D03*
X162460000Y-111581250D03*
X162460000Y-110946250D03*
X162460000Y-110311250D03*
X162460000Y-109676250D03*
X162460000Y-109041250D03*
X162460000Y-108406250D03*
%TD*%
D18*
%TO.C,R26*%
X117346250Y-82153750D03*
X115521250Y-82153750D03*
%TD*%
D14*
%TO.C,C52*%
X137635000Y-130631250D03*
X135735000Y-130631250D03*
%TD*%
D19*
%TO.C,U8*%
X137635000Y-138821250D03*
X138905000Y-138821250D03*
X140175000Y-138821250D03*
X141445000Y-138821250D03*
X142715000Y-138821250D03*
X143985000Y-138821250D03*
X145255000Y-138821250D03*
X145255000Y-133871250D03*
X143985000Y-133871250D03*
X142715000Y-133871250D03*
X141445000Y-133871250D03*
X140175000Y-133871250D03*
X138905000Y-133871250D03*
X137635000Y-133871250D03*
%TD*%
D20*
%TO.C,C100*%
X171927500Y-94277500D03*
X173827500Y-94277500D03*
%TD*%
D10*
%TO.C,R66*%
X204627500Y-124083750D03*
X204627500Y-125908750D03*
%TD*%
D20*
%TO.C,C90*%
X208757500Y-94277500D03*
X210657500Y-94277500D03*
%TD*%
D11*
%TO.C,C14*%
X203675000Y-135708750D03*
X203675000Y-133808750D03*
%TD*%
D18*
%TO.C,R148*%
X233480000Y-90467500D03*
X231655000Y-90467500D03*
%TD*%
D20*
%TO.C,C83*%
X216375000Y-130631250D03*
X218275000Y-130631250D03*
%TD*%
D13*
%TO.C,R113*%
X208795000Y-98087500D03*
X210620000Y-98087500D03*
%TD*%
D18*
%TO.C,R16*%
X100677500Y-73590000D03*
X98852500Y-73590000D03*
%TD*%
D17*
%TO.C,U11*%
X194090000Y-108406250D03*
X194090000Y-109041250D03*
X194090000Y-109676250D03*
X194090000Y-110311250D03*
X194090000Y-110946250D03*
X194090000Y-111581250D03*
X194090000Y-112216250D03*
X194090000Y-112851250D03*
X199290000Y-112851250D03*
X199290000Y-112216250D03*
X199290000Y-111581250D03*
X199290000Y-110946250D03*
X199290000Y-110311250D03*
X199290000Y-109676250D03*
X199290000Y-109041250D03*
X199290000Y-108406250D03*
%TD*%
D13*
%TO.C,R130*%
X171965000Y-98087500D03*
X173790000Y-98087500D03*
%TD*%
D18*
%TO.C,R87*%
X167122500Y-107453750D03*
X165297500Y-107453750D03*
%TD*%
%TO.C,R70*%
X203952500Y-107453750D03*
X202127500Y-107453750D03*
%TD*%
D21*
%TO.C,C85*%
X222230000Y-109993750D03*
X220680000Y-109993750D03*
%TD*%
D10*
%TO.C,R57*%
X142715000Y-115431250D03*
X142715000Y-117256250D03*
%TD*%
D18*
%TO.C,R116*%
X215065000Y-90467500D03*
X213240000Y-90467500D03*
%TD*%
D15*
%TO.C,C66*%
X202265000Y-112533750D03*
X203815000Y-112533750D03*
%TD*%
D12*
%TO.C,R54*%
X140175000Y-127733750D03*
X140175000Y-125908750D03*
%TD*%
D16*
%TO.C,C32*%
X51910000Y-115947500D03*
X51910000Y-117847500D03*
%TD*%
D13*
%TO.C,R43*%
X184030000Y-75386250D03*
X185855000Y-75386250D03*
%TD*%
D10*
%TO.C,R32*%
X149223750Y-80387500D03*
X149223750Y-82212500D03*
%TD*%
D21*
%TO.C,C55*%
X148570000Y-109993750D03*
X147020000Y-109993750D03*
%TD*%
D13*
%TO.C,R42*%
X55085000Y-108642500D03*
X56910000Y-108642500D03*
%TD*%
D10*
%TO.C,R83*%
X167797500Y-124083750D03*
X167797500Y-125908750D03*
%TD*%
D16*
%TO.C,C2*%
X146842500Y-101582500D03*
X146842500Y-103482500D03*
%TD*%
D21*
%TO.C,C108*%
X227310000Y-109993750D03*
X225760000Y-109993750D03*
%TD*%
D22*
%TO.C,U20*%
X124565000Y-111586250D03*
X125215000Y-111586250D03*
X125865000Y-111586250D03*
X126515000Y-111586250D03*
X127165000Y-111586250D03*
X127815000Y-111586250D03*
X128465000Y-111586250D03*
X129115000Y-111586250D03*
X129115000Y-105861250D03*
X128465000Y-105861250D03*
X127815000Y-105861250D03*
X127165000Y-105861250D03*
X126515000Y-105861250D03*
X125865000Y-105861250D03*
X125215000Y-105861250D03*
X124565000Y-105861250D03*
%TD*%
D14*
%TO.C,C29*%
X130965000Y-135076250D03*
X129065000Y-135076250D03*
%TD*%
D12*
%TO.C,R67*%
X190980000Y-127733750D03*
X190980000Y-125908750D03*
%TD*%
D16*
%TO.C,C4*%
X183672500Y-101582500D03*
X183672500Y-103482500D03*
%TD*%
D20*
%TO.C,C35*%
X256382500Y-68242500D03*
X258282500Y-68242500D03*
%TD*%
D23*
%TO.C,C109*%
X228122500Y-106388750D03*
X228122500Y-103438750D03*
%TD*%
D18*
%TO.C,R115*%
X215065000Y-93007500D03*
X213240000Y-93007500D03*
%TD*%
D12*
%TO.C,R29*%
X174465000Y-83800000D03*
X174465000Y-81975000D03*
%TD*%
D10*
%TO.C,R48*%
X195102500Y-66536250D03*
X195102500Y-68361250D03*
%TD*%
D12*
%TO.C,R68*%
X199860000Y-127733750D03*
X199860000Y-125908750D03*
%TD*%
%TO.C,R143*%
X231297500Y-105826250D03*
X231297500Y-104001250D03*
%TD*%
D13*
%TO.C,R46*%
X190380000Y-63956250D03*
X192205000Y-63956250D03*
%TD*%
D21*
%TO.C,C75*%
X166985000Y-109993750D03*
X165435000Y-109993750D03*
%TD*%
D13*
%TO.C,R82*%
X190380000Y-90467500D03*
X192205000Y-90467500D03*
%TD*%
D11*
%TO.C,C104*%
X244315000Y-117293750D03*
X244315000Y-115393750D03*
%TD*%
%TO.C,C84*%
X225900000Y-117293750D03*
X225900000Y-115393750D03*
%TD*%
D10*
%TO.C,R49*%
X149382500Y-124083750D03*
X149382500Y-125908750D03*
%TD*%
D23*
%TO.C,C59*%
X136047500Y-106388750D03*
X136047500Y-103438750D03*
%TD*%
D20*
%TO.C,C51*%
X190342500Y-61098750D03*
X192242500Y-61098750D03*
%TD*%
D21*
%TO.C,C68*%
X190480000Y-109993750D03*
X188930000Y-109993750D03*
%TD*%
D18*
%TO.C,R111*%
X215065000Y-95547500D03*
X213240000Y-95547500D03*
%TD*%
%TO.C,R11*%
X244275000Y-83482500D03*
X242450000Y-83482500D03*
%TD*%
%TO.C,R138*%
X240782500Y-107453750D03*
X238957500Y-107453750D03*
%TD*%
%TO.C,R104*%
X222367500Y-107453750D03*
X220542500Y-107453750D03*
%TD*%
D20*
%TO.C,C38*%
X70645000Y-121342500D03*
X72545000Y-121342500D03*
%TD*%
D10*
%TO.C,R108*%
X216375000Y-115431250D03*
X216375000Y-117256250D03*
%TD*%
%TO.C,R93*%
X151287500Y-104001250D03*
X151287500Y-105826250D03*
%TD*%
D18*
%TO.C,R18*%
X253800000Y-101262500D03*
X251975000Y-101262500D03*
%TD*%
D11*
%TO.C,C17*%
X129062500Y-100783750D03*
X129062500Y-98883750D03*
%TD*%
D17*
%TO.C,U17*%
X175675000Y-108406250D03*
X175675000Y-109041250D03*
X175675000Y-109676250D03*
X175675000Y-110311250D03*
X175675000Y-110946250D03*
X175675000Y-111581250D03*
X175675000Y-112216250D03*
X175675000Y-112851250D03*
X180875000Y-112851250D03*
X180875000Y-112216250D03*
X180875000Y-111581250D03*
X180875000Y-110946250D03*
X180875000Y-110311250D03*
X180875000Y-109676250D03*
X180875000Y-109041250D03*
X180875000Y-108406250D03*
%TD*%
D10*
%TO.C,R142*%
X234790000Y-115431250D03*
X234790000Y-117256250D03*
%TD*%
%TO.C,R107*%
X215740000Y-104001250D03*
X215740000Y-105826250D03*
%TD*%
D20*
%TO.C,C63*%
X197960000Y-130631250D03*
X199860000Y-130631250D03*
%TD*%
D17*
%TO.C,U19*%
X230920000Y-108406250D03*
X230920000Y-109041250D03*
X230920000Y-109676250D03*
X230920000Y-110311250D03*
X230920000Y-110946250D03*
X230920000Y-111581250D03*
X230920000Y-112216250D03*
X230920000Y-112851250D03*
X236120000Y-112851250D03*
X236120000Y-112216250D03*
X236120000Y-111581250D03*
X236120000Y-110946250D03*
X236120000Y-110311250D03*
X236120000Y-109676250D03*
X236120000Y-109041250D03*
X236120000Y-108406250D03*
%TD*%
D20*
%TO.C,C42*%
X70645000Y-134042500D03*
X72545000Y-134042500D03*
%TD*%
D18*
%TO.C,R64*%
X141405000Y-93007500D03*
X139580000Y-93007500D03*
%TD*%
D15*
%TO.C,C106*%
X239095000Y-112533750D03*
X240645000Y-112533750D03*
%TD*%
D12*
%TO.C,R126*%
X176052500Y-105826250D03*
X176052500Y-104001250D03*
%TD*%
D15*
%TO.C,C76*%
X165435000Y-112533750D03*
X166985000Y-112533750D03*
%TD*%
D10*
%TO.C,R74*%
X197960000Y-115431250D03*
X197960000Y-117256250D03*
%TD*%
D14*
%TO.C,C45*%
X52225000Y-130867500D03*
X50325000Y-130867500D03*
%TD*%
D13*
%TO.C,R145*%
X227210000Y-95547500D03*
X229035000Y-95547500D03*
%TD*%
D20*
%TO.C,C40*%
X70645000Y-127692500D03*
X72545000Y-127692500D03*
%TD*%
D21*
%TO.C,C88*%
X208895000Y-109993750D03*
X207345000Y-109993750D03*
%TD*%
D14*
%TO.C,C25*%
X93500000Y-105585000D03*
X91600000Y-105585000D03*
%TD*%
D13*
%TO.C,R149*%
X227210000Y-93007500D03*
X229035000Y-93007500D03*
%TD*%
D20*
%TO.C,C93*%
X179545000Y-130631250D03*
X181445000Y-130631250D03*
%TD*%
D14*
%TO.C,C8*%
X60480000Y-102251250D03*
X58580000Y-102251250D03*
%TD*%
D13*
%TO.C,R99*%
X153550000Y-90467500D03*
X155375000Y-90467500D03*
%TD*%
D20*
%TO.C,C23*%
X98870000Y-134795000D03*
X100770000Y-134795000D03*
%TD*%
D12*
%TO.C,R2*%
X69043750Y-101967500D03*
X69043750Y-100142500D03*
%TD*%
D18*
%TO.C,R19*%
X258245000Y-83482500D03*
X256420000Y-83482500D03*
%TD*%
D14*
%TO.C,C18*%
X97945000Y-105585000D03*
X96045000Y-105585000D03*
%TD*%
D24*
%TO.C,C31*%
X67697500Y-93562500D03*
X67697500Y-96262500D03*
%TD*%
D12*
%TO.C,R109*%
X212882500Y-105826250D03*
X212882500Y-104001250D03*
%TD*%
D18*
%TO.C,R97*%
X159820000Y-90467500D03*
X157995000Y-90467500D03*
%TD*%
D14*
%TO.C,C70*%
X196687500Y-94277500D03*
X194787500Y-94277500D03*
%TD*%
D12*
%TO.C,R21*%
X107631250Y-101100000D03*
X107631250Y-99275000D03*
%TD*%
%TO.C,R37*%
X177957500Y-72806250D03*
X177957500Y-70981250D03*
%TD*%
D25*
%TO.C,C33*%
X258235000Y-79037500D03*
X255160000Y-79037500D03*
%TD*%
D18*
%TO.C,R133*%
X178235000Y-90467500D03*
X176410000Y-90467500D03*
%TD*%
D26*
%TO.C,C48*%
X238123750Y-88612500D03*
X238123750Y-91687500D03*
%TD*%
D17*
%TO.C,U9*%
X138845000Y-108406250D03*
X138845000Y-109041250D03*
X138845000Y-109676250D03*
X138845000Y-110311250D03*
X138845000Y-110946250D03*
X138845000Y-111581250D03*
X138845000Y-112216250D03*
X138845000Y-112851250D03*
X144045000Y-112851250D03*
X144045000Y-112216250D03*
X144045000Y-111581250D03*
X144045000Y-110946250D03*
X144045000Y-110311250D03*
X144045000Y-109676250D03*
X144045000Y-109041250D03*
X144045000Y-108406250D03*
%TD*%
D10*
%TO.C,R100*%
X223042500Y-124083750D03*
X223042500Y-125908750D03*
%TD*%
%TO.C,R125*%
X179545000Y-115431250D03*
X179545000Y-117256250D03*
%TD*%
D13*
%TO.C,R13*%
X246895000Y-97928750D03*
X248720000Y-97928750D03*
%TD*%
D18*
%TO.C,R3*%
X60442500Y-99235000D03*
X58617500Y-99235000D03*
%TD*%
D19*
%TO.C,U6*%
X184307500Y-72146250D03*
X185577500Y-72146250D03*
X186847500Y-72146250D03*
X188117500Y-72146250D03*
X189387500Y-72146250D03*
X190657500Y-72146250D03*
X191927500Y-72146250D03*
X191927500Y-67196250D03*
X190657500Y-67196250D03*
X189387500Y-67196250D03*
X188117500Y-67196250D03*
X186847500Y-67196250D03*
X185577500Y-67196250D03*
X184307500Y-67196250D03*
%TD*%
D23*
%TO.C,C79*%
X154462500Y-106388750D03*
X154462500Y-103438750D03*
%TD*%
D12*
%TO.C,R35*%
X194150000Y-83800000D03*
X194150000Y-81975000D03*
%TD*%
D14*
%TO.C,C102*%
X229710000Y-130631250D03*
X227810000Y-130631250D03*
%TD*%
D10*
%TO.C,R110*%
X206532500Y-104001250D03*
X206532500Y-105826250D03*
%TD*%
D27*
%TO.C,IC1*%
X150052500Y-99357500D03*
X150052500Y-98087500D03*
X150052500Y-96817500D03*
X150052500Y-95547500D03*
X150052500Y-94277500D03*
X150052500Y-93007500D03*
X150052500Y-91737500D03*
X150052500Y-90467500D03*
X144902500Y-90467500D03*
X144902500Y-91737500D03*
X144902500Y-93007500D03*
X144902500Y-94277500D03*
X144902500Y-95547500D03*
X144902500Y-96817500D03*
X144902500Y-98087500D03*
X144902500Y-99357500D03*
%TD*%
D10*
%TO.C,R55*%
X149065000Y-115431250D03*
X149065000Y-117256250D03*
%TD*%
%TO.C,R40*%
X177957500Y-66536250D03*
X177957500Y-68361250D03*
%TD*%
D26*
%TO.C,C111*%
X226852500Y-82262500D03*
X226852500Y-85337500D03*
%TD*%
D20*
%TO.C,C50*%
X190342500Y-78243750D03*
X192242500Y-78243750D03*
%TD*%
D28*
%TO.C,Y1*%
X89820000Y-101055000D03*
X84320000Y-101055000D03*
%TD*%
D26*
%TO.C,C71*%
X190022500Y-82262500D03*
X190022500Y-85337500D03*
%TD*%
D15*
%TO.C,C57*%
X134320000Y-112533750D03*
X135870000Y-112533750D03*
%TD*%
D18*
%TO.C,R96*%
X159820000Y-98087500D03*
X157995000Y-98087500D03*
%TD*%
D11*
%TO.C,C10*%
X148430000Y-135708750D03*
X148430000Y-133808750D03*
%TD*%
D10*
%TO.C,R127*%
X169702500Y-104001250D03*
X169702500Y-105826250D03*
%TD*%
D13*
%TO.C,R77*%
X190380000Y-95547500D03*
X192205000Y-95547500D03*
%TD*%
D20*
%TO.C,C49*%
X62390000Y-108642500D03*
X64290000Y-108642500D03*
%TD*%
D12*
%TO.C,R122*%
X177005000Y-127733750D03*
X177005000Y-125908750D03*
%TD*%
D18*
%TO.C,R121*%
X185537500Y-107453750D03*
X183712500Y-107453750D03*
%TD*%
D12*
%TO.C,R20*%
X257650000Y-99753750D03*
X257650000Y-97928750D03*
%TD*%
%TO.C,R31*%
X137635000Y-83800000D03*
X137635000Y-81975000D03*
%TD*%
D13*
%TO.C,R12*%
X242450000Y-93007500D03*
X244275000Y-93007500D03*
%TD*%
D14*
%TO.C,C47*%
X52225000Y-124517500D03*
X50325000Y-124517500D03*
%TD*%
D12*
%TO.C,R36*%
X230980000Y-83800000D03*
X230980000Y-81975000D03*
%TD*%
%TO.C,R85*%
X163030000Y-127733750D03*
X163030000Y-125908750D03*
%TD*%
D13*
%TO.C,R131*%
X171965000Y-90467500D03*
X173790000Y-90467500D03*
%TD*%
D12*
%TO.C,R47*%
X195102500Y-72806250D03*
X195102500Y-70981250D03*
%TD*%
D15*
%TO.C,C97*%
X171150000Y-112533750D03*
X172700000Y-112533750D03*
%TD*%
D19*
%TO.C,U12*%
X156050000Y-138821250D03*
X157320000Y-138821250D03*
X158590000Y-138821250D03*
X159860000Y-138821250D03*
X161130000Y-138821250D03*
X162400000Y-138821250D03*
X163670000Y-138821250D03*
X163670000Y-133871250D03*
X162400000Y-133871250D03*
X161130000Y-133871250D03*
X159860000Y-133871250D03*
X158590000Y-133871250D03*
X157320000Y-133871250D03*
X156050000Y-133871250D03*
%TD*%
D13*
%TO.C,R45*%
X190380000Y-75386250D03*
X192205000Y-75386250D03*
%TD*%
D11*
%TO.C,C94*%
X189070000Y-117293750D03*
X189070000Y-115393750D03*
%TD*%
D10*
%TO.C,R28*%
X182720000Y-80387500D03*
X182720000Y-82212500D03*
%TD*%
D12*
%TO.C,R105*%
X213835000Y-127733750D03*
X213835000Y-125908750D03*
%TD*%
D18*
%TO.C,R10*%
X244275000Y-96182500D03*
X242450000Y-96182500D03*
%TD*%
D13*
%TO.C,R81*%
X190380000Y-93007500D03*
X192205000Y-93007500D03*
%TD*%
D18*
%TO.C,R128*%
X178235000Y-95547500D03*
X176410000Y-95547500D03*
%TD*%
D15*
%TO.C,C56*%
X147020000Y-112533750D03*
X148570000Y-112533750D03*
%TD*%
D10*
%TO.C,R91*%
X161130000Y-115431250D03*
X161130000Y-117256250D03*
%TD*%
D12*
%TO.C,R33*%
X157320000Y-83800000D03*
X157320000Y-81975000D03*
%TD*%
D20*
%TO.C,C60*%
X135097500Y-94277500D03*
X136997500Y-94277500D03*
%TD*%
D12*
%TO.C,R5*%
X74123750Y-101982500D03*
X74123750Y-100157500D03*
%TD*%
D20*
%TO.C,C24*%
X86620000Y-133555000D03*
X88520000Y-133555000D03*
%TD*%
D16*
%TO.C,C34*%
X243997500Y-107773750D03*
X243997500Y-109673750D03*
%TD*%
D12*
%TO.C,R38*%
X181132500Y-72806250D03*
X181132500Y-70981250D03*
%TD*%
D13*
%TO.C,R98*%
X153550000Y-93007500D03*
X155375000Y-93007500D03*
%TD*%
D20*
%TO.C,C39*%
X70645000Y-124517500D03*
X72545000Y-124517500D03*
%TD*%
D18*
%TO.C,R147*%
X233480000Y-98087500D03*
X231655000Y-98087500D03*
%TD*%
D15*
%TO.C,C96*%
X183850000Y-112533750D03*
X185400000Y-112533750D03*
%TD*%
D13*
%TO.C,R9*%
X242450000Y-89832500D03*
X244275000Y-89832500D03*
%TD*%
%TO.C,R7*%
X256420000Y-74592500D03*
X258245000Y-74592500D03*
%TD*%
D11*
%TO.C,C1*%
X93578750Y-101055000D03*
X93578750Y-99155000D03*
%TD*%
%TO.C,C74*%
X170655000Y-117293750D03*
X170655000Y-115393750D03*
%TD*%
D18*
%TO.C,R65*%
X141405000Y-90467500D03*
X139580000Y-90467500D03*
%TD*%
D24*
%TO.C,C22*%
X100082500Y-84990000D03*
X100082500Y-87690000D03*
%TD*%
D21*
%TO.C,C105*%
X240645000Y-109993750D03*
X239095000Y-109993750D03*
%TD*%
D18*
%TO.C,R80*%
X196650000Y-90467500D03*
X194825000Y-90467500D03*
%TD*%
D12*
%TO.C,R118*%
X172565000Y-127733750D03*
X172565000Y-125908750D03*
%TD*%
D16*
%TO.C,C6*%
X220502500Y-101582500D03*
X220502500Y-103482500D03*
%TD*%
D11*
%TO.C,C30*%
X119696250Y-126255000D03*
X119696250Y-124355000D03*
%TD*%
D29*
%TO.C,D3*%
X257650000Y-112596250D03*
X257650000Y-109296250D03*
%TD*%
D26*
%TO.C,C61*%
X141762500Y-82262500D03*
X141762500Y-85337500D03*
%TD*%
D16*
%TO.C,C5*%
X184307500Y-86025000D03*
X184307500Y-87925000D03*
%TD*%
D18*
%TO.C,R60*%
X141405000Y-95547500D03*
X139580000Y-95547500D03*
%TD*%
D11*
%TO.C,C15*%
X222090000Y-135708750D03*
X222090000Y-133808750D03*
%TD*%
D12*
%TO.C,R69*%
X201135000Y-117256250D03*
X201135000Y-115431250D03*
%TD*%
D20*
%TO.C,C73*%
X161130000Y-130711250D03*
X163030000Y-130711250D03*
%TD*%
D13*
%TO.C,R129*%
X176410000Y-98087500D03*
X178235000Y-98087500D03*
%TD*%
D23*
%TO.C,C89*%
X209707500Y-106388750D03*
X209707500Y-103438750D03*
%TD*%
D20*
%TO.C,C53*%
X142715000Y-130631250D03*
X144615000Y-130631250D03*
%TD*%
D17*
%TO.C,U15*%
X212505000Y-108406250D03*
X212505000Y-109041250D03*
X212505000Y-109676250D03*
X212505000Y-110311250D03*
X212505000Y-110946250D03*
X212505000Y-111581250D03*
X212505000Y-112216250D03*
X212505000Y-112851250D03*
X217705000Y-112851250D03*
X217705000Y-112216250D03*
X217705000Y-111581250D03*
X217705000Y-110946250D03*
X217705000Y-110311250D03*
X217705000Y-109676250D03*
X217705000Y-109041250D03*
X217705000Y-108406250D03*
%TD*%
D30*
%TO.C,U4*%
X55085000Y-121342500D03*
X56355000Y-121342500D03*
X57625000Y-121342500D03*
X58895000Y-121342500D03*
X60165000Y-121342500D03*
X61435000Y-121342500D03*
X62705000Y-121342500D03*
X63975000Y-121342500D03*
X65245000Y-121342500D03*
X66515000Y-121342500D03*
X66515000Y-112042500D03*
X65245000Y-112042500D03*
X63975000Y-112042500D03*
X62705000Y-112042500D03*
X61435000Y-112042500D03*
X60165000Y-112042500D03*
X58895000Y-112042500D03*
X57625000Y-112042500D03*
X56355000Y-112042500D03*
X55085000Y-112042500D03*
%TD*%
D12*
%TO.C,R92*%
X157637500Y-105826250D03*
X157637500Y-104001250D03*
%TD*%
%TO.C,R88*%
X158590000Y-127733750D03*
X158590000Y-125908750D03*
%TD*%
%TO.C,R120*%
X182720000Y-117256250D03*
X182720000Y-115431250D03*
%TD*%
D31*
%TO.C,U5*%
X127440000Y-138251250D03*
X127440000Y-139521250D03*
X127440000Y-140791250D03*
X127440000Y-142061250D03*
X127440000Y-143331250D03*
X127440000Y-144601250D03*
X127440000Y-145871250D03*
X127440000Y-147141250D03*
X132590000Y-147141250D03*
X132590000Y-145871250D03*
X132590000Y-144601250D03*
X132590000Y-143331250D03*
X132590000Y-142061250D03*
X132590000Y-140791250D03*
X132590000Y-139521250D03*
X132590000Y-138251250D03*
%TD*%
D13*
%TO.C,R8*%
X256420000Y-71417500D03*
X258245000Y-71417500D03*
%TD*%
D18*
%TO.C,R146*%
X229035000Y-98087500D03*
X227210000Y-98087500D03*
%TD*%
D10*
%TO.C,R34*%
X185895000Y-80387500D03*
X185895000Y-82212500D03*
%TD*%
%TO.C,R39*%
X181132500Y-66536250D03*
X181132500Y-68361250D03*
%TD*%
D32*
%TO.C,Q1*%
X252555000Y-73955000D03*
X252555000Y-72055000D03*
X250680000Y-73005000D03*
%TD*%
D20*
%TO.C,C103*%
X234790000Y-130631250D03*
X236690000Y-130631250D03*
%TD*%
D18*
%TO.C,R24*%
X258245000Y-86657500D03*
X256420000Y-86657500D03*
%TD*%
D13*
%TO.C,R22*%
X110123750Y-96976250D03*
X111948750Y-96976250D03*
%TD*%
D10*
%TO.C,R123*%
X185895000Y-115431250D03*
X185895000Y-117256250D03*
%TD*%
D14*
%TO.C,C80*%
X159857500Y-94277500D03*
X157957500Y-94277500D03*
%TD*%
D10*
%TO.C,R134*%
X242092500Y-124083750D03*
X242092500Y-125908750D03*
%TD*%
%TO.C,R72*%
X204310000Y-115431250D03*
X204310000Y-117256250D03*
%TD*%
D23*
%TO.C,C99*%
X172877500Y-106388750D03*
X172877500Y-103438750D03*
%TD*%
D33*
%TO.C,U1*%
X115215000Y-124455000D03*
X113065000Y-124455000D03*
X115215000Y-126155000D03*
X113065000Y-126155000D03*
D34*
X116045000Y-121555000D03*
X114775000Y-121555000D03*
X113505000Y-121555000D03*
X112235000Y-121555000D03*
X112235000Y-129055000D03*
X113505000Y-129055000D03*
X114775000Y-129055000D03*
X116045000Y-129055000D03*
%TD*%
D10*
%TO.C,R117*%
X186530000Y-124083750D03*
X186530000Y-125908750D03*
%TD*%
D21*
%TO.C,C65*%
X203815000Y-109993750D03*
X202265000Y-109993750D03*
%TD*%
D12*
%TO.C,R52*%
X145890000Y-117256250D03*
X145890000Y-115431250D03*
%TD*%
%TO.C,R75*%
X194467500Y-105826250D03*
X194467500Y-104001250D03*
%TD*%
D15*
%TO.C,C87*%
X207980000Y-112533750D03*
X209530000Y-112533750D03*
%TD*%
D18*
%TO.C,R79*%
X196650000Y-98087500D03*
X194825000Y-98087500D03*
%TD*%
D19*
%TO.C,U14*%
X211295000Y-138821250D03*
X212565000Y-138821250D03*
X213835000Y-138821250D03*
X215105000Y-138821250D03*
X216375000Y-138821250D03*
X217645000Y-138821250D03*
X218915000Y-138821250D03*
X218915000Y-133871250D03*
X217645000Y-133871250D03*
X216375000Y-133871250D03*
X215105000Y-133871250D03*
X213835000Y-133871250D03*
X212565000Y-133871250D03*
X211295000Y-133871250D03*
%TD*%
D27*
%TO.C,IC2*%
X186882500Y-99357500D03*
X186882500Y-98087500D03*
X186882500Y-96817500D03*
X186882500Y-95547500D03*
X186882500Y-94277500D03*
X186882500Y-93007500D03*
X186882500Y-91737500D03*
X186882500Y-90467500D03*
X181732500Y-90467500D03*
X181732500Y-91737500D03*
X181732500Y-93007500D03*
X181732500Y-94277500D03*
X181732500Y-95547500D03*
X181732500Y-96817500D03*
X181732500Y-98087500D03*
X181732500Y-99357500D03*
%TD*%
D35*
%TO.C,U3*%
X102570000Y-108892500D03*
X102070000Y-108892500D03*
X101570000Y-108892500D03*
X101070000Y-108892500D03*
X100570000Y-108892500D03*
X100070000Y-108892500D03*
X99570000Y-108892500D03*
X99070000Y-108892500D03*
X98570000Y-108892500D03*
X98070000Y-108892500D03*
X97570000Y-108892500D03*
X97070000Y-108892500D03*
X96570000Y-108892500D03*
X96070000Y-108892500D03*
X95570000Y-108892500D03*
X95070000Y-108892500D03*
X94570000Y-108892500D03*
X94070000Y-108892500D03*
X93570000Y-108892500D03*
X93070000Y-108892500D03*
X92570000Y-108892500D03*
X92070000Y-108892500D03*
X91570000Y-108892500D03*
X91070000Y-108892500D03*
X90570000Y-108892500D03*
X90070000Y-108892500D03*
X89570000Y-108892500D03*
X89070000Y-108892500D03*
X88570000Y-108892500D03*
X88070000Y-108892500D03*
X87570000Y-108892500D03*
X87070000Y-108892500D03*
X86570000Y-108892500D03*
X86070000Y-108892500D03*
X85570000Y-108892500D03*
X85070000Y-108892500D03*
D36*
X83157500Y-110805000D03*
X83157500Y-111305000D03*
X83157500Y-111805000D03*
X83157500Y-112305000D03*
X83157500Y-112805000D03*
X83157500Y-113305000D03*
X83157500Y-113805000D03*
X83157500Y-114305000D03*
X83157500Y-114805000D03*
X83157500Y-115305000D03*
X83157500Y-115805000D03*
X83157500Y-116305000D03*
X83157500Y-116805000D03*
X83157500Y-117305000D03*
X83157500Y-117805000D03*
X83157500Y-118305000D03*
X83157500Y-118805000D03*
X83157500Y-119305000D03*
X83157500Y-119805000D03*
X83157500Y-120305000D03*
X83157500Y-120805000D03*
X83157500Y-121305000D03*
X83157500Y-121805000D03*
X83157500Y-122305000D03*
X83157500Y-122805000D03*
X83157500Y-123305000D03*
X83157500Y-123805000D03*
X83157500Y-124305000D03*
X83157500Y-124805000D03*
X83157500Y-125305000D03*
X83157500Y-125805000D03*
X83157500Y-126305000D03*
X83157500Y-126805000D03*
X83157500Y-127305000D03*
X83157500Y-127805000D03*
X83157500Y-128305000D03*
D35*
X85070000Y-130217500D03*
X85570000Y-130217500D03*
X86070000Y-130217500D03*
X86570000Y-130217500D03*
X87070000Y-130217500D03*
X87570000Y-130217500D03*
X88070000Y-130217500D03*
X88570000Y-130217500D03*
X89070000Y-130217500D03*
X89570000Y-130217500D03*
X90070000Y-130217500D03*
X90570000Y-130217500D03*
X91070000Y-130217500D03*
X91570000Y-130217500D03*
X92070000Y-130217500D03*
X92570000Y-130217500D03*
X93070000Y-130217500D03*
X93570000Y-130217500D03*
X94070000Y-130217500D03*
X94570000Y-130217500D03*
X95070000Y-130217500D03*
X95570000Y-130217500D03*
X96070000Y-130217500D03*
X96570000Y-130217500D03*
X97070000Y-130217500D03*
X97570000Y-130217500D03*
X98070000Y-130217500D03*
X98570000Y-130217500D03*
X99070000Y-130217500D03*
X99570000Y-130217500D03*
X100070000Y-130217500D03*
X100570000Y-130217500D03*
X101070000Y-130217500D03*
X101570000Y-130217500D03*
X102070000Y-130217500D03*
X102570000Y-130217500D03*
D36*
X104482500Y-128305000D03*
X104482500Y-127805000D03*
X104482500Y-127305000D03*
X104482500Y-126805000D03*
X104482500Y-126305000D03*
X104482500Y-125805000D03*
X104482500Y-125305000D03*
X104482500Y-124805000D03*
X104482500Y-124305000D03*
X104482500Y-123805000D03*
X104482500Y-123305000D03*
X104482500Y-122805000D03*
X104482500Y-122305000D03*
X104482500Y-121805000D03*
X104482500Y-121305000D03*
X104482500Y-120805000D03*
X104482500Y-120305000D03*
X104482500Y-119805000D03*
X104482500Y-119305000D03*
X104482500Y-118805000D03*
X104482500Y-118305000D03*
X104482500Y-117805000D03*
X104482500Y-117305000D03*
X104482500Y-116805000D03*
X104482500Y-116305000D03*
X104482500Y-115805000D03*
X104482500Y-115305000D03*
X104482500Y-114805000D03*
X104482500Y-114305000D03*
X104482500Y-113805000D03*
X104482500Y-113305000D03*
X104482500Y-112805000D03*
X104482500Y-112305000D03*
X104482500Y-111805000D03*
X104482500Y-111305000D03*
X104482500Y-110805000D03*
%TD*%
D10*
%TO.C,R89*%
X167480000Y-115431250D03*
X167480000Y-117256250D03*
%TD*%
D12*
%TO.C,R25*%
X92181250Y-136025000D03*
X92181250Y-134200000D03*
%TD*%
D16*
%TO.C,C7*%
X221137500Y-86025000D03*
X221137500Y-87925000D03*
%TD*%
D37*
%TO.C,U2*%
X247872500Y-87292500D03*
X247872500Y-88562500D03*
X247872500Y-89832500D03*
X247872500Y-91102500D03*
X247872500Y-92372500D03*
X247872500Y-93642500D03*
X247872500Y-94912500D03*
X252822500Y-94912500D03*
X252822500Y-93642500D03*
X252822500Y-92372500D03*
X252822500Y-91102500D03*
X252822500Y-89832500D03*
X252822500Y-88562500D03*
X252822500Y-87292500D03*
%TD*%
D19*
%TO.C,U18*%
X229710000Y-138821250D03*
X230980000Y-138821250D03*
X232250000Y-138821250D03*
X233520000Y-138821250D03*
X234790000Y-138821250D03*
X236060000Y-138821250D03*
X237330000Y-138821250D03*
X237330000Y-133871250D03*
X236060000Y-133871250D03*
X234790000Y-133871250D03*
X233520000Y-133871250D03*
X232250000Y-133871250D03*
X230980000Y-133871250D03*
X229710000Y-133871250D03*
%TD*%
D12*
%TO.C,R103*%
X219550000Y-117256250D03*
X219550000Y-115431250D03*
%TD*%
D29*
%TO.C,D1*%
X257650000Y-125296250D03*
X257650000Y-121996250D03*
%TD*%
D13*
%TO.C,R62*%
X135135000Y-98087500D03*
X136960000Y-98087500D03*
%TD*%
D12*
%TO.C,R84*%
X154150000Y-127733750D03*
X154150000Y-125908750D03*
%TD*%
%TO.C,R58*%
X139222500Y-105826250D03*
X139222500Y-104001250D03*
%TD*%
D13*
%TO.C,R150*%
X227210000Y-90467500D03*
X229035000Y-90467500D03*
%TD*%
D10*
%TO.C,R73*%
X197325000Y-104001250D03*
X197325000Y-105826250D03*
%TD*%
D20*
%TO.C,C37*%
X98815000Y-67240000D03*
X100715000Y-67240000D03*
%TD*%
D18*
%TO.C,R53*%
X148707500Y-107453750D03*
X146882500Y-107453750D03*
%TD*%
D11*
%TO.C,C54*%
X152240000Y-117293750D03*
X152240000Y-115393750D03*
%TD*%
D13*
%TO.C,R14*%
X98852500Y-70415000D03*
X100677500Y-70415000D03*
%TD*%
D23*
%TO.C,C69*%
X191292500Y-106388750D03*
X191292500Y-103438750D03*
%TD*%
D12*
%TO.C,R119*%
X181445000Y-127733750D03*
X181445000Y-125908750D03*
%TD*%
D11*
%TO.C,C16*%
X240505000Y-135708750D03*
X240505000Y-133808750D03*
%TD*%
D10*
%TO.C,R141*%
X234155000Y-104001250D03*
X234155000Y-105826250D03*
%TD*%
D26*
%TO.C,C101*%
X178592500Y-82262500D03*
X178592500Y-85337500D03*
%TD*%
D29*
%TO.C,D2*%
X257650000Y-118946250D03*
X257650000Y-115646250D03*
%TD*%
D13*
%TO.C,R23*%
X256420000Y-89832500D03*
X258245000Y-89832500D03*
%TD*%
D10*
%TO.C,R140*%
X241140000Y-115431250D03*
X241140000Y-117256250D03*
%TD*%
D11*
%TO.C,C27*%
X79880000Y-123305000D03*
X79880000Y-121405000D03*
%TD*%
D19*
%TO.C,U10*%
X192880000Y-138821250D03*
X194150000Y-138821250D03*
X195420000Y-138821250D03*
X196690000Y-138821250D03*
X197960000Y-138821250D03*
X199230000Y-138821250D03*
X200500000Y-138821250D03*
X200500000Y-133871250D03*
X199230000Y-133871250D03*
X197960000Y-133871250D03*
X196690000Y-133871250D03*
X195420000Y-133871250D03*
X194150000Y-133871250D03*
X192880000Y-133871250D03*
%TD*%
D14*
%TO.C,C46*%
X52225000Y-127692500D03*
X50325000Y-127692500D03*
%TD*%
D18*
%TO.C,R132*%
X178235000Y-93007500D03*
X176410000Y-93007500D03*
%TD*%
D21*
%TO.C,C58*%
X135235000Y-109993750D03*
X133685000Y-109993750D03*
%TD*%
D18*
%TO.C,R1*%
X60442500Y-96218750D03*
X58617500Y-96218750D03*
%TD*%
D12*
%TO.C,R71*%
X195420000Y-127733750D03*
X195420000Y-125908750D03*
%TD*%
D14*
%TO.C,C82*%
X211295000Y-130631250D03*
X209395000Y-130631250D03*
%TD*%
D11*
%TO.C,C64*%
X207485000Y-117293750D03*
X207485000Y-115393750D03*
%TD*%
D18*
%TO.C,R17*%
X253800000Y-97928750D03*
X251975000Y-97928750D03*
%TD*%
D26*
%TO.C,C81*%
X153192500Y-82262500D03*
X153192500Y-85337500D03*
%TD*%
D10*
%TO.C,R124*%
X178910000Y-104001250D03*
X178910000Y-105826250D03*
%TD*%
D19*
%TO.C,U16*%
X174465000Y-138821250D03*
X175735000Y-138821250D03*
X177005000Y-138821250D03*
X178275000Y-138821250D03*
X179545000Y-138821250D03*
X180815000Y-138821250D03*
X182085000Y-138821250D03*
X182085000Y-133871250D03*
X180815000Y-133871250D03*
X179545000Y-133871250D03*
X178275000Y-133871250D03*
X177005000Y-133871250D03*
X175735000Y-133871250D03*
X174465000Y-133871250D03*
%TD*%
D38*
%TO.C,C36*%
X248810000Y-83482500D03*
X251885000Y-83482500D03*
%TD*%
D11*
%TO.C,C11*%
X166845000Y-135708750D03*
X166845000Y-133808750D03*
%TD*%
D12*
%TO.C,R139*%
X232250000Y-127733750D03*
X232250000Y-125908750D03*
%TD*%
%TO.C,R51*%
X144615000Y-127733750D03*
X144615000Y-125908750D03*
%TD*%
D10*
%TO.C,R59*%
X132872500Y-104001250D03*
X132872500Y-105826250D03*
%TD*%
%TO.C,R106*%
X222725000Y-115431250D03*
X222725000Y-117256250D03*
%TD*%
D21*
%TO.C,C98*%
X172065000Y-109993750D03*
X170515000Y-109993750D03*
%TD*%
D10*
%TO.C,R56*%
X142080000Y-104001250D03*
X142080000Y-105826250D03*
%TD*%
D14*
%TO.C,C44*%
X52225000Y-134042500D03*
X50325000Y-134042500D03*
%TD*%
D10*
%TO.C,R27*%
X211295000Y-80387500D03*
X211295000Y-82212500D03*
%TD*%
D11*
%TO.C,C26*%
X79850000Y-112250000D03*
X79850000Y-110350000D03*
%TD*%
D14*
%TO.C,C92*%
X174465000Y-130631250D03*
X172565000Y-130631250D03*
%TD*%
D15*
%TO.C,C67*%
X189565000Y-112533750D03*
X191115000Y-112533750D03*
%TD*%
D26*
%TO.C,C91*%
X215422500Y-82262500D03*
X215422500Y-85337500D03*
%TD*%
D20*
%TO.C,C41*%
X70645000Y-130867500D03*
X72545000Y-130867500D03*
%TD*%
D18*
%TO.C,R78*%
X192205000Y-98087500D03*
X190380000Y-98087500D03*
%TD*%
D12*
%TO.C,R50*%
X135735000Y-127733750D03*
X135735000Y-125908750D03*
%TD*%
D15*
%TO.C,C107*%
X226395000Y-112533750D03*
X227945000Y-112533750D03*
%TD*%
D21*
%TO.C,C78*%
X153650000Y-109993750D03*
X152100000Y-109993750D03*
%TD*%
D24*
%TO.C,C21*%
X100082500Y-91657500D03*
X100082500Y-94357500D03*
%TD*%
D12*
%TO.C,R137*%
X237965000Y-117256250D03*
X237965000Y-115431250D03*
%TD*%
D39*
%TO.C,C13*%
X63266250Y-69940000D03*
X57041250Y-69940000D03*
%TD*%
D10*
%TO.C,R144*%
X224947500Y-104001250D03*
X224947500Y-105826250D03*
%TD*%
D13*
%TO.C,R61*%
X139580000Y-98087500D03*
X141405000Y-98087500D03*
%TD*%
%TO.C,R63*%
X135135000Y-90467500D03*
X136960000Y-90467500D03*
%TD*%
D10*
%TO.C,R30*%
X145890000Y-80387500D03*
X145890000Y-82212500D03*
%TD*%
D11*
%TO.C,C20*%
X107790000Y-125505000D03*
X107790000Y-123605000D03*
%TD*%
D18*
%TO.C,R95*%
X155375000Y-98087500D03*
X153550000Y-98087500D03*
%TD*%
D40*
%TO.C,FB1*%
X51153750Y-69940000D03*
X53278750Y-69940000D03*
%TD*%
D13*
%TO.C,R114*%
X208795000Y-90467500D03*
X210620000Y-90467500D03*
%TD*%
D41*
%TO.C,U7*%
X251352500Y-105861250D03*
X250702500Y-105861250D03*
X250052500Y-105861250D03*
X249402500Y-105861250D03*
X248752500Y-105861250D03*
X248102500Y-105861250D03*
X247452500Y-105861250D03*
X246802500Y-105861250D03*
X246802500Y-111586250D03*
X247452500Y-111586250D03*
X248102500Y-111586250D03*
X248752500Y-111586250D03*
X249402500Y-111586250D03*
X250052500Y-111586250D03*
X250702500Y-111586250D03*
X251352500Y-111586250D03*
%TD*%
D21*
%TO.C,C95*%
X185400000Y-109993750D03*
X183850000Y-109993750D03*
%TD*%
D11*
%TO.C,C12*%
X185260000Y-135708750D03*
X185260000Y-133808750D03*
%TD*%
D14*
%TO.C,C43*%
X52225000Y-137217500D03*
X50325000Y-137217500D03*
%TD*%
%TO.C,C110*%
X233517500Y-94277500D03*
X231617500Y-94277500D03*
%TD*%
D42*
%TO.C,D5*%
X109068750Y-82153750D03*
X112368750Y-82153750D03*
%TD*%
D18*
%TO.C,R6*%
X119287500Y-114380000D03*
X117462500Y-114380000D03*
%TD*%
D13*
%TO.C,R94*%
X153550000Y-95547500D03*
X155375000Y-95547500D03*
%TD*%
%TO.C,R112*%
X213240000Y-98087500D03*
X215065000Y-98087500D03*
%TD*%
D29*
%TO.C,D4*%
X257650000Y-106246250D03*
X257650000Y-102946250D03*
%TD*%
D12*
%TO.C,R102*%
X218275000Y-127733750D03*
X218275000Y-125908750D03*
%TD*%
D27*
%TO.C,IC3*%
X223712500Y-99357500D03*
X223712500Y-98087500D03*
X223712500Y-96817500D03*
X223712500Y-95547500D03*
X223712500Y-94277500D03*
X223712500Y-93007500D03*
X223712500Y-91737500D03*
X223712500Y-90467500D03*
X218562500Y-90467500D03*
X218562500Y-91737500D03*
X218562500Y-93007500D03*
X218562500Y-94277500D03*
X218562500Y-95547500D03*
X218562500Y-96817500D03*
X218562500Y-98087500D03*
X218562500Y-99357500D03*
%TD*%
D12*
%TO.C,R136*%
X236690000Y-127733750D03*
X236690000Y-125908750D03*
%TD*%
M02*
