%TF.GenerationSoftware,KiCad,Pcbnew,7.0.8*%
%TF.CreationDate,2023-12-28T19:08:51+01:00*%
%TF.ProjectId,overcycler3,6f766572-6379-4636-9c65-72332e6b6963,1*%
%TF.SameCoordinates,Original*%
%TF.FileFunction,Legend,Bot*%
%TF.FilePolarity,Positive*%
%FSLAX46Y46*%
G04 Gerber Fmt 4.6, Leading zero omitted, Abs format (unit mm)*
G04 Created by KiCad (PCBNEW 7.0.8) date 2023-12-28 19:08:51*
%MOMM*%
%LPD*%
G01*
G04 APERTURE LIST*
G04 Aperture macros list*
%AMRoundRect*
0 Rectangle with rounded corners*
0 $1 Rounding radius*
0 $2 $3 $4 $5 $6 $7 $8 $9 X,Y pos of 4 corners*
0 Add a 4 corners polygon primitive as box body*
4,1,4,$2,$3,$4,$5,$6,$7,$8,$9,$2,$3,0*
0 Add four circle primitives for the rounded corners*
1,1,$1+$1,$2,$3*
1,1,$1+$1,$4,$5*
1,1,$1+$1,$6,$7*
1,1,$1+$1,$8,$9*
0 Add four rect primitives between the rounded corners*
20,1,$1+$1,$2,$3,$4,$5,0*
20,1,$1+$1,$4,$5,$6,$7,0*
20,1,$1+$1,$6,$7,$8,$9,0*
20,1,$1+$1,$8,$9,$2,$3,0*%
G04 Aperture macros list end*
%ADD10C,4.064000*%
%ADD11C,3.000000*%
%ADD12C,1.600000*%
%ADD13C,4.000000*%
%ADD14O,1.600000X1.600000*%
%ADD15C,1.850000*%
%ADD16RoundRect,0.250000X-0.600000X0.600000X-0.600000X-0.600000X0.600000X-0.600000X0.600000X0.600000X0*%
%ADD17C,1.700000*%
%ADD18C,3.500000*%
%ADD19C,2.000000*%
%ADD20O,1.700000X1.700000*%
%ADD21C,2.500000*%
G04 APERTURE END LIST*
%LPC*%
D10*
%TO.C,HOLE2*%
X49142500Y-145317500D03*
%TD*%
%TO.C,HOLE3*%
X256142500Y-145317500D03*
%TD*%
%TO.C,HOLE4*%
X256142500Y-58317500D03*
%TD*%
%TO.C,HOLE1*%
X49142500Y-58317500D03*
%TD*%
D11*
%TO.C,J4*%
X200027500Y-64115000D03*
X216257500Y-64115000D03*
X200027500Y-57765000D03*
X216257500Y-57765000D03*
X200027500Y-70465000D03*
X216257500Y-70465000D03*
%TD*%
%TO.C,J2*%
X106027500Y-64115000D03*
X122257500Y-64115000D03*
X106027500Y-57765000D03*
X122257500Y-57765000D03*
X106027500Y-70465000D03*
X122257500Y-70465000D03*
%TD*%
D12*
%TO.C,J1*%
X63892500Y-63260000D03*
X66392500Y-63260000D03*
X66392500Y-61260000D03*
X63892500Y-61260000D03*
D13*
X59142500Y-58400000D03*
X71142500Y-58400000D03*
%TD*%
D12*
%TO.C,OC1*%
X114518750Y-85873750D03*
D14*
X111978750Y-85873750D03*
X109438750Y-85873750D03*
X106898750Y-85873750D03*
X106898750Y-93493750D03*
X109438750Y-93493750D03*
X111978750Y-93493750D03*
X114518750Y-93493750D03*
%TD*%
D15*
%TO.C,PS2*%
X52533750Y-76165000D03*
X55073750Y-76165000D03*
X60153750Y-76165000D03*
X65233750Y-76165000D03*
%TD*%
D16*
%TO.C,P2*%
X110330000Y-141780000D03*
D17*
X110330000Y-144320000D03*
X107790000Y-141780000D03*
X107790000Y-144320000D03*
X105250000Y-141780000D03*
X105250000Y-144320000D03*
X102710000Y-141780000D03*
X102710000Y-144320000D03*
X100170000Y-141780000D03*
X100170000Y-144320000D03*
X97630000Y-141780000D03*
X97630000Y-144320000D03*
X95090000Y-141780000D03*
X95090000Y-144320000D03*
X92550000Y-141780000D03*
X92550000Y-144320000D03*
X90010000Y-141780000D03*
X90010000Y-144320000D03*
X87470000Y-141780000D03*
X87470000Y-144320000D03*
X84930000Y-141780000D03*
X84930000Y-144320000D03*
X82390000Y-141780000D03*
X82390000Y-144320000D03*
X79850000Y-141780000D03*
X79850000Y-144320000D03*
X77310000Y-141780000D03*
X77310000Y-144320000D03*
X74770000Y-141780000D03*
X74770000Y-144320000D03*
X72230000Y-141780000D03*
X72230000Y-144320000D03*
X69690000Y-141780000D03*
X69690000Y-144320000D03*
X67150000Y-141780000D03*
X67150000Y-144320000D03*
X64610000Y-141780000D03*
X64610000Y-144320000D03*
X62070000Y-141780000D03*
X62070000Y-144320000D03*
%TD*%
D18*
%TO.C,SW2*%
X89142500Y-73290000D03*
X89142500Y-77290000D03*
X89142500Y-81290000D03*
X83142500Y-73290000D03*
X83142500Y-77290000D03*
X83142500Y-81290000D03*
%TD*%
D19*
%TO.C,SW1*%
X50295000Y-102485000D03*
X50295000Y-95985000D03*
X54795000Y-102485000D03*
X54795000Y-95985000D03*
%TD*%
D15*
%TO.C,PS1*%
X52533750Y-84585000D03*
X55073750Y-84585000D03*
X67773750Y-84585000D03*
X72853750Y-84585000D03*
X75393750Y-84585000D03*
%TD*%
D11*
%TO.C,RV1*%
X170142500Y-57210000D03*
X165142500Y-57210000D03*
X160142500Y-57210000D03*
X170142500Y-62210000D03*
X165142500Y-62210000D03*
X160142500Y-62210000D03*
%TD*%
%TO.C,J5*%
X229056250Y-64115000D03*
X245286250Y-64115000D03*
X229056250Y-57765000D03*
X245286250Y-57765000D03*
X229056250Y-70465000D03*
X245286250Y-70465000D03*
%TD*%
D17*
%TO.C,P1*%
X113295000Y-101680000D03*
D20*
X113295000Y-104220000D03*
X113295000Y-106760000D03*
X113295000Y-109300000D03*
X113295000Y-111840000D03*
X113295000Y-114380000D03*
%TD*%
D21*
%TO.C,J3*%
X145142500Y-56300000D03*
X135142500Y-56300000D03*
X132642500Y-65800000D03*
X140142500Y-65800000D03*
X147642500Y-65800000D03*
X135142500Y-68300000D03*
X145142500Y-68300000D03*
%TD*%
%LPD*%
M02*
