%TF.GenerationSoftware,KiCad,Pcbnew,8.0.1*%
%TF.CreationDate,2024-06-26T16:09:36+02:00*%
%TF.ProjectId,overcycler3,6f766572-6379-4636-9c65-72332e6b6963,2*%
%TF.SameCoordinates,Original*%
%TF.FileFunction,Legend,Bot*%
%TF.FilePolarity,Positive*%
%FSLAX46Y46*%
G04 Gerber Fmt 4.6, Leading zero omitted, Abs format (unit mm)*
G04 Created by KiCad (PCBNEW 8.0.1) date 2024-06-26 16:09:36*
%MOMM*%
%LPD*%
G01*
G04 APERTURE LIST*
G04 Aperture macros list*
%AMRoundRect*
0 Rectangle with rounded corners*
0 $1 Rounding radius*
0 $2 $3 $4 $5 $6 $7 $8 $9 X,Y pos of 4 corners*
0 Add a 4 corners polygon primitive as box body*
4,1,4,$2,$3,$4,$5,$6,$7,$8,$9,$2,$3,0*
0 Add four circle primitives for the rounded corners*
1,1,$1+$1,$2,$3*
1,1,$1+$1,$4,$5*
1,1,$1+$1,$6,$7*
1,1,$1+$1,$8,$9*
0 Add four rect primitives between the rounded corners*
20,1,$1+$1,$2,$3,$4,$5,0*
20,1,$1+$1,$4,$5,$6,$7,0*
20,1,$1+$1,$6,$7,$8,$9,0*
20,1,$1+$1,$8,$9,$2,$3,0*%
G04 Aperture macros list end*
%ADD10C,3.000000*%
%ADD11R,1.600000X1.600000*%
%ADD12O,1.600000X1.600000*%
%ADD13RoundRect,0.250000X-0.600000X-0.600000X0.600000X-0.600000X0.600000X0.600000X-0.600000X0.600000X0*%
%ADD14O,1.700000X1.700000*%
%ADD15C,8.000000*%
%ADD16RoundRect,0.250000X0.675000X-0.675000X0.675000X0.675000X-0.675000X0.675000X-0.675000X-0.675000X0*%
%ADD17C,1.850000*%
%ADD18RoundRect,0.250000X-0.600000X-0.725000X0.600000X-0.725000X0.600000X0.725000X-0.600000X0.725000X0*%
%ADD19O,1.700000X1.950000*%
%ADD20RoundRect,0.250000X-0.625000X0.350000X-0.625000X-0.350000X0.625000X-0.350000X0.625000X0.350000X0*%
%ADD21O,1.750000X1.200000*%
%ADD22C,2.000000*%
%ADD23C,1.700000*%
%ADD24RoundRect,0.250000X-0.600000X0.600000X-0.600000X-0.600000X0.600000X-0.600000X0.600000X0.600000X0*%
%ADD25C,3.500000*%
%ADD26RoundRect,0.250000X0.550000X0.550000X-0.550000X0.550000X-0.550000X-0.550000X0.550000X-0.550000X0*%
%ADD27C,1.600000*%
%ADD28C,4.000000*%
%ADD29C,2.500000*%
G04 APERTURE END LIST*
%LPC*%
D10*
%TO.C,J3*%
X170855000Y-9720000D03*
X186855000Y-9720000D03*
X170855000Y-3420000D03*
X186855000Y-3420000D03*
X170855000Y-16020000D03*
X186855000Y-16020000D03*
%TD*%
%TO.C,J2*%
X77855000Y-9720000D03*
X93855000Y-9720000D03*
X77855000Y-3420000D03*
X93855000Y-3420000D03*
X77855000Y-16020000D03*
X93855000Y-16020000D03*
%TD*%
D11*
%TO.C,OC1*%
X73769500Y-54697250D03*
D12*
X71229500Y-54697250D03*
X68689500Y-54697250D03*
X66149500Y-54697250D03*
X66149500Y-62317250D03*
X68689500Y-62317250D03*
X71229500Y-62317250D03*
X73769500Y-62317250D03*
%TD*%
D13*
%TO.C,J6*%
X76637000Y-73419750D03*
D14*
X76637000Y-75959750D03*
X76637000Y-78499750D03*
X76637000Y-81039750D03*
X76637000Y-83579750D03*
X76637000Y-86119750D03*
%TD*%
D15*
%TO.C,H4*%
X227990000Y-166460000D03*
%TD*%
%TO.C,H2*%
X227990000Y-13550000D03*
%TD*%
D16*
%TO.C,PS2*%
X8840000Y-57017500D03*
D17*
X11380000Y-57017500D03*
X16460000Y-57017500D03*
X21540000Y-57017500D03*
%TD*%
D18*
%TO.C,J9*%
X180112500Y-139930000D03*
D19*
X182612500Y-139930000D03*
X185112500Y-139930000D03*
X187612500Y-139930000D03*
X190112500Y-139930000D03*
X192612500Y-139930000D03*
X195112500Y-139930000D03*
X197612500Y-139930000D03*
%TD*%
D16*
%TO.C,PS1*%
X8840000Y-44000000D03*
D17*
X11380000Y-44000000D03*
X24080000Y-44000000D03*
X29160000Y-44000000D03*
X31700000Y-44000000D03*
%TD*%
D20*
%TO.C,J7*%
X12312000Y-103117250D03*
D21*
X12312000Y-105117250D03*
X12312000Y-107117250D03*
X12312000Y-109117250D03*
X12312000Y-111117250D03*
X12312000Y-113117250D03*
X12312000Y-115117250D03*
%TD*%
D22*
%TO.C,SW2*%
X18824500Y-82702250D03*
X18824500Y-76202250D03*
X23324500Y-82702250D03*
X23324500Y-76202250D03*
%TD*%
D23*
%TO.C,J8*%
X73429500Y-124537250D03*
D24*
X73429500Y-121997250D03*
D23*
X70889500Y-124537250D03*
X70889500Y-121997250D03*
X68349500Y-124537250D03*
X68349500Y-121997250D03*
X65809500Y-124537250D03*
X65809500Y-121997250D03*
X63269500Y-124537250D03*
X63269500Y-121997250D03*
X60729500Y-124537250D03*
X60729500Y-121997250D03*
X58189500Y-124537250D03*
X58189500Y-121997250D03*
X55649500Y-124537250D03*
X55649500Y-121997250D03*
%TD*%
D25*
%TO.C,SW1*%
X26840000Y-20550000D03*
X26840000Y-24550000D03*
X26840000Y-28550000D03*
X20840000Y-20550000D03*
X20840000Y-24550000D03*
X20840000Y-28550000D03*
%TD*%
D15*
%TO.C,H3*%
X5690000Y-166460000D03*
%TD*%
%TO.C,H1*%
X5690000Y-13550000D03*
%TD*%
D10*
%TO.C,RV1*%
X152840000Y-3020000D03*
X147840000Y-3020000D03*
X142840000Y-3020000D03*
X152840000Y-8020000D03*
X147840000Y-8020000D03*
X142840000Y-8020000D03*
%TD*%
%TO.C,J4*%
X201855000Y-9720000D03*
X217855000Y-9720000D03*
X201855000Y-3420000D03*
X217855000Y-3420000D03*
X201855000Y-16020000D03*
X217855000Y-16020000D03*
%TD*%
D26*
%TO.C,J5*%
X53590000Y-12487500D03*
D27*
X56090000Y-12487500D03*
X56090000Y-10487500D03*
X53590000Y-10487500D03*
D28*
X48840000Y-7627500D03*
X60840000Y-7627500D03*
%TD*%
D29*
%TO.C,J1*%
X121840000Y-1590000D03*
X111840000Y-1590000D03*
X109340000Y-11590000D03*
X116840000Y-11590000D03*
X124340000Y-11590000D03*
X111840000Y-13890000D03*
X121840000Y-13890000D03*
%TD*%
D20*
%TO.C,J10*%
X12312000Y-142487250D03*
D21*
X12312000Y-144487250D03*
X12312000Y-146487250D03*
X12312000Y-148487250D03*
X12312000Y-150487250D03*
X12312000Y-152487250D03*
X12312000Y-154487250D03*
%TD*%
%LPD*%
M02*
