%TF.GenerationSoftware,KiCad,Pcbnew,8.0.1*%
%TF.CreationDate,2024-07-09T16:35:20+02:00*%
%TF.ProjectId,overcycler3,6f766572-6379-4636-9c65-72332e6b6963,2*%
%TF.SameCoordinates,Original*%
%TF.FileFunction,Soldermask,Top*%
%TF.FilePolarity,Negative*%
%FSLAX46Y46*%
G04 Gerber Fmt 4.6, Leading zero omitted, Abs format (unit mm)*
G04 Created by KiCad (PCBNEW 8.0.1) date 2024-07-09 16:35:20*
%MOMM*%
%LPD*%
G01*
G04 APERTURE LIST*
G04 Aperture macros list*
%AMRoundRect*
0 Rectangle with rounded corners*
0 $1 Rounding radius*
0 $2 $3 $4 $5 $6 $7 $8 $9 X,Y pos of 4 corners*
0 Add a 4 corners polygon primitive as box body*
4,1,4,$2,$3,$4,$5,$6,$7,$8,$9,$2,$3,0*
0 Add four circle primitives for the rounded corners*
1,1,$1+$1,$2,$3*
1,1,$1+$1,$4,$5*
1,1,$1+$1,$6,$7*
1,1,$1+$1,$8,$9*
0 Add four rect primitives between the rounded corners*
20,1,$1+$1,$2,$3,$4,$5,0*
20,1,$1+$1,$4,$5,$6,$7,0*
20,1,$1+$1,$6,$7,$8,$9,0*
20,1,$1+$1,$8,$9,$2,$3,0*%
G04 Aperture macros list end*
%ADD10RoundRect,0.250000X0.475000X-0.250000X0.475000X0.250000X-0.475000X0.250000X-0.475000X-0.250000X0*%
%ADD11RoundRect,0.250000X-0.250000X-0.475000X0.250000X-0.475000X0.250000X0.475000X-0.250000X0.475000X0*%
%ADD12RoundRect,0.250000X0.262500X0.450000X-0.262500X0.450000X-0.262500X-0.450000X0.262500X-0.450000X0*%
%ADD13RoundRect,0.250000X-0.650000X0.325000X-0.650000X-0.325000X0.650000X-0.325000X0.650000X0.325000X0*%
%ADD14RoundRect,0.250000X0.450000X-0.262500X0.450000X0.262500X-0.450000X0.262500X-0.450000X-0.262500X0*%
%ADD15RoundRect,0.250000X-0.450000X0.262500X-0.450000X-0.262500X0.450000X-0.262500X0.450000X0.262500X0*%
%ADD16RoundRect,0.250000X0.250000X0.475000X-0.250000X0.475000X-0.250000X-0.475000X0.250000X-0.475000X0*%
%ADD17RoundRect,0.225000X0.225000X0.250000X-0.225000X0.250000X-0.225000X-0.250000X0.225000X-0.250000X0*%
%ADD18RoundRect,0.250000X-0.475000X0.250000X-0.475000X-0.250000X0.475000X-0.250000X0.475000X0.250000X0*%
%ADD19RoundRect,0.200000X0.275000X-0.200000X0.275000X0.200000X-0.275000X0.200000X-0.275000X-0.200000X0*%
%ADD20RoundRect,0.100000X0.500000X0.100000X-0.500000X0.100000X-0.500000X-0.100000X0.500000X-0.100000X0*%
%ADD21RoundRect,0.150000X0.150000X-0.825000X0.150000X0.825000X-0.150000X0.825000X-0.150000X-0.825000X0*%
%ADD22RoundRect,0.250000X-0.262500X-0.450000X0.262500X-0.450000X0.262500X0.450000X-0.262500X0.450000X0*%
%ADD23RoundRect,0.225000X-0.225000X-0.250000X0.225000X-0.250000X0.225000X0.250000X-0.225000X0.250000X0*%
%ADD24RoundRect,0.250000X-0.787500X-1.025000X0.787500X-1.025000X0.787500X1.025000X-0.787500X1.025000X0*%
%ADD25RoundRect,0.250000X0.503814X0.132583X0.132583X0.503814X-0.503814X-0.132583X-0.132583X-0.503814X0*%
%ADD26RoundRect,0.250000X0.650000X-0.325000X0.650000X0.325000X-0.650000X0.325000X-0.650000X-0.325000X0*%
%ADD27C,3.000000*%
%ADD28R,1.600000X1.600000*%
%ADD29O,1.600000X1.600000*%
%ADD30RoundRect,0.250000X-0.600000X-0.600000X0.600000X-0.600000X0.600000X0.600000X-0.600000X0.600000X0*%
%ADD31O,1.700000X1.700000*%
%ADD32C,8.000000*%
%ADD33RoundRect,0.250000X0.925000X-0.412500X0.925000X0.412500X-0.925000X0.412500X-0.925000X-0.412500X0*%
%ADD34RoundRect,0.150000X-0.150000X0.875000X-0.150000X-0.875000X0.150000X-0.875000X0.150000X0.875000X0*%
%ADD35RoundRect,0.250000X0.675000X-0.675000X0.675000X0.675000X-0.675000X0.675000X-0.675000X-0.675000X0*%
%ADD36C,1.850000*%
%ADD37RoundRect,0.150000X0.725000X0.150000X-0.725000X0.150000X-0.725000X-0.150000X0.725000X-0.150000X0*%
%ADD38RoundRect,0.250000X-0.925000X0.412500X-0.925000X-0.412500X0.925000X-0.412500X0.925000X0.412500X0*%
%ADD39RoundRect,0.250000X1.500000X0.350000X-1.500000X0.350000X-1.500000X-0.350000X1.500000X-0.350000X0*%
%ADD40RoundRect,0.250000X-0.600000X-0.725000X0.600000X-0.725000X0.600000X0.725000X-0.600000X0.725000X0*%
%ADD41O,1.700000X1.950000*%
%ADD42RoundRect,0.250000X-0.625000X0.350000X-0.625000X-0.350000X0.625000X-0.350000X0.625000X0.350000X0*%
%ADD43O,1.750000X1.200000*%
%ADD44RoundRect,0.225000X0.225000X0.375000X-0.225000X0.375000X-0.225000X-0.375000X0.225000X-0.375000X0*%
%ADD45RoundRect,0.250000X-0.425000X0.450000X-0.425000X-0.450000X0.425000X-0.450000X0.425000X0.450000X0*%
%ADD46RoundRect,0.150000X-0.875000X-0.150000X0.875000X-0.150000X0.875000X0.150000X-0.875000X0.150000X0*%
%ADD47RoundRect,0.150000X-0.725000X-0.150000X0.725000X-0.150000X0.725000X0.150000X-0.725000X0.150000X0*%
%ADD48C,2.000000*%
%ADD49RoundRect,0.150000X0.150000X-0.587500X0.150000X0.587500X-0.150000X0.587500X-0.150000X-0.587500X0*%
%ADD50C,1.700000*%
%ADD51RoundRect,0.250000X-0.600000X0.600000X-0.600000X-0.600000X0.600000X-0.600000X0.600000X0.600000X0*%
%ADD52C,3.500000*%
%ADD53RoundRect,0.150000X0.875000X0.150000X-0.875000X0.150000X-0.875000X-0.150000X0.875000X-0.150000X0*%
%ADD54RoundRect,0.075000X-0.075000X0.662500X-0.075000X-0.662500X0.075000X-0.662500X0.075000X0.662500X0*%
%ADD55RoundRect,0.075000X-0.662500X0.075000X-0.662500X-0.075000X0.662500X-0.075000X0.662500X0.075000X0*%
%ADD56RoundRect,0.200000X0.200000X0.275000X-0.200000X0.275000X-0.200000X-0.275000X0.200000X-0.275000X0*%
%ADD57RoundRect,0.225000X-0.225000X-0.375000X0.225000X-0.375000X0.225000X0.375000X-0.225000X0.375000X0*%
%ADD58RoundRect,0.250000X0.425000X-0.450000X0.425000X0.450000X-0.425000X0.450000X-0.425000X-0.450000X0*%
%ADD59RoundRect,0.250000X0.550000X0.550000X-0.550000X0.550000X-0.550000X-0.550000X0.550000X-0.550000X0*%
%ADD60C,1.600000*%
%ADD61C,4.000000*%
%ADD62RoundRect,0.218750X0.381250X-0.218750X0.381250X0.218750X-0.381250X0.218750X-0.381250X-0.218750X0*%
%ADD63RoundRect,0.050000X-0.387500X-0.050000X0.387500X-0.050000X0.387500X0.050000X-0.387500X0.050000X0*%
%ADD64RoundRect,0.050000X-0.050000X-0.387500X0.050000X-0.387500X0.050000X0.387500X-0.050000X0.387500X0*%
%ADD65R,2.600000X2.600000*%
%ADD66C,2.500000*%
G04 APERTURE END LIST*
D10*
%TO.C,C103*%
X158679500Y-105019750D03*
X158679500Y-103119750D03*
%TD*%
D11*
%TO.C,C112*%
X63589500Y-109149750D03*
X65489500Y-109149750D03*
%TD*%
D12*
%TO.C,R100*%
X131274500Y-87877250D03*
X129449500Y-87877250D03*
%TD*%
D13*
%TO.C,C26*%
X29667200Y-56994000D03*
X29667200Y-59944000D03*
%TD*%
D10*
%TO.C,C31*%
X45280750Y-75557250D03*
X45280750Y-73657250D03*
%TD*%
D14*
%TO.C,R80*%
X181162000Y-77677250D03*
X181162000Y-75852250D03*
%TD*%
D15*
%TO.C,R70*%
X123059500Y-75852250D03*
X123059500Y-77677250D03*
%TD*%
D16*
%TO.C,C89*%
X125342000Y-99942250D03*
X123442000Y-99942250D03*
%TD*%
D14*
%TO.C,R137*%
X230434500Y-118952250D03*
X230434500Y-117127250D03*
%TD*%
D17*
%TO.C,C54*%
X187334500Y-80892250D03*
X185784500Y-80892250D03*
%TD*%
D16*
%TO.C,C94*%
X170427000Y-99942250D03*
X168527000Y-99942250D03*
%TD*%
D14*
%TO.C,R131*%
X191069500Y-97044750D03*
X191069500Y-95219750D03*
%TD*%
D15*
%TO.C,R145*%
X217099500Y-137724750D03*
X217099500Y-139549750D03*
%TD*%
D18*
%TO.C,C42*%
X197037000Y-75814750D03*
X197037000Y-77714750D03*
%TD*%
D10*
%TO.C,C84*%
X72539500Y-89007250D03*
X72539500Y-87107250D03*
%TD*%
D17*
%TO.C,C49*%
X132407000Y-80892250D03*
X130857000Y-80892250D03*
%TD*%
D14*
%TO.C,R134*%
X213612000Y-97044750D03*
X213612000Y-95219750D03*
%TD*%
D19*
%TO.C,R91*%
X40781500Y-85207850D03*
X40781500Y-83557850D03*
%TD*%
D20*
%TO.C,U4*%
X127882000Y-85019750D03*
X127882000Y-84384750D03*
X127882000Y-83749750D03*
X127882000Y-83114750D03*
X127882000Y-82479750D03*
X127882000Y-81844750D03*
X127882000Y-81209750D03*
X127882000Y-80574750D03*
X122682000Y-80574750D03*
X122682000Y-81209750D03*
X122682000Y-81844750D03*
X122682000Y-82479750D03*
X122682000Y-83114750D03*
X122682000Y-83749750D03*
X122682000Y-84384750D03*
X122682000Y-85019750D03*
%TD*%
D12*
%TO.C,R41*%
X76597000Y-50977250D03*
X74772000Y-50977250D03*
%TD*%
D16*
%TO.C,C87*%
X102799500Y-99942250D03*
X100899500Y-99942250D03*
%TD*%
D21*
%TO.C,U10*%
X102799500Y-108132250D03*
X104069500Y-108132250D03*
X105339500Y-108132250D03*
X106609500Y-108132250D03*
X107879500Y-108132250D03*
X109149500Y-108132250D03*
X110419500Y-108132250D03*
X110419500Y-103182250D03*
X109149500Y-103182250D03*
X107879500Y-103182250D03*
X106609500Y-103182250D03*
X105339500Y-103182250D03*
X104069500Y-103182250D03*
X102799500Y-103182250D03*
%TD*%
D11*
%TO.C,C22*%
X157987000Y-53904750D03*
X159887000Y-53904750D03*
%TD*%
D15*
%TO.C,R116*%
X182174500Y-93394750D03*
X182174500Y-95219750D03*
%TD*%
D11*
%TO.C,C24*%
X203072000Y-53904750D03*
X204972000Y-53904750D03*
%TD*%
D12*
%TO.C,R40*%
X227794500Y-50094750D03*
X225969500Y-50094750D03*
%TD*%
D11*
%TO.C,C97*%
X198049500Y-99942250D03*
X199949500Y-99942250D03*
%TD*%
%TO.C,C80*%
X146239500Y-87877250D03*
X148139500Y-87877250D03*
%TD*%
%TO.C,C92*%
X158304500Y-99942250D03*
X160204500Y-99942250D03*
%TD*%
D22*
%TO.C,R56*%
X203109500Y-57714750D03*
X204934500Y-57714750D03*
%TD*%
%TO.C,R61*%
X59254500Y-58497250D03*
X61079500Y-58497250D03*
%TD*%
D12*
%TO.C,R3*%
X148352500Y-22726250D03*
X146527500Y-22726250D03*
%TD*%
D20*
%TO.C,U6*%
X172967000Y-85019750D03*
X172967000Y-84384750D03*
X172967000Y-83749750D03*
X172967000Y-83114750D03*
X172967000Y-82479750D03*
X172967000Y-81844750D03*
X172967000Y-81209750D03*
X172967000Y-80574750D03*
X167767000Y-80574750D03*
X167767000Y-81209750D03*
X167767000Y-81844750D03*
X167767000Y-82479750D03*
X167767000Y-83114750D03*
X167767000Y-83749750D03*
X167767000Y-84384750D03*
X167767000Y-85019750D03*
%TD*%
D18*
%TO.C,C3*%
X150932500Y-34476250D03*
X150932500Y-36376250D03*
%TD*%
D22*
%TO.C,R52*%
X158024500Y-57714750D03*
X159849500Y-57714750D03*
%TD*%
D18*
%TO.C,C2*%
X150932500Y-21141250D03*
X150932500Y-23041250D03*
%TD*%
D14*
%TO.C,R106*%
X121154500Y-89742250D03*
X121154500Y-87917250D03*
%TD*%
%TO.C,R108*%
X166239500Y-89742250D03*
X166239500Y-87917250D03*
%TD*%
D23*
%TO.C,C73*%
X185784500Y-83432250D03*
X187334500Y-83432250D03*
%TD*%
D14*
%TO.C,R67*%
X103692000Y-77677250D03*
X103692000Y-75852250D03*
%TD*%
D12*
%TO.C,R38*%
X209379500Y-50094750D03*
X207554500Y-50094750D03*
%TD*%
D17*
%TO.C,C52*%
X164792000Y-80892250D03*
X163242000Y-80892250D03*
%TD*%
D14*
%TO.C,R120*%
X105339500Y-97044750D03*
X105339500Y-95219750D03*
%TD*%
D15*
%TO.C,R14*%
X127028250Y-40014750D03*
X127028250Y-41839750D03*
%TD*%
D23*
%TO.C,C65*%
X95614500Y-83432250D03*
X97164500Y-83432250D03*
%TD*%
D15*
%TO.C,R114*%
X137089500Y-93394750D03*
X137089500Y-95219750D03*
%TD*%
D16*
%TO.C,C14*%
X119247000Y-52634750D03*
X117347000Y-52634750D03*
%TD*%
D23*
%TO.C,C76*%
X221662000Y-83432250D03*
X223212000Y-83432250D03*
%TD*%
D24*
%TO.C,C4*%
X6997500Y-36380000D03*
X13222500Y-36380000D03*
%TD*%
D16*
%TO.C,C108*%
X96129500Y-105022250D03*
X94229500Y-105022250D03*
%TD*%
D14*
%TO.C,R128*%
X168527000Y-97044750D03*
X168527000Y-95219750D03*
%TD*%
D16*
%TO.C,C16*%
X164332000Y-52634750D03*
X162432000Y-52634750D03*
%TD*%
D25*
%TO.C,R98*%
X94494735Y-88522485D03*
X93204265Y-87232015D03*
%TD*%
D11*
%TO.C,C122*%
X218052000Y-134867250D03*
X219952000Y-134867250D03*
%TD*%
D26*
%TO.C,C63*%
X226247000Y-83637250D03*
X226247000Y-80687250D03*
%TD*%
D14*
%TO.C,R27*%
X213864500Y-47197250D03*
X213864500Y-45372250D03*
%TD*%
D27*
%TO.C,J3*%
X170855000Y-9720000D03*
X186855000Y-9720000D03*
X170855000Y-3420000D03*
X186855000Y-3420000D03*
X170855000Y-16020000D03*
X186855000Y-16020000D03*
%TD*%
D14*
%TO.C,R20*%
X160207000Y-43427250D03*
X160207000Y-41602250D03*
%TD*%
D15*
%TO.C,R7*%
X158235000Y-25623750D03*
X158235000Y-27448750D03*
%TD*%
D14*
%TO.C,R130*%
X177407000Y-97044750D03*
X177407000Y-95219750D03*
%TD*%
D15*
%TO.C,R97*%
X226247000Y-86647250D03*
X226247000Y-88472250D03*
%TD*%
D22*
%TO.C,R4*%
X154147000Y-22726250D03*
X155972000Y-22726250D03*
%TD*%
D23*
%TO.C,C67*%
X118157000Y-83432250D03*
X119707000Y-83432250D03*
%TD*%
D22*
%TO.C,R35*%
X176439500Y-50094750D03*
X178264500Y-50094750D03*
%TD*%
D18*
%TO.C,C43*%
X206879500Y-75814750D03*
X206879500Y-77714750D03*
%TD*%
D27*
%TO.C,J2*%
X77855000Y-9720000D03*
X93855000Y-9720000D03*
X77855000Y-3420000D03*
X93855000Y-3420000D03*
X77855000Y-16020000D03*
X93855000Y-16020000D03*
%TD*%
D18*
%TO.C,C41*%
X184337000Y-75814750D03*
X184337000Y-77714750D03*
%TD*%
D15*
%TO.C,R113*%
X114547000Y-93394750D03*
X114547000Y-95219750D03*
%TD*%
D26*
%TO.C,C58*%
X113534500Y-83637250D03*
X113534500Y-80687250D03*
%TD*%
D18*
%TO.C,C40*%
X174495750Y-75814750D03*
X174495750Y-77714750D03*
%TD*%
D11*
%TO.C,C1*%
X154110000Y-19868750D03*
X156010000Y-19868750D03*
%TD*%
D23*
%TO.C,C72*%
X176577000Y-83432250D03*
X178127000Y-83432250D03*
%TD*%
D12*
%TO.C,R46*%
X209379500Y-55174750D03*
X207554500Y-55174750D03*
%TD*%
D15*
%TO.C,R143*%
X213607000Y-133319750D03*
X213607000Y-135144750D03*
%TD*%
D28*
%TO.C,OC1*%
X73769500Y-54697250D03*
D29*
X71229500Y-54697250D03*
X68689500Y-54697250D03*
X66149500Y-54697250D03*
X66149500Y-62317250D03*
X68689500Y-62317250D03*
X71229500Y-62317250D03*
X73769500Y-62317250D03*
%TD*%
D14*
%TO.C,R110*%
X211324500Y-89742250D03*
X211324500Y-87917250D03*
%TD*%
%TO.C,R109*%
X188782000Y-89742250D03*
X188782000Y-87917250D03*
%TD*%
D16*
%TO.C,C129*%
X6597000Y-156837250D03*
X4697000Y-156837250D03*
%TD*%
D14*
%TO.C,R83*%
X193862000Y-77677250D03*
X193862000Y-75852250D03*
%TD*%
%TO.C,R72*%
X136077000Y-77677250D03*
X136077000Y-75852250D03*
%TD*%
%TO.C,R149*%
X217099500Y-149749750D03*
X217099500Y-147924750D03*
%TD*%
D11*
%TO.C,C82*%
X191324500Y-87877250D03*
X193224500Y-87877250D03*
%TD*%
D19*
%TO.C,R1*%
X54275250Y-18907500D03*
X54275250Y-17257500D03*
%TD*%
D20*
%TO.C,U5*%
X150424500Y-85019750D03*
X150424500Y-84384750D03*
X150424500Y-83749750D03*
X150424500Y-83114750D03*
X150424500Y-82479750D03*
X150424500Y-81844750D03*
X150424500Y-81209750D03*
X150424500Y-80574750D03*
X145224500Y-80574750D03*
X145224500Y-81209750D03*
X145224500Y-81844750D03*
X145224500Y-82479750D03*
X145224500Y-83114750D03*
X145224500Y-83749750D03*
X145224500Y-84384750D03*
X145224500Y-85019750D03*
%TD*%
D16*
%TO.C,C130*%
X59514000Y-22051250D03*
X57614000Y-22051250D03*
%TD*%
D14*
%TO.C,R87*%
X216404500Y-77677250D03*
X216404500Y-75852250D03*
%TD*%
D12*
%TO.C,R103*%
X198902000Y-87877250D03*
X197077000Y-87877250D03*
%TD*%
D11*
%TO.C,C95*%
X175507000Y-99942250D03*
X177407000Y-99942250D03*
%TD*%
D20*
%TO.C,U8*%
X218052000Y-85019750D03*
X218052000Y-84384750D03*
X218052000Y-83749750D03*
X218052000Y-83114750D03*
X218052000Y-82479750D03*
X218052000Y-81844750D03*
X218052000Y-81209750D03*
X218052000Y-80574750D03*
X212852000Y-80574750D03*
X212852000Y-81209750D03*
X212852000Y-81844750D03*
X212852000Y-82479750D03*
X212852000Y-83114750D03*
X212852000Y-83749750D03*
X212852000Y-84384750D03*
X212852000Y-85019750D03*
%TD*%
D16*
%TO.C,C124*%
X6597000Y-144137250D03*
X4697000Y-144137250D03*
%TD*%
D14*
%TO.C,R23*%
X123694500Y-47197250D03*
X123694500Y-45372250D03*
%TD*%
D17*
%TO.C,C56*%
X209877000Y-80892250D03*
X208327000Y-80892250D03*
%TD*%
D30*
%TO.C,J6*%
X76637000Y-73419750D03*
D31*
X76637000Y-75959750D03*
X76637000Y-78499750D03*
X76637000Y-81039750D03*
X76637000Y-83579750D03*
X76637000Y-86119750D03*
%TD*%
D15*
%TO.C,R94*%
X158619500Y-86647250D03*
X158619500Y-88472250D03*
%TD*%
D17*
%TO.C,C48*%
X119707000Y-80892250D03*
X118157000Y-80892250D03*
%TD*%
D11*
%TO.C,C83*%
X213867000Y-87877250D03*
X215767000Y-87877250D03*
%TD*%
D14*
%TO.C,R79*%
X171319500Y-77677250D03*
X171319500Y-75852250D03*
%TD*%
D16*
%TO.C,C113*%
X6597000Y-111117250D03*
X4697000Y-111117250D03*
%TD*%
D22*
%TO.C,R47*%
X221524500Y-55174750D03*
X223349500Y-55174750D03*
%TD*%
D16*
%TO.C,C15*%
X133217000Y-52634750D03*
X131317000Y-52634750D03*
%TD*%
%TO.C,C127*%
X6597000Y-150487250D03*
X4697000Y-150487250D03*
%TD*%
D23*
%TO.C,C74*%
X199119500Y-83432250D03*
X200669500Y-83432250D03*
%TD*%
D15*
%TO.C,R139*%
X153790000Y-34513750D03*
X153790000Y-36338750D03*
%TD*%
D16*
%TO.C,C45*%
X58854500Y-80087250D03*
X56954500Y-80087250D03*
%TD*%
D14*
%TO.C,R28*%
X217039500Y-47197250D03*
X217039500Y-45372250D03*
%TD*%
D11*
%TO.C,C91*%
X152964500Y-99942250D03*
X154864500Y-99942250D03*
%TD*%
D32*
%TO.C,H4*%
X227990000Y-166460000D03*
%TD*%
D16*
%TO.C,C64*%
X29009500Y-82468500D03*
X27109500Y-82468500D03*
%TD*%
D22*
%TO.C,R31*%
X131354500Y-50094750D03*
X133179500Y-50094750D03*
%TD*%
D10*
%TO.C,C105*%
X203764500Y-105019750D03*
X203764500Y-103119750D03*
%TD*%
D19*
%TO.C,R90*%
X39194000Y-85209750D03*
X39194000Y-83559750D03*
%TD*%
D11*
%TO.C,C28*%
X73769500Y-65809750D03*
X75669500Y-65809750D03*
%TD*%
D14*
%TO.C,R147*%
X217099500Y-145304750D03*
X217099500Y-143479750D03*
%TD*%
D10*
%TO.C,C29*%
X86547000Y-67046750D03*
X86547000Y-65146750D03*
%TD*%
D32*
%TO.C,H2*%
X227990000Y-13550000D03*
%TD*%
D15*
%TO.C,R96*%
X203704500Y-86647250D03*
X203704500Y-88472250D03*
%TD*%
D12*
%TO.C,R32*%
X137624500Y-50094750D03*
X135799500Y-50094750D03*
%TD*%
D16*
%TO.C,C109*%
X34724500Y-106927250D03*
X32824500Y-106927250D03*
%TD*%
%TO.C,C23*%
X182747000Y-53904750D03*
X180847000Y-53904750D03*
%TD*%
D22*
%TO.C,R63*%
X66864500Y-65809750D03*
X68689500Y-65809750D03*
%TD*%
D14*
%TO.C,R8*%
X141090000Y-31893750D03*
X141090000Y-30068750D03*
%TD*%
D10*
%TO.C,C119*%
X213607000Y-139627250D03*
X213607000Y-137727250D03*
%TD*%
D12*
%TO.C,R34*%
X164294500Y-50094750D03*
X162469500Y-50094750D03*
%TD*%
D33*
%TO.C,C120*%
X227577000Y-127197250D03*
X227577000Y-124122250D03*
%TD*%
D22*
%TO.C,R142*%
X150695000Y-17011250D03*
X152520000Y-17011250D03*
%TD*%
D20*
%TO.C,U3*%
X105339500Y-85019750D03*
X105339500Y-84384750D03*
X105339500Y-83749750D03*
X105339500Y-83114750D03*
X105339500Y-82479750D03*
X105339500Y-81844750D03*
X105339500Y-81209750D03*
X105339500Y-80574750D03*
X100139500Y-80574750D03*
X100139500Y-81209750D03*
X100139500Y-81844750D03*
X100139500Y-82479750D03*
X100139500Y-83114750D03*
X100139500Y-83749750D03*
X100139500Y-84384750D03*
X100139500Y-85019750D03*
%TD*%
D15*
%TO.C,R117*%
X204717000Y-93394750D03*
X204717000Y-95219750D03*
%TD*%
D34*
%TO.C,U20*%
X62054000Y-25021250D03*
X60784000Y-25021250D03*
X59514000Y-25021250D03*
X58244000Y-25021250D03*
X56974000Y-25021250D03*
X55704000Y-25021250D03*
X54434000Y-25021250D03*
X53164000Y-25021250D03*
X53164000Y-34321250D03*
X54434000Y-34321250D03*
X55704000Y-34321250D03*
X56974000Y-34321250D03*
X58244000Y-34321250D03*
X59514000Y-34321250D03*
X60784000Y-34321250D03*
X62054000Y-34321250D03*
%TD*%
D14*
%TO.C,R75*%
X148777000Y-77677250D03*
X148777000Y-75852250D03*
%TD*%
D15*
%TO.C,R150*%
X219957000Y-147924750D03*
X219957000Y-149749750D03*
%TD*%
D12*
%TO.C,R89*%
X28972000Y-79452250D03*
X27147000Y-79452250D03*
%TD*%
D35*
%TO.C,PS2*%
X8840000Y-57017500D03*
D36*
X11380000Y-57017500D03*
X16460000Y-57017500D03*
X21540000Y-57017500D03*
%TD*%
D21*
%TO.C,U1*%
X147440000Y-31233750D03*
X148710000Y-31233750D03*
X149980000Y-31233750D03*
X151250000Y-31233750D03*
X152520000Y-31233750D03*
X153790000Y-31233750D03*
X155060000Y-31233750D03*
X155060000Y-26283750D03*
X153790000Y-26283750D03*
X152520000Y-26283750D03*
X151250000Y-26283750D03*
X149980000Y-26283750D03*
X148710000Y-26283750D03*
X147440000Y-26283750D03*
%TD*%
D26*
%TO.C,C59*%
X136077000Y-83637250D03*
X136077000Y-80687250D03*
%TD*%
D11*
%TO.C,C131*%
X62054000Y-37291250D03*
X63954000Y-37291250D03*
%TD*%
D14*
%TO.C,R21*%
X180527000Y-43427250D03*
X180527000Y-41602250D03*
%TD*%
D16*
%TO.C,C98*%
X215512000Y-99942250D03*
X213612000Y-99942250D03*
%TD*%
D14*
%TO.C,R84*%
X203704500Y-77677250D03*
X203704500Y-75852250D03*
%TD*%
D37*
%TO.C,IC1*%
X127857000Y-58984750D03*
X127857000Y-57714750D03*
X127857000Y-56444750D03*
X127857000Y-55174750D03*
X127857000Y-53904750D03*
X127857000Y-52634750D03*
X127857000Y-51364750D03*
X127857000Y-50094750D03*
X122707000Y-50094750D03*
X122707000Y-51364750D03*
X122707000Y-52634750D03*
X122707000Y-53904750D03*
X122707000Y-55174750D03*
X122707000Y-56444750D03*
X122707000Y-57714750D03*
X122707000Y-58984750D03*
%TD*%
D14*
%TO.C,R65*%
X97342000Y-77677250D03*
X97342000Y-75852250D03*
%TD*%
D15*
%TO.C,R5*%
X141090000Y-25623750D03*
X141090000Y-27448750D03*
%TD*%
D38*
%TO.C,C12*%
X221524500Y-41889750D03*
X221524500Y-44964750D03*
%TD*%
D11*
%TO.C,C5*%
X156372500Y-37648750D03*
X158272500Y-37648750D03*
%TD*%
D39*
%TO.C,Y1*%
X54539500Y-75557250D03*
X49039500Y-75557250D03*
%TD*%
D38*
%TO.C,C10*%
X176439500Y-41889750D03*
X176439500Y-44964750D03*
%TD*%
D17*
%TO.C,C47*%
X109864500Y-80892250D03*
X108314500Y-80892250D03*
%TD*%
D12*
%TO.C,R51*%
X137624500Y-57714750D03*
X135799500Y-57714750D03*
%TD*%
D10*
%TO.C,C101*%
X113594500Y-105019750D03*
X113594500Y-103119750D03*
%TD*%
D14*
%TO.C,R76*%
X158619500Y-77677250D03*
X158619500Y-75852250D03*
%TD*%
D12*
%TO.C,R11*%
X148352500Y-34791250D03*
X146527500Y-34791250D03*
%TD*%
D22*
%TO.C,R45*%
X176439500Y-55174750D03*
X178264500Y-55174750D03*
%TD*%
D14*
%TO.C,R126*%
X150424500Y-97044750D03*
X150424500Y-95219750D03*
%TD*%
%TO.C,R107*%
X143697000Y-89742250D03*
X143697000Y-87917250D03*
%TD*%
%TO.C,R152*%
X230434500Y-149749750D03*
X230434500Y-147924750D03*
%TD*%
%TO.C,R18*%
X115122000Y-43427250D03*
X115122000Y-41602250D03*
%TD*%
%TO.C,R148*%
X230434500Y-145304750D03*
X230434500Y-143479750D03*
%TD*%
D16*
%TO.C,C18*%
X209417000Y-52634750D03*
X207517000Y-52634750D03*
%TD*%
D19*
%TO.C,R2*%
X55862750Y-18907500D03*
X55862750Y-17257500D03*
%TD*%
D16*
%TO.C,C116*%
X6597000Y-117467250D03*
X4697000Y-117467250D03*
%TD*%
D40*
%TO.C,J9*%
X180112500Y-139930000D03*
D41*
X182612500Y-139930000D03*
X185112500Y-139930000D03*
X187612500Y-139930000D03*
X190112500Y-139930000D03*
X192612500Y-139930000D03*
X195112500Y-139930000D03*
X197612500Y-139930000D03*
%TD*%
D14*
%TO.C,R22*%
X225612000Y-43427250D03*
X225612000Y-41602250D03*
%TD*%
%TO.C,R124*%
X132322000Y-97044750D03*
X132322000Y-95219750D03*
%TD*%
D22*
%TO.C,R33*%
X158024500Y-50094750D03*
X159849500Y-50094750D03*
%TD*%
D18*
%TO.C,C36*%
X129409500Y-75814750D03*
X129409500Y-77714750D03*
%TD*%
D14*
%TO.C,R10*%
X158235000Y-31893750D03*
X158235000Y-30068750D03*
%TD*%
D17*
%TO.C,C51*%
X154949500Y-80892250D03*
X153399500Y-80892250D03*
%TD*%
D21*
%TO.C,U11*%
X125342000Y-108132250D03*
X126612000Y-108132250D03*
X127882000Y-108132250D03*
X129152000Y-108132250D03*
X130422000Y-108132250D03*
X131692000Y-108132250D03*
X132962000Y-108132250D03*
X132962000Y-103182250D03*
X131692000Y-103182250D03*
X130422000Y-103182250D03*
X129152000Y-103182250D03*
X127882000Y-103182250D03*
X126612000Y-103182250D03*
X125342000Y-103182250D03*
%TD*%
D22*
%TO.C,R12*%
X156410000Y-34632500D03*
X158235000Y-34632500D03*
%TD*%
D18*
%TO.C,C37*%
X139252000Y-75814750D03*
X139252000Y-77714750D03*
%TD*%
D15*
%TO.C,R15*%
X168779500Y-40014750D03*
X168779500Y-41839750D03*
%TD*%
D14*
%TO.C,R132*%
X195509500Y-97044750D03*
X195509500Y-95219750D03*
%TD*%
%TO.C,R26*%
X171954500Y-47197250D03*
X171954500Y-45372250D03*
%TD*%
D12*
%TO.C,R44*%
X164294500Y-55174750D03*
X162469500Y-55174750D03*
%TD*%
D35*
%TO.C,PS1*%
X8840000Y-44000000D03*
D36*
X11380000Y-44000000D03*
X24080000Y-44000000D03*
X29160000Y-44000000D03*
X31700000Y-44000000D03*
%TD*%
D17*
%TO.C,C46*%
X97164500Y-80892250D03*
X95614500Y-80892250D03*
%TD*%
D16*
%TO.C,C93*%
X165284499Y-99942250D03*
X163384501Y-99942250D03*
%TD*%
D14*
%TO.C,R71*%
X126234500Y-77677250D03*
X126234500Y-75852250D03*
%TD*%
%TO.C,R19*%
X135442000Y-43427250D03*
X135442000Y-41602250D03*
%TD*%
D11*
%TO.C,C20*%
X112902000Y-53904750D03*
X114802000Y-53904750D03*
%TD*%
D10*
%TO.C,C104*%
X181224500Y-105019750D03*
X181224500Y-103119750D03*
%TD*%
D11*
%TO.C,C111*%
X51339500Y-108057250D03*
X53239500Y-108057250D03*
%TD*%
D18*
%TO.C,C30*%
X96389500Y-67559750D03*
X96389500Y-69459750D03*
%TD*%
D14*
%TO.C,R9*%
X144265000Y-31893750D03*
X144265000Y-30068750D03*
%TD*%
%TO.C,R24*%
X126869500Y-47197250D03*
X126869500Y-45372250D03*
%TD*%
D16*
%TO.C,C128*%
X6597000Y-153662250D03*
X4697000Y-153662250D03*
%TD*%
D11*
%TO.C,C79*%
X123697000Y-87877250D03*
X125597000Y-87877250D03*
%TD*%
D25*
%TO.C,R111*%
X92462735Y-90554485D03*
X91172265Y-89264015D03*
%TD*%
D12*
%TO.C,R59*%
X227794500Y-57714750D03*
X225969500Y-57714750D03*
%TD*%
D17*
%TO.C,C50*%
X142249500Y-80892250D03*
X140699500Y-80892250D03*
%TD*%
D15*
%TO.C,R141*%
X223767707Y-130144043D03*
X223767707Y-131969043D03*
%TD*%
D10*
%TO.C,C32*%
X58298250Y-75557250D03*
X58298250Y-73657250D03*
%TD*%
D18*
%TO.C,C35*%
X116709500Y-75814750D03*
X116709500Y-77714750D03*
%TD*%
D12*
%TO.C,R30*%
X119209500Y-50094750D03*
X117384500Y-50094750D03*
%TD*%
D11*
%TO.C,C132*%
X62054000Y-22051250D03*
X63954000Y-22051250D03*
%TD*%
D23*
%TO.C,C75*%
X208327000Y-83432250D03*
X209877000Y-83432250D03*
%TD*%
D12*
%TO.C,R36*%
X182709500Y-50094750D03*
X180884500Y-50094750D03*
%TD*%
D42*
%TO.C,J7*%
X12312000Y-103117250D03*
D43*
X12312000Y-105117250D03*
X12312000Y-107117250D03*
X12312000Y-109117250D03*
X12312000Y-111117250D03*
X12312000Y-113117250D03*
X12312000Y-115117250D03*
%TD*%
D14*
%TO.C,R125*%
X145984500Y-97044750D03*
X145984500Y-95219750D03*
%TD*%
D44*
%TO.C,D5*%
X229482000Y-157727250D03*
X226182000Y-157727250D03*
%TD*%
D38*
%TO.C,C7*%
X119209500Y-41889750D03*
X119209500Y-44964750D03*
%TD*%
D11*
%TO.C,C81*%
X168782000Y-87877250D03*
X170682000Y-87877250D03*
%TD*%
D18*
%TO.C,C126*%
X223767000Y-147887250D03*
X223767000Y-149787250D03*
%TD*%
D16*
%TO.C,C19*%
X223387000Y-52634750D03*
X221487000Y-52634750D03*
%TD*%
D12*
%TO.C,R42*%
X119209500Y-55174750D03*
X117384500Y-55174750D03*
%TD*%
D15*
%TO.C,R78*%
X168144500Y-75852250D03*
X168144500Y-77677250D03*
%TD*%
D11*
%TO.C,C100*%
X130422000Y-100022250D03*
X132322000Y-100022250D03*
%TD*%
D45*
%TO.C,C118*%
X41522000Y-118594750D03*
X41522000Y-121294750D03*
%TD*%
D22*
%TO.C,R53*%
X162469500Y-57714750D03*
X164294500Y-57714750D03*
%TD*%
D26*
%TO.C,C62*%
X203704500Y-83637250D03*
X203704500Y-80687250D03*
%TD*%
D11*
%TO.C,C88*%
X107879500Y-99942250D03*
X109779500Y-99942250D03*
%TD*%
D20*
%TO.C,U7*%
X195509500Y-85019750D03*
X195509500Y-84384750D03*
X195509500Y-83749750D03*
X195509500Y-83114750D03*
X195509500Y-82479750D03*
X195509500Y-81844750D03*
X195509500Y-81209750D03*
X195509500Y-80574750D03*
X190309500Y-80574750D03*
X190309500Y-81209750D03*
X190309500Y-81844750D03*
X190309500Y-82479750D03*
X190309500Y-83114750D03*
X190309500Y-83749750D03*
X190309500Y-84384750D03*
X190309500Y-85019750D03*
%TD*%
D46*
%TO.C,U18*%
X25442000Y-110102250D03*
X25442000Y-111372250D03*
X25442000Y-112642250D03*
X25442000Y-113912250D03*
X25442000Y-115182250D03*
X25442000Y-116452250D03*
X25442000Y-117722250D03*
X25442000Y-118992250D03*
X25442000Y-120262250D03*
X25442000Y-121532250D03*
X34742000Y-121532250D03*
X34742000Y-120262250D03*
X34742000Y-118992250D03*
X34742000Y-117722250D03*
X34742000Y-116452250D03*
X34742000Y-115182250D03*
X34742000Y-113912250D03*
X34742000Y-112642250D03*
X34742000Y-111372250D03*
X34742000Y-110102250D03*
%TD*%
D15*
%TO.C,R93*%
X136077000Y-86647250D03*
X136077000Y-88472250D03*
%TD*%
D14*
%TO.C,R123*%
X127882000Y-97044750D03*
X127882000Y-95219750D03*
%TD*%
D15*
%TO.C,R74*%
X145602000Y-75852250D03*
X145602000Y-77677250D03*
%TD*%
D47*
%TO.C,U17*%
X92604500Y-108197250D03*
X92604500Y-109467250D03*
X92604500Y-110737250D03*
X92604500Y-112007250D03*
X92604500Y-113277250D03*
X92604500Y-114547250D03*
X92604500Y-115817250D03*
X92604500Y-117087250D03*
X97754500Y-117087250D03*
X97754500Y-115817250D03*
X97754500Y-114547250D03*
X97754500Y-113277250D03*
X97754500Y-112007250D03*
X97754500Y-110737250D03*
X97754500Y-109467250D03*
X97754500Y-108197250D03*
%TD*%
D22*
%TO.C,R138*%
X218092000Y-126294750D03*
X219917000Y-126294750D03*
%TD*%
D12*
%TO.C,R58*%
X223349500Y-57714750D03*
X221524500Y-57714750D03*
%TD*%
D48*
%TO.C,SW2*%
X18824500Y-82702250D03*
X18824500Y-76202250D03*
X23324500Y-82702250D03*
X23324500Y-76202250D03*
%TD*%
D15*
%TO.C,R16*%
X171954500Y-40014750D03*
X171954500Y-41839750D03*
%TD*%
%TO.C,R6*%
X144265000Y-25623750D03*
X144265000Y-27448750D03*
%TD*%
D49*
%TO.C,Q1*%
X218052000Y-131533500D03*
X219952000Y-131533500D03*
X219002000Y-129658500D03*
%TD*%
D11*
%TO.C,C99*%
X220592000Y-99942250D03*
X222492000Y-99942250D03*
%TD*%
D50*
%TO.C,J8*%
X73429500Y-124537250D03*
D51*
X73429500Y-121997250D03*
D50*
X70889500Y-124537250D03*
X70889500Y-121997250D03*
X68349500Y-124537250D03*
X68349500Y-121997250D03*
X65809500Y-124537250D03*
X65809500Y-121997250D03*
X63269500Y-124537250D03*
X63269500Y-121997250D03*
X60729500Y-124537250D03*
X60729500Y-121997250D03*
X58189500Y-124537250D03*
X58189500Y-121997250D03*
X55649500Y-124537250D03*
X55649500Y-121997250D03*
%TD*%
D18*
%TO.C,C123*%
X223767000Y-134552250D03*
X223767000Y-136452250D03*
%TD*%
D15*
%TO.C,R62*%
X77907000Y-57584750D03*
X77907000Y-59409750D03*
%TD*%
D14*
%TO.C,R73*%
X142427000Y-77677250D03*
X142427000Y-75852250D03*
%TD*%
D16*
%TO.C,C21*%
X137662000Y-53904750D03*
X135762000Y-53904750D03*
%TD*%
D15*
%TO.C,R118*%
X225587000Y-93394750D03*
X225587000Y-95219750D03*
%TD*%
D14*
%TO.C,R77*%
X164969500Y-77677250D03*
X164969500Y-75852250D03*
%TD*%
D26*
%TO.C,C60*%
X158619500Y-83637250D03*
X158619500Y-80687250D03*
%TD*%
D52*
%TO.C,SW1*%
X26840000Y-20550000D03*
X26840000Y-24550000D03*
X26840000Y-28550000D03*
X20840000Y-20550000D03*
X20840000Y-24550000D03*
X20840000Y-28550000D03*
%TD*%
D53*
%TO.C,U16*%
X82239500Y-112472250D03*
X82239500Y-111202250D03*
X82239500Y-109932250D03*
X82239500Y-108662250D03*
X82239500Y-107392250D03*
X82239500Y-106122250D03*
X82239500Y-104852250D03*
X82239500Y-103582250D03*
X72939500Y-103582250D03*
X72939500Y-104852250D03*
X72939500Y-106122250D03*
X72939500Y-107392250D03*
X72939500Y-108662250D03*
X72939500Y-109932250D03*
X72939500Y-111202250D03*
X72939500Y-112472250D03*
%TD*%
D15*
%TO.C,R115*%
X159949500Y-93394750D03*
X159949500Y-95219750D03*
%TD*%
D23*
%TO.C,C71*%
X163242000Y-83432250D03*
X164792000Y-83432250D03*
%TD*%
D15*
%TO.C,R66*%
X100517000Y-75852250D03*
X100517000Y-77677250D03*
%TD*%
%TO.C,R95*%
X181162000Y-86647250D03*
X181162000Y-88472250D03*
%TD*%
D17*
%TO.C,C55*%
X200034500Y-80892250D03*
X198484500Y-80892250D03*
%TD*%
D12*
%TO.C,R55*%
X182709500Y-57714750D03*
X180884500Y-57714750D03*
%TD*%
D21*
%TO.C,U14*%
X192969500Y-108132250D03*
X194239500Y-108132250D03*
X195509500Y-108132250D03*
X196779500Y-108132250D03*
X198049500Y-108132250D03*
X199319500Y-108132250D03*
X200589500Y-108132250D03*
X200589500Y-103182250D03*
X199319500Y-103182250D03*
X198049500Y-103182250D03*
X196779500Y-103182250D03*
X195509500Y-103182250D03*
X194239500Y-103182250D03*
X192969500Y-103182250D03*
%TD*%
D37*
%TO.C,IC2*%
X172942000Y-58984750D03*
X172942000Y-57714750D03*
X172942000Y-56444750D03*
X172942000Y-55174750D03*
X172942000Y-53904750D03*
X172942000Y-52634750D03*
X172942000Y-51364750D03*
X172942000Y-50094750D03*
X167792000Y-50094750D03*
X167792000Y-51364750D03*
X167792000Y-52634750D03*
X167792000Y-53904750D03*
X167792000Y-55174750D03*
X167792000Y-56444750D03*
X167792000Y-57714750D03*
X167792000Y-58984750D03*
%TD*%
D54*
%TO.C,U9*%
X67289500Y-83394750D03*
X66789500Y-83394750D03*
X66289500Y-83394750D03*
X65789500Y-83394750D03*
X65289500Y-83394750D03*
X64789500Y-83394750D03*
X64289500Y-83394750D03*
X63789500Y-83394750D03*
X63289500Y-83394750D03*
X62789500Y-83394750D03*
X62289500Y-83394750D03*
X61789500Y-83394750D03*
X61289500Y-83394750D03*
X60789500Y-83394750D03*
X60289500Y-83394750D03*
X59789500Y-83394750D03*
X59289500Y-83394750D03*
X58789500Y-83394750D03*
X58289500Y-83394750D03*
X57789500Y-83394750D03*
X57289500Y-83394750D03*
X56789500Y-83394750D03*
X56289500Y-83394750D03*
X55789500Y-83394750D03*
X55289500Y-83394750D03*
X54789500Y-83394750D03*
X54289500Y-83394750D03*
X53789500Y-83394750D03*
X53289500Y-83394750D03*
X52789500Y-83394750D03*
X52289500Y-83394750D03*
X51789500Y-83394750D03*
X51289500Y-83394750D03*
X50789500Y-83394750D03*
X50289500Y-83394750D03*
X49789500Y-83394750D03*
D55*
X47877000Y-85307250D03*
X47877000Y-85807250D03*
X47877000Y-86307250D03*
X47877000Y-86807250D03*
X47877000Y-87307250D03*
X47877000Y-87807250D03*
X47877000Y-88307250D03*
X47877000Y-88807250D03*
X47877000Y-89307250D03*
X47877000Y-89807250D03*
X47877000Y-90307250D03*
X47877000Y-90807250D03*
X47877000Y-91307250D03*
X47877000Y-91807250D03*
X47877000Y-92307250D03*
X47877000Y-92807250D03*
X47877000Y-93307250D03*
X47877000Y-93807250D03*
X47877000Y-94307250D03*
X47877000Y-94807250D03*
X47877000Y-95307250D03*
X47877000Y-95807250D03*
X47877000Y-96307250D03*
X47877000Y-96807250D03*
X47877000Y-97307250D03*
X47877000Y-97807250D03*
X47877000Y-98307250D03*
X47877000Y-98807250D03*
X47877000Y-99307250D03*
X47877000Y-99807250D03*
X47877000Y-100307250D03*
X47877000Y-100807250D03*
X47877000Y-101307250D03*
X47877000Y-101807250D03*
X47877000Y-102307250D03*
X47877000Y-102807250D03*
D54*
X49789500Y-104719750D03*
X50289500Y-104719750D03*
X50789500Y-104719750D03*
X51289500Y-104719750D03*
X51789500Y-104719750D03*
X52289500Y-104719750D03*
X52789500Y-104719750D03*
X53289500Y-104719750D03*
X53789500Y-104719750D03*
X54289500Y-104719750D03*
X54789500Y-104719750D03*
X55289500Y-104719750D03*
X55789500Y-104719750D03*
X56289500Y-104719750D03*
X56789500Y-104719750D03*
X57289500Y-104719750D03*
X57789500Y-104719750D03*
X58289500Y-104719750D03*
X58789500Y-104719750D03*
X59289500Y-104719750D03*
X59789500Y-104719750D03*
X60289500Y-104719750D03*
X60789500Y-104719750D03*
X61289500Y-104719750D03*
X61789500Y-104719750D03*
X62289500Y-104719750D03*
X62789500Y-104719750D03*
X63289500Y-104719750D03*
X63789500Y-104719750D03*
X64289500Y-104719750D03*
X64789500Y-104719750D03*
X65289500Y-104719750D03*
X65789500Y-104719750D03*
X66289500Y-104719750D03*
X66789500Y-104719750D03*
X67289500Y-104719750D03*
D55*
X69202000Y-102807250D03*
X69202000Y-102307250D03*
X69202000Y-101807250D03*
X69202000Y-101307250D03*
X69202000Y-100807250D03*
X69202000Y-100307250D03*
X69202000Y-99807250D03*
X69202000Y-99307250D03*
X69202000Y-98807250D03*
X69202000Y-98307250D03*
X69202000Y-97807250D03*
X69202000Y-97307250D03*
X69202000Y-96807250D03*
X69202000Y-96307250D03*
X69202000Y-95807250D03*
X69202000Y-95307250D03*
X69202000Y-94807250D03*
X69202000Y-94307250D03*
X69202000Y-93807250D03*
X69202000Y-93307250D03*
X69202000Y-92807250D03*
X69202000Y-92307250D03*
X69202000Y-91807250D03*
X69202000Y-91307250D03*
X69202000Y-90807250D03*
X69202000Y-90307250D03*
X69202000Y-89807250D03*
X69202000Y-89307250D03*
X69202000Y-88807250D03*
X69202000Y-88307250D03*
X69202000Y-87807250D03*
X69202000Y-87307250D03*
X69202000Y-86807250D03*
X69202000Y-86307250D03*
X69202000Y-85807250D03*
X69202000Y-85307250D03*
%TD*%
D14*
%TO.C,R69*%
X119884500Y-77677250D03*
X119884500Y-75852250D03*
%TD*%
D56*
%TO.C,R144*%
X56529000Y-37291250D03*
X54879000Y-37291250D03*
%TD*%
D22*
%TO.C,R140*%
X62674500Y-116282250D03*
X64499500Y-116282250D03*
%TD*%
D18*
%TO.C,C114*%
X85812000Y-111202250D03*
X85812000Y-113102250D03*
%TD*%
%TO.C,C44*%
X219579500Y-75814750D03*
X219579500Y-77714750D03*
%TD*%
D21*
%TO.C,U19*%
X219957000Y-144644750D03*
X221227000Y-144644750D03*
X222497000Y-144644750D03*
X223767000Y-144644750D03*
X225037000Y-144644750D03*
X226307000Y-144644750D03*
X227577000Y-144644750D03*
X227577000Y-139694750D03*
X226307000Y-139694750D03*
X225037000Y-139694750D03*
X223767000Y-139694750D03*
X222497000Y-139694750D03*
X221227000Y-139694750D03*
X219957000Y-139694750D03*
%TD*%
%TO.C,U15*%
X215512000Y-108132250D03*
X216782000Y-108132250D03*
X218052000Y-108132250D03*
X219322000Y-108132250D03*
X220592000Y-108132250D03*
X221862000Y-108132250D03*
X223132000Y-108132250D03*
X223132000Y-103182250D03*
X221862000Y-103182250D03*
X220592000Y-103182250D03*
X219322000Y-103182250D03*
X218052000Y-103182250D03*
X216782000Y-103182250D03*
X215512000Y-103182250D03*
%TD*%
D15*
%TO.C,R82*%
X190687000Y-75852250D03*
X190687000Y-77677250D03*
%TD*%
D57*
%TO.C,D2*%
X218052000Y-153917250D03*
X221352000Y-153917250D03*
%TD*%
D14*
%TO.C,R146*%
X230434500Y-140859750D03*
X230434500Y-139034750D03*
%TD*%
D22*
%TO.C,R48*%
X112939500Y-57714750D03*
X114764500Y-57714750D03*
%TD*%
D14*
%TO.C,R122*%
X123442000Y-97044750D03*
X123442000Y-95219750D03*
%TD*%
D15*
%TO.C,R92*%
X113534500Y-86647250D03*
X113534500Y-88472250D03*
%TD*%
D22*
%TO.C,R39*%
X221524500Y-50094750D03*
X223349500Y-50094750D03*
%TD*%
D12*
%TO.C,R102*%
X176359500Y-87877250D03*
X174534500Y-87877250D03*
%TD*%
D16*
%TO.C,C27*%
X51592000Y-58497250D03*
X49692000Y-58497250D03*
%TD*%
D14*
%TO.C,R105*%
X98612000Y-89742250D03*
X98612000Y-87917250D03*
%TD*%
D18*
%TO.C,C33*%
X94167000Y-75814750D03*
X94167000Y-77714750D03*
%TD*%
D22*
%TO.C,R60*%
X54492000Y-58497250D03*
X56317000Y-58497250D03*
%TD*%
D26*
%TO.C,C61*%
X181162000Y-83637250D03*
X181162000Y-80687250D03*
%TD*%
D14*
%TO.C,R127*%
X154864500Y-97044750D03*
X154864500Y-95219750D03*
%TD*%
D12*
%TO.C,R104*%
X221444500Y-87877250D03*
X219619500Y-87877250D03*
%TD*%
D32*
%TO.C,H3*%
X5690000Y-166460000D03*
%TD*%
D38*
%TO.C,C9*%
X164294500Y-41889750D03*
X164294500Y-44964750D03*
%TD*%
D44*
%TO.C,D4*%
X221352000Y-157727250D03*
X218052000Y-157727250D03*
%TD*%
D58*
%TO.C,C6*%
X36950000Y-43998750D03*
X36950000Y-41298750D03*
%TD*%
D14*
%TO.C,R85*%
X210054500Y-77677250D03*
X210054500Y-75852250D03*
%TD*%
D10*
%TO.C,C85*%
X44599500Y-97807250D03*
X44599500Y-95907250D03*
%TD*%
D21*
%TO.C,U13*%
X170427000Y-108132250D03*
X171697000Y-108132250D03*
X172967000Y-108132250D03*
X174237000Y-108132250D03*
X175507000Y-108132250D03*
X176777000Y-108132250D03*
X178047000Y-108132250D03*
X178047000Y-103182250D03*
X176777000Y-103182250D03*
X175507000Y-103182250D03*
X174237000Y-103182250D03*
X172967000Y-103182250D03*
X171697000Y-103182250D03*
X170427000Y-103182250D03*
%TD*%
D16*
%TO.C,C115*%
X6597000Y-114292250D03*
X4697000Y-114292250D03*
%TD*%
D14*
%TO.C,R25*%
X168779500Y-47197250D03*
X168779500Y-45372250D03*
%TD*%
D23*
%TO.C,C66*%
X108949500Y-83432250D03*
X110499500Y-83432250D03*
%TD*%
D18*
%TO.C,C34*%
X106867000Y-75814750D03*
X106867000Y-77714750D03*
%TD*%
D12*
%TO.C,R64*%
X28972000Y-76436000D03*
X27147000Y-76436000D03*
%TD*%
D14*
%TO.C,R129*%
X172967000Y-97044750D03*
X172967000Y-95219750D03*
%TD*%
D16*
%TO.C,C96*%
X192969500Y-99942250D03*
X191069500Y-99942250D03*
%TD*%
D18*
%TO.C,C39*%
X161794500Y-75814750D03*
X161794500Y-77714750D03*
%TD*%
D15*
%TO.C,R151*%
X227577000Y-147924750D03*
X227577000Y-149749750D03*
%TD*%
D32*
%TO.C,H1*%
X5690000Y-13550000D03*
%TD*%
D38*
%TO.C,C8*%
X131354500Y-41889750D03*
X131354500Y-44964750D03*
%TD*%
D12*
%TO.C,R101*%
X153817000Y-87877250D03*
X151992000Y-87877250D03*
%TD*%
D21*
%TO.C,U12*%
X147884500Y-108132250D03*
X149154500Y-108132250D03*
X150424500Y-108132250D03*
X151694500Y-108132250D03*
X152964500Y-108132250D03*
X154234500Y-108132250D03*
X155504500Y-108132250D03*
X155504500Y-103182250D03*
X154234500Y-103182250D03*
X152964500Y-103182250D03*
X151694500Y-103182250D03*
X150424500Y-103182250D03*
X149154500Y-103182250D03*
X147884500Y-103182250D03*
%TD*%
D33*
%TO.C,C121*%
X213607000Y-130372250D03*
X213607000Y-127297250D03*
%TD*%
D14*
%TO.C,R135*%
X218052000Y-97044750D03*
X218052000Y-95219750D03*
%TD*%
D27*
%TO.C,RV1*%
X152840000Y-3020000D03*
X147840000Y-3020000D03*
X142840000Y-3020000D03*
X152840000Y-8020000D03*
X147840000Y-8020000D03*
X142840000Y-8020000D03*
%TD*%
%TO.C,J4*%
X201855000Y-9720000D03*
X217855000Y-9720000D03*
X201855000Y-3420000D03*
X217855000Y-3420000D03*
X201855000Y-16020000D03*
X217855000Y-16020000D03*
%TD*%
D18*
%TO.C,C38*%
X151952000Y-75814750D03*
X151952000Y-77714750D03*
%TD*%
D14*
%TO.C,R121*%
X109779500Y-97044750D03*
X109779500Y-95219750D03*
%TD*%
%TO.C,R68*%
X113534500Y-77677250D03*
X113534500Y-75852250D03*
%TD*%
%TO.C,R81*%
X187512000Y-77677250D03*
X187512000Y-75852250D03*
%TD*%
D23*
%TO.C,C70*%
X154034500Y-83432250D03*
X155584500Y-83432250D03*
%TD*%
D12*
%TO.C,R99*%
X108732000Y-87877250D03*
X106907000Y-87877250D03*
%TD*%
D16*
%TO.C,C110*%
X6597000Y-107942250D03*
X4697000Y-107942250D03*
%TD*%
D15*
%TO.C,R17*%
X205292000Y-40014750D03*
X205292000Y-41839750D03*
%TD*%
D10*
%TO.C,C77*%
X44569500Y-86313250D03*
X44569500Y-84413250D03*
%TD*%
D11*
%TO.C,C78*%
X101154500Y-87877250D03*
X103054500Y-87877250D03*
%TD*%
D10*
%TO.C,C106*%
X226307000Y-105019750D03*
X226307000Y-103119750D03*
%TD*%
D16*
%TO.C,C90*%
X147884500Y-99942250D03*
X145984500Y-99942250D03*
%TD*%
D10*
%TO.C,C86*%
X72509500Y-100009750D03*
X72509500Y-98109750D03*
%TD*%
D17*
%TO.C,C53*%
X177492000Y-80892250D03*
X175942000Y-80892250D03*
%TD*%
D38*
%TO.C,C11*%
X209379500Y-41889750D03*
X209379500Y-44964750D03*
%TD*%
D16*
%TO.C,C125*%
X6597000Y-147312250D03*
X4697000Y-147312250D03*
%TD*%
D59*
%TO.C,J5*%
X53590000Y-12487500D03*
D60*
X56090000Y-12487500D03*
X56090000Y-10487500D03*
X53590000Y-10487500D03*
D61*
X48840000Y-7627500D03*
X60840000Y-7627500D03*
%TD*%
D12*
%TO.C,R54*%
X178264500Y-57714750D03*
X176439500Y-57714750D03*
%TD*%
D14*
%TO.C,R119*%
X100899500Y-97044750D03*
X100899500Y-95219750D03*
%TD*%
D17*
%TO.C,C57*%
X222577000Y-80892250D03*
X221027000Y-80892250D03*
%TD*%
D23*
%TO.C,C68*%
X131492000Y-83432250D03*
X133042000Y-83432250D03*
%TD*%
D15*
%TO.C,R86*%
X213229500Y-75852250D03*
X213229500Y-77677250D03*
%TD*%
D14*
%TO.C,R88*%
X226247000Y-77677250D03*
X226247000Y-75852250D03*
%TD*%
D22*
%TO.C,R49*%
X117384500Y-57714750D03*
X119209500Y-57714750D03*
%TD*%
%TO.C,R29*%
X112939500Y-50094750D03*
X114764500Y-50094750D03*
%TD*%
D10*
%TO.C,C117*%
X227577000Y-118989750D03*
X227577000Y-117089750D03*
%TD*%
D15*
%TO.C,R13*%
X123694500Y-40014750D03*
X123694500Y-41839750D03*
%TD*%
D58*
%TO.C,C13*%
X40252000Y-46698750D03*
X40252000Y-43998750D03*
%TD*%
D12*
%TO.C,R50*%
X133179500Y-57714750D03*
X131354500Y-57714750D03*
%TD*%
D62*
%TO.C,L1*%
X38347000Y-120372250D03*
X38347000Y-118247250D03*
%TD*%
D22*
%TO.C,R37*%
X203109500Y-50094750D03*
X204934500Y-50094750D03*
%TD*%
D63*
%TO.C,U2*%
X89627000Y-67309750D03*
X89627000Y-67709750D03*
X89627000Y-68109750D03*
X89627000Y-68509750D03*
X89627000Y-68909750D03*
X89627000Y-69309750D03*
X89627000Y-69709750D03*
D64*
X90427000Y-70509750D03*
X90827000Y-70509750D03*
X91227000Y-70509750D03*
X91627000Y-70509750D03*
X92027000Y-70509750D03*
X92427000Y-70509750D03*
X92827000Y-70509750D03*
D63*
X93627000Y-69709750D03*
X93627000Y-69309750D03*
X93627000Y-68909750D03*
X93627000Y-68509750D03*
X93627000Y-68109750D03*
X93627000Y-67709750D03*
X93627000Y-67309750D03*
D64*
X92827000Y-66509750D03*
X92427000Y-66509750D03*
X92027000Y-66509750D03*
X91627000Y-66509750D03*
X91227000Y-66509750D03*
X90827000Y-66509750D03*
X90427000Y-66509750D03*
D65*
X91627000Y-68509750D03*
%TD*%
D66*
%TO.C,J1*%
X121840000Y-1590000D03*
X111840000Y-1590000D03*
X109340000Y-11590000D03*
X116840000Y-11590000D03*
X124340000Y-11590000D03*
X111840000Y-13890000D03*
X121840000Y-13890000D03*
%TD*%
D23*
%TO.C,C69*%
X140699500Y-83432250D03*
X142249500Y-83432250D03*
%TD*%
D10*
%TO.C,C102*%
X136137000Y-105019750D03*
X136137000Y-103119750D03*
%TD*%
D16*
%TO.C,C17*%
X178302000Y-52634750D03*
X176402000Y-52634750D03*
%TD*%
%TO.C,C107*%
X6597000Y-104767250D03*
X4697000Y-104767250D03*
%TD*%
%TO.C,C25*%
X227832000Y-53904750D03*
X225932000Y-53904750D03*
%TD*%
D57*
%TO.C,D1*%
X68319500Y-50977250D03*
X71619500Y-50977250D03*
%TD*%
D14*
%TO.C,R112*%
X76637000Y-91902500D03*
X76637000Y-90077500D03*
%TD*%
D22*
%TO.C,R43*%
X131354500Y-55174750D03*
X133179500Y-55174750D03*
%TD*%
%TO.C,R57*%
X207554500Y-57714750D03*
X209379500Y-57714750D03*
%TD*%
D57*
%TO.C,D3*%
X226182000Y-153917250D03*
X229482000Y-153917250D03*
%TD*%
D14*
%TO.C,R133*%
X199949500Y-97044750D03*
X199949500Y-95219750D03*
%TD*%
D37*
%TO.C,IC3*%
X218027000Y-58984750D03*
X218027000Y-57714750D03*
X218027000Y-56444750D03*
X218027000Y-55174750D03*
X218027000Y-53904750D03*
X218027000Y-52634750D03*
X218027000Y-51364750D03*
X218027000Y-50094750D03*
X212877000Y-50094750D03*
X212877000Y-51364750D03*
X212877000Y-52634750D03*
X212877000Y-53904750D03*
X212877000Y-55174750D03*
X212877000Y-56444750D03*
X212877000Y-57714750D03*
X212877000Y-58984750D03*
%TD*%
D14*
%TO.C,R136*%
X222492000Y-97044750D03*
X222492000Y-95219750D03*
%TD*%
D42*
%TO.C,J10*%
X12312000Y-142487250D03*
D43*
X12312000Y-144487250D03*
X12312000Y-146487250D03*
X12312000Y-148487250D03*
X12312000Y-150487250D03*
X12312000Y-152487250D03*
X12312000Y-154487250D03*
%TD*%
M02*
