M48
; DRILL file {KiCad 8.0.1} date 2024-07-02T14:13:57+0200
; FORMAT={-:-/ absolute / inch / decimal}
; #@! TF.CreationDate,2024-07-02T14:13:57+02:00
; #@! TF.GenerationSoftware,Kicad,Pcbnew,8.0.1
; #@! TF.FileFunction,Plated,1,2,PTH
FMAT,2
INCH
; #@! TA.AperFunction,Plated,PTH,ViaDrill
T1C0.0118
; #@! TA.AperFunction,Plated,PTH,ComponentDrill
T2C0.0118
; #@! TA.AperFunction,Plated,PTH,ViaDrill
T3C0.0157
; #@! TA.AperFunction,Plated,PTH,ViaDrill
T4C0.0236
; #@! TA.AperFunction,Plated,PTH,ComponentDrill
T5C0.0295
; #@! TA.AperFunction,Plated,PTH,ComponentDrill
T6C0.0315
; #@! TA.AperFunction,Plated,PTH,ComponentDrill
T7C0.0335
; #@! TA.AperFunction,Plated,PTH,ComponentDrill
T8C0.0374
; #@! TA.AperFunction,Plated,PTH,ComponentDrill
T9C0.0394
; #@! TA.AperFunction,Plated,PTH,ComponentDrill
T10C0.0433
; #@! TA.AperFunction,Plated,PTH,ComponentDrill
T11C0.0472
; #@! TA.AperFunction,Plated,PTH,ComponentDrill
T12C0.0551
; #@! TA.AperFunction,Plated,PTH,ComponentDrill
T13C0.0591
; #@! TA.AperFunction,Plated,PTH,ComponentDrill
T14C0.0610
; #@! TA.AperFunction,Plated,PTH,ComponentDrill
T15C0.0906
; #@! TA.AperFunction,Plated,PTH,ComponentDrill
T16C0.1575
%
G90
G05
T1
X0.5206Y-1.3405
X0.5206Y-1.5218
X0.5985Y-1.4343
X0.6449Y-4.8972
X0.6449Y-4.9347
X0.6449Y-5.1972
X0.6449Y-5.2347
X1.0017Y-4.8597
X1.0017Y-5.143
X1.0847Y-4.7847
X1.1347Y-4.2097
X1.2347Y-4.2097
X1.2847Y-2.3472
X1.3672Y-4.278
X1.3922Y-2.653
X1.3922Y-2.778
X1.3922Y-3.0718
X1.3922Y-3.1843
X1.3922Y-3.4655
X1.3922Y-3.903
X1.4347Y-2.2097
X1.5097Y-4.7847
X1.5172Y-3.0718
X1.5172Y-3.128
X1.5172Y-3.1843
X1.5172Y-3.4655
X1.5197Y-2.3307
X1.523Y-2.653
X1.523Y-2.778
X1.6097Y-3.7922
X1.6347Y-5.143
X1.6347Y-4.8472
X1.6422Y-2.778
X1.6422Y-3.0718
X1.6547Y-2.333
X1.6547Y-3.7428
X1.6547Y-3.903
X1.6797Y-4.4042
X1.6806Y-4.3042
X1.6846Y-3.644
X1.6898Y-3.8507
X1.6922Y-3.3982
X1.7097Y-1.9222
X1.7147Y-2.6476
X1.7437Y-3.6538
X1.7452Y-1.7335
X1.7547Y-3.2682
X1.7559Y-3.7269
X1.7827Y-2.8487
X1.8074Y-3.5222
X1.8129Y-3.7759
X1.8297Y-4.0082
X1.8297Y-3.9097
X1.8421Y-2.8999
X1.8586Y-4.5917
X1.8597Y-3.3155
X1.8909Y-1.7335
X1.9016Y-2.303
X1.9087Y-1.5043
X1.9125Y-2.6375
X1.9172Y-3.2343
X1.9172Y-4.3042
X1.9172Y-4.4042
X1.939Y-1.5557
X1.9437Y-1.3512
X1.9547Y-3.4963
X1.9547Y-3.8155
X1.9672Y-3.9405
X2.0187Y-1.9252
X2.0193Y-4.0722
X2.0431Y-1.3512
X2.0559Y-4.4043
X2.0931Y-0.9057
X2.0931Y-1.0619
X2.0931Y-1.4307
X2.0956Y-4.3132
X2.096Y-4.1952
X2.1271Y-1.2823
X2.1547Y-4.0405
X2.1647Y-4.983
X2.1647Y-5.143
X2.1813Y-2.378
X2.1964Y-3.3317
X2.1974Y-1.9288
X2.2Y-1.7323
X2.2181Y-0.8682
X2.2358Y-2.8999
X2.2358Y-3.2155
X2.2681Y-1.5557
X2.2683Y-0.8057
X2.2699Y-3.6347
X2.2949Y-3.3487
X2.2952Y-2.8487
X2.3563Y-2.653
X2.3672Y-3.1905
X2.3931Y-0.9057
X2.3931Y-1.0619
X2.3931Y-1.2744
X2.3931Y-1.4244
X2.4431Y-1.7338
X2.4547Y-2.9984
X2.4547Y-3.1905
X2.4547Y-4.0405
X2.4625Y-3.5625
X2.4625Y-3.7
X2.4659Y-4.6405
X2.5036Y-4.3547
X2.5114Y-4.003
X2.5172Y-2.653
X2.5172Y-2.778
X2.5179Y-0.8057
X2.5179Y-0.9307
X2.5181Y-1.3994
X2.5181Y-1.5432
X2.5409Y-4.5155
X2.5624Y-1.9288
X2.5783Y-4.3547
X2.5922Y-3.3655
X2.6047Y-4.0405
X2.6562Y-3.5405
X2.6718Y-3.9294
X2.6997Y-4.173
X2.7174Y-1.7338
X2.7297Y-3.1905
X2.7784Y-3.9196
X2.7847Y-3.5101
X2.7847Y-3.5525
X2.7847Y-3.5948
X2.787Y-3.6637
X2.787Y-3.703
X2.787Y-3.7424
X2.7922Y-3.8566
X2.8297Y-3.2734
X2.8774Y-1.9288
X2.8924Y-1.5538
X2.9309Y-3.4668
X2.9324Y-3.3472
X2.9369Y-4.078
X2.9369Y-4.128
X2.9699Y-3.9222
X3.0174Y-1.4338
X3.0184Y-2.7168
X3.0374Y-1.7338
X3.0934Y-2.7918
X3.1074Y-3.7847
X3.1705Y-4.428
X3.1724Y-1.5588
X3.2199Y-3.6597
X3.2597Y-3.5101
X3.2597Y-3.5525
X3.2674Y-1.4338
X3.2699Y-3.9347
X3.3422Y-2.7548
X3.3784Y-4.5029
X3.3824Y-2.0972
X3.3824Y-2.8222
X3.4074Y-2.5147
X3.4449Y-3.9347
X3.5074Y-1.5588
X3.5074Y-1.7338
X3.5074Y-1.8972
X3.5097Y-3.5722
X3.5574Y-2.0972
X3.5672Y-2.2972
X3.5722Y-4.4597
X3.5722Y-4.6097
X3.5847Y-4.2597
X3.5847Y-4.3097
X3.5847Y-4.3597
X3.6074Y-1.4388
X3.6449Y-2.9847
X3.6574Y-4.1347
X3.7034Y-4.4097
X3.7172Y-4.4597
X3.7172Y-4.6097
X3.7324Y-2.6657
X3.7324Y-2.7287
X3.7699Y-2.9847
X3.7847Y-3.7472
X3.8574Y-4.1847
X3.8672Y-3.9905
X3.8824Y-1.9222
X3.8928Y-2.6579
X3.8928Y-2.7366
X3.8937Y-2.075
X3.8937Y-2.2937
X3.9817Y-4.2422
X3.9947Y-3.1722
X4.0404Y-2.6579
X4.0404Y-2.7366
X4.0438Y-1.9222
X4.0472Y-3.6847
X4.0472Y-3.866
X4.05Y-2.075
X4.05Y-2.225
X4.0824Y-3.3347
X4.0972Y-3.5847
X4.0972Y-4.0097
X4.1074Y-3.4597
X4.1472Y-3.5097
X4.1472Y-3.7097
X4.1472Y-3.866
X4.1972Y-3.6222
X4.1972Y-4.0097
X4.1972Y-4.3222
X4.2472Y-3.6847
X4.2472Y-3.866
X4.2472Y-4.3597
X4.2699Y-2.9847
X4.3324Y-3.4597
X4.3574Y-2.2722
X4.366Y-3.8722
X4.3949Y-2.1222
X4.3949Y-3.2347
X4.4097Y-4.0597
X4.441Y-3.6847
X4.4538Y-2.7366
X4.4699Y-2.9347
X4.503Y-2.6579
X4.5074Y-2.3472
X4.5324Y-2.9847
X4.5324Y-3.4847
X4.5347Y-4.0597
X4.5347Y-4.2347
X4.5699Y-2.0722
X4.5699Y-2.2222
X4.5818Y-2.7366
X4.6507Y-2.6579
X4.6574Y-2.9847
X4.7712Y-2.2222
X4.8074Y-1.7863
X4.816Y-3.8722
X4.8822Y-3.1722
X4.8847Y-4.0597
X4.8949Y-2.9222
X4.9324Y-2.2222
X4.9347Y-3.7097
X4.9347Y-3.866
X4.9699Y-3.3347
X4.9847Y-3.5847
X4.9847Y-4.0097
X4.9949Y-3.4597
X5.0347Y-3.5097
X5.0347Y-3.7097
X5.0347Y-3.866
X5.0472Y-4.4097
X5.0574Y-1.7863
X5.0847Y-3.6222
X5.0847Y-4.0097
X5.0847Y-4.3222
X5.0962Y-2.2222
X5.1347Y-3.7097
X5.1347Y-3.866
X5.1347Y-4.3597
X5.1574Y-2.9847
X5.2117Y-2.6579
X5.2199Y-3.4597
X5.2535Y-3.8785
X5.2609Y-2.7366
X5.2949Y-2.0722
X5.2949Y-2.2222
X5.2949Y-3.2347
X5.2972Y-4.0597
X5.3074Y-1.8222
X5.3324Y-2.3472
X5.3574Y-2.9347
X5.3593Y-2.6579
X5.3889Y-2.7366
X5.4199Y-3.4847
X5.4222Y-4.0597
X5.4222Y-4.2285
X5.4222Y-4.3972
X5.4324Y-1.6472
X5.4699Y-2.1222
X5.4824Y-2.9222
X5.4922Y-1.0088
X5.5324Y-2.0722
X5.5324Y-2.2222
X5.5547Y-1.1322
X5.5547Y-1.3072
X5.6172Y-1.0088
X5.7035Y-3.8722
X5.7699Y-3.1722
X5.7722Y-4.0597
X5.7874Y-1.5247
X5.8047Y-1.1072
X5.8222Y-3.7097
X5.8222Y-3.866
X5.8452Y-1.1573
X5.8574Y-3.3347
X5.8722Y-3.5847
X5.8722Y-4.0097
X5.8824Y-3.4597
X5.8924Y-1.5247
X5.9047Y-0.9697
X5.9047Y-1.2947
X5.9222Y-3.5097
X5.9222Y-3.7097
X5.9222Y-3.866
X5.9422Y-0.7797
X5.9722Y-3.6222
X5.9722Y-4.0097
X5.9722Y-4.3222
X5.9824Y-2.9222
X6.0047Y-1.1697
X6.0097Y-1.5247
X6.0222Y-3.7097
X6.0222Y-3.866
X6.0222Y-4.3597
X6.0797Y-1.7097
X6.0797Y-1.1322
X6.1074Y-2.0722
X6.1074Y-2.2222
X6.1074Y-3.4597
X6.141Y-3.8722
X6.161Y-1.1322
X6.1699Y-2.1222
X6.1699Y-3.2347
X6.1824Y-3.9347
X6.1847Y-4.0597
X6.2074Y-1.6472
X6.2353Y-2.7366
X6.2449Y-2.9347
X6.2574Y-2.3972
X6.2747Y-2.6579
X6.2824Y-1.8222
X6.286Y-1.4822
X6.3074Y-3.4847
X6.3097Y-4.0597
X6.3097Y-4.2285
X6.3097Y-4.3972
X6.3449Y-2.0722
X6.3449Y-2.2222
X6.3633Y-2.7366
X6.3699Y-2.9222
X6.3714Y-3.9347
X6.4223Y-2.6579
X6.5449Y-2.2222
X6.5574Y-3.9347
X6.5824Y-1.7863
X6.591Y-3.8722
X6.6572Y-3.1722
X6.6597Y-4.0597
X6.7074Y-2.2222
X6.7097Y-3.7097
X6.7097Y-3.866
X6.7449Y-3.3347
X6.7597Y-3.5847
X6.7597Y-4.0097
X6.7699Y-3.4597
X6.8097Y-3.5097
X6.8097Y-3.7097
X6.8097Y-3.866
X6.8324Y-1.7863
X6.8597Y-3.6222
X6.8597Y-4.0097
X6.8597Y-4.3222
X6.8699Y-2.2222
X6.8699Y-2.9222
X6.9097Y-3.7097
X6.9097Y-3.866
X6.9097Y-4.3597
X6.9932Y-2.6579
X6.9949Y-3.4597
X7.0285Y-3.8722
X7.0424Y-2.7366
X7.0574Y-2.3972
X7.0699Y-2.0722
X7.0699Y-2.2222
X7.0699Y-3.2347
X7.0722Y-4.0597
X7.0824Y-1.8222
X7.131Y-2.6579
X7.1324Y-2.9347
X7.1605Y-2.7366
X7.1949Y-3.4847
X7.1972Y-4.0597
X7.1972Y-4.2347
X7.1972Y-4.3972
X7.2074Y-1.6472
X7.2449Y-2.1222
X7.2574Y-2.9222
X7.3074Y-2.0722
X7.3074Y-2.2222
X7.5449Y-3.1722
X7.5472Y-4.0597
X7.5972Y-3.7097
X7.6035Y-3.866
X7.6324Y-3.3347
X7.6472Y-3.5847
X7.6472Y-4.0097
X7.6574Y-3.4597
X7.6972Y-3.5097
X7.6972Y-3.7097
X7.6972Y-3.866
X7.7472Y-3.6222
X7.7472Y-4.0097
X7.7472Y-4.3222
X7.7574Y-2.9222
X7.791Y-3.866
X7.7972Y-3.7097
X7.7972Y-4.3597
X7.8824Y-2.0722
X7.8824Y-2.2222
X7.8824Y-3.4597
X7.916Y-3.8722
X7.9449Y-2.1222
X7.9449Y-3.2347
X7.9597Y-4.0597
X7.9824Y-1.6472
X8.0199Y-2.9347
X8.0324Y-2.4238
X8.0463Y-2.6579
X8.0824Y-3.4847
X8.0847Y-4.0597
X8.0847Y-4.2285
X8.0847Y-4.3972
X8.1074Y-1.8222
X8.1199Y-2.0722
X8.1199Y-2.2222
X8.1449Y-2.9222
X8.1644Y-2.6972
X8.3199Y-2.2222
X8.3574Y-1.7863
X8.366Y-3.8722
X8.4097Y-4.9557
X8.4324Y-3.1722
X8.4347Y-4.0597
X8.4347Y-5.9472
X8.4824Y-2.2222
X8.4847Y-3.7097
X8.4847Y-3.8722
X8.5199Y-3.3347
X8.5324Y-6.0172
X8.5347Y-3.5847
X8.5347Y-4.0097
X8.5449Y-3.4597
X8.5847Y-3.5847
X8.5847Y-3.7097
X8.5847Y-3.866
X8.6074Y-1.7863
X8.6347Y-3.6222
X8.6347Y-4.0097
X8.6347Y-4.3222
X8.6449Y-2.2222
X8.6449Y-2.9222
X8.6847Y-3.7097
X8.6847Y-3.8722
X8.6847Y-4.3597
X8.7347Y-5.7722
X8.7472Y-5.1238
X8.7949Y-3.4597
X8.8097Y-4.9679
X8.8097Y-5.9497
X8.8097Y-6.1322
X8.8449Y-2.0722
X8.8449Y-2.2222
X8.8449Y-3.2347
X8.8472Y-4.0597
X8.8563Y-4.6097
X8.8597Y-5.7722
X8.8624Y-2.3988
X8.8722Y-4.9472
X8.9074Y-2.9347
X8.9074Y-3.5347
X8.9597Y-4.5597
X8.9722Y-4.0597
X8.9847Y-4.7847
X9.0187Y-4.6097
X9.0199Y-2.1222
X9.1347Y-5.7222
T2
X3.568Y-2.6579
X3.568Y-2.6972
X3.568Y-2.7366
X3.6074Y-2.6579
X3.6074Y-2.6972
X3.6074Y-2.7366
X3.6467Y-2.6579
X3.6467Y-2.6972
X3.6467Y-2.7366
T3
X1.4547Y-3.0093
X2.0212Y-4.3547
X3.4699Y-2.6396
X3.9425Y-3.3972
X4.1472Y-3.1097
X4.7574Y-2.0722
X4.83Y-3.3972
X5.0347Y-3.1097
X5.1074Y-2.0722
X5.7175Y-3.3972
X5.9222Y-3.1097
X5.9547Y-0.9697
X5.9547Y-1.2947
X6.5324Y-2.0722
X6.605Y-3.3972
X6.8097Y-3.1097
X6.8824Y-2.0722
X7.4925Y-3.3972
X7.6972Y-3.1097
X8.3074Y-2.0722
X8.38Y-3.3972
X8.5847Y-3.1097
X8.6574Y-2.0722
X8.7097Y-5.1785
X8.8097Y-4.1597
X8.8097Y-5.4222
X8.8097Y-5.7722
T4
X0.348Y-1.3573
X0.348Y-1.4323
X0.348Y-1.5073
X0.8256Y-1.7432
X0.8256Y-1.9432
X1.0105Y-2.2448
X1.0855Y-2.2447
X1.248Y-2.2448
X1.25Y-1.5312
X1.2506Y-1.9432
X1.3172Y-1.6259
X1.3797Y-1.6259
X1.4472Y-1.8385
X1.5097Y-1.8385
X1.5297Y-1.6259
X1.5922Y-1.6259
X1.6547Y-2.7155
X1.6597Y-1.8385
X1.7222Y-1.8385
X1.8314Y-2.7155
X1.8939Y-2.7155
X1.9564Y-2.7155
X3.6574Y-1.9972
X3.7324Y-1.9972
X3.8074Y-1.9972
X4.0472Y-4.1597
X4.1199Y-1.9972
X4.1222Y-4.1597
X4.1949Y-1.9972
X4.1972Y-4.1597
X4.2699Y-1.9972
T5
X0.4847Y-4.0597
X0.4847Y-4.1385
X0.4847Y-4.2172
X0.4847Y-4.296
X0.4847Y-4.3747
X0.4847Y-4.4534
X0.4847Y-4.5322
X0.4847Y-5.6097
X0.4847Y-5.6885
X0.4847Y-5.7672
X0.4847Y-5.846
X0.4847Y-5.9247
X0.4847Y-6.0034
X0.4847Y-6.0822
T6
X2.6043Y-2.1534
X2.6043Y-2.4534
X2.7043Y-2.1534
X2.7043Y-2.4534
X2.8043Y-2.1534
X2.8043Y-2.4534
X2.9043Y-2.1534
X2.9043Y-2.4534
T7
X0.348Y-1.7323
X0.348Y-2.2448
X0.448Y-1.7323
X0.448Y-2.2448
X0.648Y-2.2448
X0.848Y-2.2448
X0.948Y-1.7323
X1.148Y-1.7323
X1.248Y-1.7323
T8
X2.1098Y-0.4129
X2.1098Y-0.4916
X2.2083Y-0.4129
X2.2083Y-0.4916
X7.091Y-5.5091
X7.1895Y-5.5091
X7.2879Y-5.5091
X7.3863Y-5.5091
X7.4847Y-5.5091
X7.5832Y-5.5091
X7.6816Y-5.5091
X7.78Y-5.5091
T9
X2.1909Y-4.803
X2.1909Y-4.903
X2.2909Y-4.803
X2.2909Y-4.903
X2.3909Y-4.803
X2.3909Y-4.903
X2.4909Y-4.803
X2.4909Y-4.903
X2.5909Y-4.803
X2.5909Y-4.903
X2.6909Y-4.803
X2.6909Y-4.903
X2.7909Y-4.803
X2.7909Y-4.903
X2.8909Y-4.803
X2.8909Y-4.903
X3.0172Y-2.8905
X3.0172Y-2.9905
X3.0172Y-3.0905
X3.0172Y-3.1905
X3.0172Y-3.2905
X3.0172Y-3.3905
T10
X0.7411Y-3.0001
X0.7411Y-3.256
X0.9183Y-3.0001
X0.9183Y-3.256
T11
X5.6236Y-0.1189
X5.6236Y-0.3157
X5.8205Y-0.1189
X5.8205Y-0.3157
X6.0173Y-0.1189
X6.0173Y-0.3157
T12
X3.0652Y-0.1346
X3.0652Y-0.3827
X3.0652Y-0.6307
X3.6951Y-0.1346
X3.6951Y-0.3827
X3.6951Y-0.6307
X6.7266Y-0.1346
X6.7266Y-0.3827
X6.7266Y-0.6307
X7.3565Y-0.1346
X7.3565Y-0.3827
X7.3565Y-0.6307
X7.947Y-0.1346
X7.947Y-0.3827
X7.947Y-0.6307
X8.577Y-0.1346
X8.577Y-0.3827
X8.577Y-0.6307
T13
X4.3047Y-0.4563
X4.4031Y-0.0626
X4.4031Y-0.5469
X4.6Y-0.4563
X4.7969Y-0.0626
X4.7969Y-0.5469
X4.8953Y-0.4563
T14
X0.8205Y-0.8091
X0.8205Y-0.9665
X0.8205Y-1.124
X1.0567Y-0.8091
X1.0567Y-0.9665
X1.0567Y-1.124
T15
X1.9228Y-0.3003
X2.3953Y-0.3003
T16
X0.224Y-0.5335
X0.224Y-6.5535
X8.976Y-0.5335
X8.976Y-6.5535
M30
